<ttFont>
    <TTGlyph name=".ttfautohint" xMin="0" yMin="0" xMax="0" yMax="0">
      <contour>
        <pt x="0" y="0" on="1"/>
      </contour>
    </TTGlyph>
    <TTGlyph name="A" xMin="60" yMin="0" xMax="484" yMax="685">
      <contour>
        <pt x="397" y="0" on="1"/>
        <pt x="397" y="42" on="0"/>
        <pt x="395" y="121" on="0"/>
        <pt x="393" y="160" on="1"/>
        <pt x="152" y="160" on="1"/>
        <pt x="150" y="121" on="0"/>
        <pt x="148" y="42" on="0"/>
        <pt x="148" y="0" on="1"/>
        <pt x="60" y="0" on="1"/>
        <pt x="61" y="138" on="0"/>
        <pt x="94" y="387" on="0"/>
        <pt x="151" y="575" on="0"/>
        <pt x="228" y="685" on="0"/>
        <pt x="272" y="685" on="1"/>
        <pt x="317" y="685" on="0"/>
        <pt x="393" y="575" on="0"/>
        <pt x="450" y="387" on="0"/>
        <pt x="483" y="138" on="0"/>
        <pt x="484" y="0" on="1"/>
      </contour>
      <contour>
        <pt x="272" y="645" on="1"/>
        <pt x="251" y="645" on="0"/>
        <pt x="213" y="578" on="0"/>
        <pt x="183" y="460" on="0"/>
        <pt x="161" y="299" on="0"/>
        <pt x="155" y="205" on="1"/>
        <pt x="390" y="205" on="1"/>
        <pt x="384" y="299" on="0"/>
        <pt x="361" y="460" on="0"/>
        <pt x="330" y="578" on="0"/>
        <pt x="293" y="645" on="0"/>
      </contour>
    </TTGlyph>
    <TTGlyph name="AE" xMin="70" yMin="-15" xMax="752" yMax="685">
      <contour>
        <pt x="709" y="174" on="1"/>
        <pt x="695" y="132" on="0"/>
        <pt x="661" y="63" on="0"/>
        <pt x="620" y="13" on="0"/>
        <pt x="575" y="-15" on="0"/>
        <pt x="551" y="-15" on="1"/>
        <pt x="521" y="-15" on="0"/>
        <pt x="466" y="27" on="0"/>
        <pt x="420" y="101" on="0"/>
        <pt x="382" y="202" on="0"/>
        <pt x="370" y="260" on="1"/>
        <pt x="167" y="260" on="1"/>
        <pt x="163" y="197" on="0"/>
        <pt x="160" y="66" on="0"/>
        <pt x="158" y="0" on="1"/>
        <pt x="70" y="0" on="1"/>
        <pt x="72" y="198" on="0"/>
        <pt x="115" y="461" on="0"/>
        <pt x="182" y="619" on="0"/>
        <pt x="265" y="685" on="0"/>
        <pt x="307" y="685" on="1"/>
        <pt x="333" y="685" on="0"/>
        <pt x="385" y="663" on="0"/>
        <pt x="405" y="643" on="1"/>
        <pt x="433" y="669" on="0"/>
        <pt x="508" y="685" on="0"/>
        <pt x="551" y="685" on="1"/>
        <pt x="590" y="685" on="0"/>
        <pt x="659" y="672" on="0"/>
        <pt x="713" y="633" on="0"/>
        <pt x="747" y="561" on="0"/>
        <pt x="752" y="501" on="1"/>
        <pt x="666" y="477" on="1"/>
        <pt x="665" y="532" on="0"/>
        <pt x="646" y="599" on="0"/>
        <pt x="615" y="634" on="0"/>
        <pt x="574" y="645" on="0"/>
        <pt x="551" y="645" on="1"/>
        <pt x="528" y="645" on="0"/>
        <pt x="486" y="633" on="0"/>
        <pt x="455" y="595" on="0"/>
        <pt x="437" y="523" on="0"/>
        <pt x="437" y="462" on="1"/>
        <pt x="437" y="421" on="0"/>
        <pt x="440" y="343" on="0"/>
        <pt x="445" y="305" on="1"/>
        <pt x="640" y="305" on="1"/>
        <pt x="640" y="260" on="1"/>
        <pt x="451" y="260" on="1"/>
        <pt x="458" y="210" on="0"/>
        <pt x="478" y="124" on="0"/>
        <pt x="504" y="61" on="0"/>
        <pt x="534" y="25" on="0"/>
        <pt x="551" y="25" on="1"/>
        <pt x="579" y="25" on="0"/>
        <pt x="624" y="116" on="0"/>
        <pt x="640" y="188" on="1"/>
      </contour>
      <contour>
        <pt x="306" y="645" on="1"/>
        <pt x="273" y="645" on="0"/>
        <pt x="227" y="593" on="0"/>
        <pt x="196" y="501" on="0"/>
        <pt x="177" y="377" on="0"/>
        <pt x="171" y="305" on="1"/>
        <pt x="362" y="305" on="1"/>
        <pt x="356" y="343" on="0"/>
        <pt x="349" y="421" on="0"/>
        <pt x="349" y="462" on="1"/>
        <pt x="349" y="516" on="0"/>
        <pt x="366" y="591" on="0"/>
        <pt x="383" y="616" on="1"/>
        <pt x="341" y="645" on="0"/>
      </contour>
    </TTGlyph>
    <TTGlyph name="Aacute" xMin="60" yMin="0" xMax="484" yMax="847">
      <component glyphName=".ttfautohint" x="60" y="0" flags="0x1000"/>
      <component glyphName="A" x="0" y="0" flags="0x1204"/>
      <component glyphName="acute.case" x="19" y="0" flags="0x1004"/>
    </TTGlyph>
    <TTGlyph name="Abreve" xMin="60" yMin="0" xMax="484" yMax="857">
      <component glyphName=".ttfautohint" x="60" y="0" flags="0x1000"/>
      <component glyphName="A" x="0" y="0" flags="0x1204"/>
      <component glyphName="breve.case" x="105" y="0" flags="0x1004"/>
    </TTGlyph>
    <TTGlyph name="Acircumflex" xMin="60" yMin="0" xMax="484" yMax="857">
      <component glyphName=".ttfautohint" x="60" y="0" flags="0x1000"/>
      <component glyphName="A" x="0" y="0" flags="0x1204"/>
      <component glyphName="circumflex.case" x="105" y="0" flags="0x1004"/>
    </TTGlyph>
    <TTGlyph name="Adieresis" xMin="60" yMin="0" xMax="484" yMax="857">
      <component glyphName=".ttfautohint" x="60" y="0" flags="0x1000"/>
      <component glyphName="A" x="0" y="0" flags="0x1204"/>
      <component glyphName="dieresis.case" x="102" y="0" flags="0x1004"/>
    </TTGlyph>
    <TTGlyph name="Agrave" xMin="60" yMin="0" xMax="484" yMax="847">
      <component glyphName=".ttfautohint" x="60" y="0" flags="0x1000"/>
      <component glyphName="A" x="0" y="0" flags="0x1204"/>
      <component glyphName="grave.case" x="133" y="0" flags="0x1004"/>
    </TTGlyph>
    <TTGlyph name="Amacron" xMin="60" yMin="0" xMax="484" yMax="821">
      <component glyphName=".ttfautohint" x="60" y="0" flags="0x1000"/>
      <component glyphName="A" x="0" y="0" flags="0x1204"/>
      <component glyphName="macron.case" x="105" y="0" flags="0x1004"/>
    </TTGlyph>
    <TTGlyph name="Aogonek" xMin="60" yMin="-235" xMax="577" yMax="685">
      <component glyphName=".ttfautohint" x="60" y="0" flags="0x1000"/>
      <component glyphName="A" x="0" y="0" flags="0x1204"/>
      <component glyphName="ogonek" x="278" y="0" flags="0x1004"/>
    </TTGlyph>
    <TTGlyph name="Aring" xMin="60" yMin="0" xMax="484" yMax="871">
      <component glyphName=".ttfautohint" x="60" y="0" flags="0x1000"/>
      <component glyphName="A" x="0" y="0" flags="0x1204"/>
      <component glyphName="ring.case" x="170" y="0" flags="0x1004"/>
    </TTGlyph>
    <TTGlyph name="Atilde" xMin="60" yMin="0" xMax="484" yMax="857">
      <component glyphName=".ttfautohint" x="60" y="0" flags="0x1000"/>
      <component glyphName="A" x="0" y="0" flags="0x1204"/>
      <component glyphName="tilde.case" x="89" y="0" flags="0x1004"/>
    </TTGlyph>
    <TTGlyph name="B" xMin="80" yMin="-15" xMax="457" yMax="685">
      <contour>
        <pt x="80" y="670" on="1"/>
        <pt x="155" y="685" on="0"/>
        <pt x="216" y="685" on="1"/>
        <pt x="332" y="685" on="0"/>
        <pt x="457" y="584" on="0"/>
        <pt x="457" y="488" on="1"/>
        <pt x="457" y="418" on="0"/>
        <pt x="374" y="301" on="0"/>
        <pt x="308" y="255" on="1"/>
        <pt x="363" y="226" on="0"/>
        <pt x="412" y="160" on="0"/>
        <pt x="412" y="118" on="1"/>
        <pt x="412" y="84" on="0"/>
        <pt x="381" y="34" on="0"/>
        <pt x="328" y="1" on="0"/>
        <pt x="257" y="-15" on="0"/>
        <pt x="216" y="-15" on="1"/>
        <pt x="158" y="-15" on="0"/>
        <pt x="97" y="0" on="1"/>
      </contour>
      <contour>
        <pt x="215" y="642" on="1"/>
        <pt x="192" y="642" on="0"/>
        <pt x="167" y="639" on="1"/>
        <pt x="158" y="218" on="1"/>
        <pt x="199" y="239" on="0"/>
        <pt x="275" y="295" on="0"/>
        <pt x="334" y="363" on="0"/>
        <pt x="369" y="443" on="0"/>
        <pt x="369" y="487" on="1"/>
        <pt x="369" y="562" on="0"/>
        <pt x="295" y="642" on="0"/>
      </contour>
      <contour>
        <pt x="324" y="119" on="1"/>
        <pt x="324" y="151" on="0"/>
        <pt x="299" y="207" on="0"/>
        <pt x="269" y="230" on="1"/>
        <pt x="216" y="198" on="0"/>
        <pt x="157" y="174" on="1"/>
        <pt x="154" y="34" on="1"/>
        <pt x="187" y="25" on="0"/>
        <pt x="218" y="25" on="1"/>
        <pt x="264" y="25" on="0"/>
        <pt x="324" y="71" on="0"/>
      </contour>
    </TTGlyph>
    <TTGlyph name="C" xMin="60" yMin="-15" xMax="463" yMax="685">
      <contour>
        <pt x="420" y="174" on="1"/>
        <pt x="406" y="132" on="0"/>
        <pt x="372" y="63" on="0"/>
        <pt x="331" y="13" on="0"/>
        <pt x="286" y="-15" on="0"/>
        <pt x="262" y="-15" on="1"/>
        <pt x="220" y="-15" on="0"/>
        <pt x="146" y="67" on="0"/>
        <pt x="92" y="201" on="0"/>
        <pt x="60" y="372" on="0"/>
        <pt x="60" y="462" on="1"/>
        <pt x="60" y="535" on="0"/>
        <pt x="92" y="623" on="0"/>
        <pt x="147" y="670" on="0"/>
        <pt x="221" y="685" on="0"/>
        <pt x="262" y="685" on="1"/>
        <pt x="301" y="685" on="0"/>
        <pt x="370" y="672" on="0"/>
        <pt x="424" y="633" on="0"/>
        <pt x="458" y="561" on="0"/>
        <pt x="463" y="501" on="1"/>
        <pt x="377" y="477" on="1"/>
        <pt x="376" y="532" on="0"/>
        <pt x="357" y="599" on="0"/>
        <pt x="326" y="634" on="0"/>
        <pt x="285" y="645" on="0"/>
        <pt x="262" y="645" on="1"/>
        <pt x="239" y="645" on="0"/>
        <pt x="197" y="633" on="0"/>
        <pt x="166" y="595" on="0"/>
        <pt x="148" y="523" on="0"/>
        <pt x="148" y="462" on="1"/>
        <pt x="148" y="379" on="0"/>
        <pt x="165" y="222" on="0"/>
        <pt x="196" y="99" on="0"/>
        <pt x="238" y="25" on="0"/>
        <pt x="262" y="25" on="1"/>
        <pt x="290" y="25" on="0"/>
        <pt x="335" y="116" on="0"/>
        <pt x="351" y="188" on="1"/>
      </contour>
    </TTGlyph>
    <TTGlyph name="Cacute" xMin="60" yMin="-15" xMax="463" yMax="847">
      <component glyphName=".ttfautohint" x="60" y="0" flags="0x1000"/>
      <component glyphName="C" x="0" y="0" flags="0x1204"/>
      <component glyphName="acute.case" x="-20" y="0" flags="0x1004"/>
    </TTGlyph>
    <TTGlyph name="Ccaron" xMin="60" yMin="-15" xMax="463" yMax="857">
      <component glyphName=".ttfautohint" x="60" y="0" flags="0x1000"/>
      <component glyphName="C" x="0" y="0" flags="0x1204"/>
      <component glyphName="caron.case" x="84" y="0" flags="0x1004"/>
    </TTGlyph>
    <TTGlyph name="Ccedilla" xMin="60" yMin="-235" xMax="463" yMax="685">
      <component glyphName=".ttfautohint" x="60" y="0" flags="0x1000"/>
      <component glyphName="C" x="0" y="0" flags="0x1204"/>
      <component glyphName="cedilla" x="57" y="0" flags="0x1004"/>
    </TTGlyph>
    <TTGlyph name="Ccircumflex" xMin="60" yMin="-15" xMax="463" yMax="857">
      <component glyphName=".ttfautohint" x="60" y="0" flags="0x1000"/>
      <component glyphName="C" x="0" y="0" flags="0x1204"/>
      <component glyphName="circumflex.case" x="84" y="0" flags="0x1004"/>
    </TTGlyph>
    <TTGlyph name="Cdotaccent" xMin="60" yMin="-15" xMax="463" yMax="860">
      <component glyphName=".ttfautohint" x="60" y="0" flags="0x1000"/>
      <component glyphName="C" x="0" y="0" flags="0x1204"/>
      <component glyphName="dotaccent.case" x="126" y="0" flags="0x1004"/>
    </TTGlyph>
    <TTGlyph name="D" xMin="80" yMin="0" xMax="467" yMax="685">
      <contour>
        <pt x="467" y="488" on="1"/>
        <pt x="467" y="432" on="0"/>
        <pt x="432" y="301" on="0"/>
        <pt x="356" y="170" on="0"/>
        <pt x="237" y="47" on="0"/>
        <pt x="153" y="0" on="1"/>
        <pt x="97" y="0" on="1"/>
        <pt x="80" y="670" on="1"/>
        <pt x="156" y="685" on="0"/>
        <pt x="220" y="685" on="1"/>
        <pt x="341" y="685" on="0"/>
        <pt x="467" y="584" on="0"/>
      </contour>
      <contour>
        <pt x="219" y="642" on="1"/>
        <pt x="207" y="642" on="0"/>
        <pt x="181" y="640" on="0"/>
        <pt x="167" y="638" on="1"/>
        <pt x="154" y="51" on="1"/>
        <pt x="214" y="89" on="0"/>
        <pt x="299" y="194" on="0"/>
        <pt x="353" y="312" on="0"/>
        <pt x="379" y="433" on="0"/>
        <pt x="379" y="487" on="1"/>
        <pt x="379" y="562" on="0"/>
        <pt x="302" y="642" on="0"/>
      </contour>
    </TTGlyph>
    <TTGlyph name="Dcaron" xMin="80" yMin="0" xMax="467" yMax="857">
      <component glyphName=".ttfautohint" x="80" y="0" flags="0x1000"/>
      <component glyphName="D" x="0" y="0" flags="0x1204"/>
      <component glyphName="caron.case" x="91" y="0" flags="0x1004"/>
    </TTGlyph>
    <TTGlyph name="Dcroat" xMin="27" yMin="0" xMax="467" yMax="685">
      <component glyphName=".ttfautohint" x="27" y="0" flags="0x1000"/>
      <component glyphName="D" x="0" y="0" flags="0x1204"/>
      <component glyphName="barra" x="27" y="-64" scalex="0.799987792969" scaley="1.0" flags="0x1004"/>
    </TTGlyph>
    <TTGlyph name="Delta" xMin="30" yMin="0" xMax="537" yMax="630">
      <contour>
        <pt x="30" y="50" on="1"/>
        <pt x="250" y="630" on="1"/>
        <pt x="306" y="630" on="1"/>
        <pt x="537" y="50" on="1"/>
        <pt x="537" y="0" on="1"/>
        <pt x="30" y="0" on="1"/>
      </contour>
      <contour>
        <pt x="287" y="520" on="1"/>
        <pt x="86" y="50" on="1"/>
        <pt x="444" y="50" on="1"/>
      </contour>
    </TTGlyph>
    <TTGlyph name="E" xMin="60" yMin="-15" xMax="463" yMax="685">
      <contour>
        <pt x="420" y="174" on="1"/>
        <pt x="406" y="132" on="0"/>
        <pt x="372" y="63" on="0"/>
        <pt x="331" y="13" on="0"/>
        <pt x="286" y="-15" on="0"/>
        <pt x="262" y="-15" on="1"/>
        <pt x="220" y="-15" on="0"/>
        <pt x="146" y="67" on="0"/>
        <pt x="92" y="201" on="0"/>
        <pt x="60" y="372" on="0"/>
        <pt x="60" y="462" on="1"/>
        <pt x="60" y="535" on="0"/>
        <pt x="92" y="623" on="0"/>
        <pt x="147" y="670" on="0"/>
        <pt x="221" y="685" on="0"/>
        <pt x="262" y="685" on="1"/>
        <pt x="301" y="685" on="0"/>
        <pt x="370" y="672" on="0"/>
        <pt x="424" y="633" on="0"/>
        <pt x="458" y="561" on="0"/>
        <pt x="463" y="501" on="1"/>
        <pt x="377" y="477" on="1"/>
        <pt x="376" y="532" on="0"/>
        <pt x="357" y="599" on="0"/>
        <pt x="326" y="634" on="0"/>
        <pt x="285" y="645" on="0"/>
        <pt x="262" y="645" on="1"/>
        <pt x="239" y="645" on="0"/>
        <pt x="197" y="633" on="0"/>
        <pt x="166" y="595" on="0"/>
        <pt x="148" y="523" on="0"/>
        <pt x="148" y="462" on="1"/>
        <pt x="148" y="421" on="0"/>
        <pt x="151" y="343" on="0"/>
        <pt x="156" y="305" on="1"/>
        <pt x="351" y="305" on="1"/>
        <pt x="351" y="260" on="1"/>
        <pt x="162" y="260" on="1"/>
        <pt x="169" y="210" on="0"/>
        <pt x="189" y="124" on="0"/>
        <pt x="215" y="61" on="0"/>
        <pt x="245" y="25" on="0"/>
        <pt x="262" y="25" on="1"/>
        <pt x="290" y="25" on="0"/>
        <pt x="335" y="116" on="0"/>
        <pt x="351" y="188" on="1"/>
      </contour>
    </TTGlyph>
    <TTGlyph name="Eacute" xMin="60" yMin="-15" xMax="463" yMax="847">
      <component glyphName=".ttfautohint" x="60" y="0" flags="0x1000"/>
      <component glyphName="E" x="0" y="0" flags="0x1204"/>
      <component glyphName="acute.case" x="0" y="0" flags="0x1004"/>
    </TTGlyph>
    <TTGlyph name="Ebreve" xMin="60" yMin="-15" xMax="463" yMax="857">
      <component glyphName=".ttfautohint" x="60" y="0" flags="0x1000"/>
      <component glyphName="E" x="0" y="0" flags="0x1204"/>
      <component glyphName="breve.case" x="84" y="0" flags="0x1004"/>
    </TTGlyph>
    <TTGlyph name="Ecaron" xMin="60" yMin="-15" xMax="463" yMax="857">
      <component glyphName=".ttfautohint" x="60" y="0" flags="0x1000"/>
      <component glyphName="E" x="0" y="0" flags="0x1204"/>
      <component glyphName="caron.case" x="84" y="0" flags="0x1004"/>
    </TTGlyph>
    <TTGlyph name="Ecircumflex" xMin="60" yMin="-15" xMax="463" yMax="857">
      <component glyphName=".ttfautohint" x="60" y="0" flags="0x1000"/>
      <component glyphName="E" x="0" y="0" flags="0x1204"/>
      <component glyphName="circumflex.case" x="84" y="0" flags="0x1004"/>
    </TTGlyph>
    <TTGlyph name="Edieresis" xMin="60" yMin="-15" xMax="463" yMax="857">
      <component glyphName=".ttfautohint" x="60" y="0" flags="0x1000"/>
      <component glyphName="E" x="0" y="0" flags="0x1204"/>
      <component glyphName="dieresis.case" x="82" y="0" flags="0x1004"/>
    </TTGlyph>
    <TTGlyph name="Edotaccent" xMin="60" yMin="-15" xMax="463" yMax="860">
      <component glyphName=".ttfautohint" x="60" y="0" flags="0x1000"/>
      <component glyphName="E" x="0" y="0" flags="0x1204"/>
      <component glyphName="dotaccent.case" x="126" y="0" flags="0x1004"/>
    </TTGlyph>
    <TTGlyph name="Egrave" xMin="60" yMin="-15" xMax="463" yMax="847">
      <component glyphName=".ttfautohint" x="60" y="0" flags="0x1000"/>
      <component glyphName="E" x="0" y="0" flags="0x1204"/>
      <component glyphName="grave.case" x="113" y="0" flags="0x1004"/>
    </TTGlyph>
    <TTGlyph name="Emacron" xMin="60" yMin="-15" xMax="463" yMax="821">
      <component glyphName=".ttfautohint" x="60" y="0" flags="0x1000"/>
      <component glyphName="E" x="0" y="0" flags="0x1204"/>
      <component glyphName="macron.case" x="84" y="0" flags="0x1004"/>
    </TTGlyph>
    <TTGlyph name="Eogonek" xMin="60" yMin="-235" xMax="463" yMax="685">
      <component glyphName=".ttfautohint" x="60" y="0" flags="0x1000"/>
      <component glyphName="E" x="0" y="0" flags="0x1204"/>
      <component glyphName="ogonek" x="141" y="0" flags="0x1004"/>
    </TTGlyph>
    <TTGlyph name="Eth" xMin="27" yMin="0" xMax="467" yMax="685">
      <component glyphName=".ttfautohint" x="27" y="0" flags="0x1000"/>
      <component glyphName="D" x="0" y="0" flags="0x1204"/>
      <component glyphName="barra" x="27" y="-64" scalex="0.799987792969" scaley="1.0" flags="0x1004"/>
    </TTGlyph>
    <TTGlyph name="Euro" xMin="45" yMin="-15" xMax="482" yMax="645">
      <contour>
        <pt x="97" y="402" on="1"/>
        <pt x="97" y="422" on="1"/>
        <pt x="97" y="495" on="0"/>
        <pt x="129" y="583" on="0"/>
        <pt x="184" y="630" on="0"/>
        <pt x="258" y="645" on="0"/>
        <pt x="299" y="645" on="1"/>
        <pt x="333" y="645" on="0"/>
        <pt x="397" y="627" on="0"/>
        <pt x="446" y="584" on="0"/>
        <pt x="479" y="511" on="0"/>
        <pt x="482" y="457" on="1"/>
        <pt x="407" y="440" on="1"/>
        <pt x="406" y="491" on="0"/>
        <pt x="386" y="555" on="0"/>
        <pt x="356" y="591" on="0"/>
        <pt x="318" y="605" on="0"/>
        <pt x="299" y="605" on="1"/>
        <pt x="276" y="605" on="0"/>
        <pt x="234" y="593" on="0"/>
        <pt x="203" y="555" on="0"/>
        <pt x="185" y="483" on="0"/>
        <pt x="185" y="422" on="1"/>
        <pt x="185" y="402" on="1"/>
        <pt x="348" y="402" on="1"/>
        <pt x="348" y="359" on="1"/>
        <pt x="186" y="359" on="1"/>
        <pt x="188" y="336" on="0"/>
        <pt x="191" y="292" on="0"/>
        <pt x="193" y="272" on="1"/>
        <pt x="348" y="272" on="1"/>
        <pt x="348" y="229" on="1"/>
        <pt x="199" y="229" on="1"/>
        <pt x="206" y="183" on="0"/>
        <pt x="226" y="108" on="0"/>
        <pt x="252" y="54" on="0"/>
        <pt x="282" y="25" on="0"/>
        <pt x="299" y="25" on="1"/>
        <pt x="327" y="25" on="0"/>
        <pt x="372" y="116" on="0"/>
        <pt x="388" y="188" on="1"/>
        <pt x="457" y="174" on="1"/>
        <pt x="443" y="132" on="0"/>
        <pt x="409" y="63" on="0"/>
        <pt x="368" y="13" on="0"/>
        <pt x="323" y="-15" on="0"/>
        <pt x="299" y="-15" on="1"/>
        <pt x="269" y="-15" on="0"/>
        <pt x="214" y="21" on="0"/>
        <pt x="168" y="85" on="0"/>
        <pt x="130" y="175" on="0"/>
        <pt x="118" y="229" on="1"/>
        <pt x="45" y="229" on="1"/>
        <pt x="45" y="272" on="1"/>
        <pt x="109" y="272" on="1"/>
        <pt x="106" y="293" on="0"/>
        <pt x="101" y="336" on="0"/>
        <pt x="99" y="359" on="1"/>
        <pt x="45" y="359" on="1"/>
        <pt x="45" y="402" on="1"/>
      </contour>
    </TTGlyph>
    <TTGlyph name="F" xMin="80" yMin="0" xMax="383" yMax="670">
      <contour>
        <pt x="97" y="670" on="1"/>
        <pt x="383" y="670" on="1"/>
        <pt x="383" y="599" on="1"/>
        <pt x="154" y="618" on="1"/>
        <pt x="161" y="305" on="1"/>
        <pt x="333" y="305" on="1"/>
        <pt x="333" y="260" on="1"/>
        <pt x="162" y="260" on="1"/>
        <pt x="168" y="0" on="1"/>
        <pt x="80" y="0" on="1"/>
      </contour>
    </TTGlyph>
    <TTGlyph name="G" xMin="60" yMin="-15" xMax="480" yMax="685">
      <contour>
        <pt x="463" y="263" on="1"/>
        <pt x="450" y="204" on="0"/>
        <pt x="412" y="103" on="0"/>
        <pt x="362" y="28" on="0"/>
        <pt x="304" y="-15" on="0"/>
        <pt x="272" y="-15" on="1"/>
        <pt x="228" y="-15" on="0"/>
        <pt x="150" y="67" on="0"/>
        <pt x="93" y="201" on="0"/>
        <pt x="60" y="372" on="0"/>
        <pt x="60" y="462" on="1"/>
        <pt x="60" y="535" on="0"/>
        <pt x="94" y="623" on="0"/>
        <pt x="152" y="670" on="0"/>
        <pt x="229" y="685" on="0"/>
        <pt x="272" y="685" on="1"/>
        <pt x="313" y="685" on="0"/>
        <pt x="388" y="671" on="0"/>
        <pt x="445" y="630" on="0"/>
        <pt x="479" y="556" on="0"/>
        <pt x="480" y="496" on="1"/>
        <pt x="393" y="473" on="1"/>
        <pt x="392" y="505" on="0"/>
        <pt x="385" y="567" on="0"/>
        <pt x="360" y="615" on="0"/>
        <pt x="313" y="645" on="0"/>
        <pt x="272" y="645" on="1"/>
        <pt x="247" y="645" on="0"/>
        <pt x="202" y="633" on="0"/>
        <pt x="168" y="595" on="0"/>
        <pt x="148" y="523" on="0"/>
        <pt x="148" y="462" on="1"/>
        <pt x="148" y="379" on="0"/>
        <pt x="167" y="222" on="0"/>
        <pt x="200" y="99" on="0"/>
        <pt x="245" y="25" on="0"/>
        <pt x="272" y="25" on="1"/>
        <pt x="288" y="25" on="0"/>
        <pt x="318" y="54" on="0"/>
        <pt x="344" y="105" on="0"/>
        <pt x="366" y="176" on="0"/>
        <pt x="374" y="218" on="1"/>
        <pt x="267" y="218" on="1"/>
        <pt x="267" y="263" on="1"/>
      </contour>
    </TTGlyph>
    <TTGlyph name="Gbreve" xMin="60" yMin="-15" xMax="480" yMax="857">
      <component glyphName=".ttfautohint" x="60" y="0" flags="0x1000"/>
      <component glyphName="G" x="0" y="0" flags="0x1204"/>
      <component glyphName="breve.case" x="93" y="0" flags="0x1004"/>
    </TTGlyph>
    <TTGlyph name="Gcircumflex" xMin="60" yMin="-15" xMax="480" yMax="857">
      <component glyphName=".ttfautohint" x="60" y="0" flags="0x1000"/>
      <component glyphName="G" x="0" y="0" flags="0x1204"/>
      <component glyphName="circumflex.case" x="93" y="0" flags="0x1004"/>
    </TTGlyph>
    <TTGlyph name="Gdotaccent" xMin="60" yMin="-15" xMax="480" yMax="860">
      <component glyphName=".ttfautohint" x="60" y="0" flags="0x1000"/>
      <component glyphName="G" x="0" y="0" flags="0x1204"/>
      <component glyphName="dotaccent.case" x="134" y="0" flags="0x1004"/>
    </TTGlyph>
    <TTGlyph name="H" xMin="80" yMin="0" xMax="489" yMax="670">
      <contour>
        <pt x="400" y="260" on="1"/>
        <pt x="168" y="260" on="1"/>
        <pt x="168" y="0" on="1"/>
        <pt x="80" y="0" on="1"/>
        <pt x="113" y="670" on="1"/>
        <pt x="168" y="670" on="1"/>
        <pt x="168" y="305" on="1"/>
        <pt x="400" y="305" on="1"/>
        <pt x="400" y="670" on="1"/>
        <pt x="455" y="670" on="1"/>
        <pt x="489" y="0" on="1"/>
        <pt x="401" y="0" on="1"/>
      </contour>
    </TTGlyph>
    <TTGlyph name="Hbar" xMin="32" yMin="0" xMax="536" yMax="670">
      <component glyphName=".ttfautohint" x="32" y="0" flags="0x1000"/>
      <component glyphName="H" x="0" y="0" flags="0x1204"/>
      <component glyphName="barra" x="32" y="85" scalex="1.5" scaley="1.0" flags="0x1004"/>
    </TTGlyph>
    <TTGlyph name="Hcircumflex" xMin="80" yMin="0" xMax="489" yMax="857">
      <component glyphName=".ttfautohint" x="80" y="0" flags="0x1000"/>
      <component glyphName="H" x="0" y="0" flags="0x1204"/>
      <component glyphName="circumflex.case" x="117" y="0" flags="0x1004"/>
    </TTGlyph>
    <TTGlyph name="I" xMin="80" yMin="0" xMax="168" yMax="670">
      <contour>
        <pt x="97" y="670" on="1"/>
        <pt x="153" y="670" on="1"/>
        <pt x="168" y="0" on="1"/>
        <pt x="80" y="0" on="1"/>
      </contour>
    </TTGlyph>
    <TTGlyph name="IJ" xMin="80" yMin="-15" xMax="563" yMax="670">
      <component glyphName=".ttfautohint" x="80" y="0" flags="0x1000"/>
      <component glyphName="I" x="0" y="0" flags="0x1004"/>
      <component glyphName="J" x="217" y="0" flags="0x1004"/>
    </TTGlyph>
    <TTGlyph name="Iacute" xMin="57" yMin="0" xMax="234" yMax="847">
      <component glyphName=".ttfautohint" x="57" y="0" flags="0x1000"/>
      <component glyphName="I" x="0" y="0" flags="0x1204"/>
      <component glyphName="acute.case" x="-127" y="0" flags="0x1004"/>
    </TTGlyph>
    <TTGlyph name="Icircumflex" xMin="8" yMin="0" xMax="242" yMax="857">
      <component glyphName=".ttfautohint" x="8" y="0" flags="0x1000"/>
      <component glyphName="I" x="0" y="0" flags="0x1204"/>
      <component glyphName="circumflex.case" x="-42" y="0" flags="0x1004"/>
    </TTGlyph>
    <TTGlyph name="Idieresis" xMin="6" yMin="0" xMax="245" yMax="857">
      <component glyphName=".ttfautohint" x="6" y="0" flags="0x1000"/>
      <component glyphName="I" x="0" y="0" flags="0x1204"/>
      <component glyphName="dieresis.case" x="-44" y="0" flags="0x1004"/>
    </TTGlyph>
    <TTGlyph name="Idotaccent" xMin="80" yMin="0" xMax="171" yMax="860">
      <component glyphName=".ttfautohint" x="80" y="0" flags="0x1000"/>
      <component glyphName="I" x="0" y="0" flags="0x1204"/>
      <component glyphName="dotaccent.case" x="0" y="0" flags="0x1004"/>
    </TTGlyph>
    <TTGlyph name="Igrave" xMin="37" yMin="0" xMax="214" yMax="847">
      <component glyphName=".ttfautohint" x="37" y="0" flags="0x1000"/>
      <component glyphName="I" x="0" y="0" flags="0x1204"/>
      <component glyphName="grave.case" x="-13" y="0" flags="0x1004"/>
    </TTGlyph>
    <TTGlyph name="Imacron" xMin="6" yMin="0" xMax="244" yMax="821">
      <component glyphName=".ttfautohint" x="6" y="0" flags="0x1000"/>
      <component glyphName="I" x="0" y="0" flags="0x1204"/>
      <component glyphName="macron.case" x="-42" y="0" flags="0x1004"/>
    </TTGlyph>
    <TTGlyph name="Iogonek" xMin="12" yMin="-235" xMax="261" yMax="670">
      <component glyphName=".ttfautohint" x="12" y="0" flags="0x1000"/>
      <component glyphName="I" x="0" y="0" flags="0x1204"/>
      <component glyphName="ogonek" x="-38" y="0" flags="0x1004"/>
    </TTGlyph>
    <TTGlyph name="Itilde" xMin="-8" yMin="0" xMax="258" yMax="857">
      <component glyphName=".ttfautohint" x="0" y="0" flags="0x1000"/>
      <component glyphName="I" x="0" y="0" flags="0x1204"/>
      <component glyphName="tilde.case" x="-58" y="0" flags="0x1004"/>
    </TTGlyph>
    <TTGlyph name="J" xMin="10" yMin="-15" xMax="346" yMax="670">
      <contour>
        <pt x="102" y="207" on="1"/>
        <pt x="98" y="193" on="0"/>
        <pt x="94" y="155" on="0"/>
        <pt x="94" y="138" on="1"/>
        <pt x="94" y="116" on="0"/>
        <pt x="103" y="75" on="0"/>
        <pt x="124" y="44" on="0"/>
        <pt x="157" y="25" on="0"/>
        <pt x="181" y="25" on="1"/>
        <pt x="203" y="25" on="0"/>
        <pt x="236" y="42" on="0"/>
        <pt x="258" y="84" on="0"/>
        <pt x="268" y="156" on="0"/>
        <pt x="268" y="210" on="1"/>
        <pt x="268" y="670" on="1"/>
        <pt x="323" y="670" on="1"/>
        <pt x="329" y="548" on="0"/>
        <pt x="337" y="379" on="0"/>
        <pt x="342" y="269" on="0"/>
        <pt x="345" y="208" on="0"/>
        <pt x="346" y="178" on="0"/>
        <pt x="346" y="170" on="0"/>
        <pt x="346" y="169" on="1"/>
        <pt x="346" y="116" on="0"/>
        <pt x="319" y="45" on="0"/>
        <pt x="274" y="3" on="0"/>
        <pt x="214" y="-15" on="0"/>
        <pt x="181" y="-15" on="1"/>
        <pt x="146" y="-15" on="0"/>
        <pt x="83" y="0" on="0"/>
        <pt x="37" y="39" on="0"/>
        <pt x="10" y="107" on="0"/>
        <pt x="10" y="160" on="1"/>
        <pt x="10" y="177" on="0"/>
        <pt x="13" y="213" on="0"/>
        <pt x="17" y="230" on="1"/>
      </contour>
    </TTGlyph>
    <TTGlyph name="Jcircumflex" xMin="10" yMin="-15" xMax="411" yMax="857">
      <component glyphName=".ttfautohint" x="10" y="0" flags="0x1000"/>
      <component glyphName="J" x="0" y="0" flags="0x1204"/>
      <component glyphName="circumflex.case" x="127" y="0" flags="0x1004"/>
    </TTGlyph>
    <TTGlyph name="K" xMin="80" yMin="0" xMax="441" yMax="670">
      <contour>
        <pt x="97" y="670" on="1"/>
        <pt x="153" y="670" on="1"/>
        <pt x="163" y="201" on="1"/>
        <pt x="248" y="310" on="0"/>
        <pt x="340" y="536" on="0"/>
        <pt x="352" y="670" on="1"/>
        <pt x="441" y="670" on="1"/>
        <pt x="428" y="543" on="0"/>
        <pt x="334" y="339" on="0"/>
        <pt x="271" y="259" on="1"/>
        <pt x="299" y="251" on="0"/>
        <pt x="348" y="206" on="0"/>
        <pt x="384" y="139" on="0"/>
        <pt x="404" y="51" on="0"/>
        <pt x="404" y="0" on="1"/>
        <pt x="323" y="0" on="1"/>
        <pt x="323" y="53" on="0"/>
        <pt x="316" y="130" on="0"/>
        <pt x="298" y="184" on="0"/>
        <pt x="267" y="217" on="0"/>
        <pt x="244" y="225" on="1"/>
        <pt x="224" y="202" on="0"/>
        <pt x="185" y="160" on="0"/>
        <pt x="165" y="142" on="1"/>
        <pt x="168" y="0" on="1"/>
        <pt x="80" y="0" on="1"/>
      </contour>
    </TTGlyph>
    <TTGlyph name="L" xMin="80" yMin="0" xMax="373" yMax="670">
      <contour>
        <pt x="97" y="670" on="1"/>
        <pt x="153" y="670" on="1"/>
        <pt x="167" y="51" on="1"/>
        <pt x="373" y="71" on="1"/>
        <pt x="373" y="0" on="1"/>
        <pt x="80" y="0" on="1"/>
      </contour>
    </TTGlyph>
    <TTGlyph name="Lacute" xMin="49" yMin="0" xMax="373" yMax="847">
      <component glyphName=".ttfautohint" x="49" y="0" flags="0x1000"/>
      <component glyphName="L" x="0" y="0" flags="0x1204"/>
      <component glyphName="acute.case" x="-135" y="0" flags="0x1004"/>
    </TTGlyph>
    <TTGlyph name="Lcaron" xMin="80" yMin="0" xMax="373" yMax="728">
      <component glyphName=".ttfautohint" x="80" y="0" flags="0x1000"/>
      <component glyphName="L" x="0" y="0" flags="0x1204"/>
      <component glyphName="quoteright" x="160" y="0" flags="0x1004"/>
    </TTGlyph>
    <TTGlyph name="Ldot" xMin="80" yMin="0" xMax="373" yMax="670">
      <component glyphName=".ttfautohint" x="80" y="0" flags="0x1000"/>
      <component glyphName="L" x="0" y="0" flags="0x1204"/>
      <component glyphName="periodcentered" x="198" y="0" flags="0x1004"/>
    </TTGlyph>
    <TTGlyph name="Lslash" xMin="7" yMin="0" xMax="373" yMax="670">
      <component glyphName=".ttfautohint" x="7" y="0" flags="0x1000"/>
      <component glyphName="L" x="0" y="0" flags="0x1204"/>
      <component glyphName="eslash" x="7" y="-99" flags="0x1004"/>
    </TTGlyph>
    <TTGlyph name="M" xMin="80" yMin="0" xMax="784" yMax="685">
      <contour>
        <pt x="629" y="645" on="1"/>
        <pt x="611" y="645" on="0"/>
        <pt x="570" y="580" on="0"/>
        <pt x="530" y="465" on="0"/>
        <pt x="493" y="309" on="0"/>
        <pt x="478" y="218" on="1"/>
        <pt x="479" y="207" on="0"/>
        <pt x="479" y="188" on="0"/>
        <pt x="479" y="177" on="1"/>
        <pt x="479" y="134" on="0"/>
        <pt x="476" y="46" on="0"/>
        <pt x="472" y="0" on="1"/>
        <pt x="385" y="0" on="1"/>
        <pt x="391" y="69" on="0"/>
        <pt x="396" y="200" on="0"/>
        <pt x="396" y="260" on="1"/>
        <pt x="396" y="343" on="0"/>
        <pt x="386" y="484" on="0"/>
        <pt x="368" y="587" on="0"/>
        <pt x="341" y="645" on="0"/>
        <pt x="324" y="645" on="1"/>
        <pt x="304" y="645" on="0"/>
        <pt x="260" y="569" on="0"/>
        <pt x="216" y="437" on="0"/>
        <pt x="178" y="258" on="0"/>
        <pt x="164" y="155" on="1"/>
        <pt x="168" y="0" on="1"/>
        <pt x="80" y="0" on="1"/>
        <pt x="97" y="670" on="1"/>
        <pt x="153" y="670" on="1"/>
        <pt x="160" y="363" on="1"/>
        <pt x="176" y="435" on="0"/>
        <pt x="213" y="553" on="0"/>
        <pt x="255" y="638" on="0"/>
        <pt x="303" y="685" on="0"/>
        <pt x="331" y="685" on="1"/>
        <pt x="356" y="685" on="0"/>
        <pt x="400" y="641" on="0"/>
        <pt x="435" y="561" on="0"/>
        <pt x="460" y="448" on="0"/>
        <pt x="468" y="380" on="1"/>
        <pt x="485" y="448" on="0"/>
        <pt x="521" y="561" on="0"/>
        <pt x="562" y="641" on="0"/>
        <pt x="609" y="685" on="0"/>
        <pt x="636" y="685" on="1"/>
        <pt x="670" y="685" on="0"/>
        <pt x="725" y="607" on="0"/>
        <pt x="763" y="471" on="0"/>
        <pt x="784" y="285" on="0"/>
        <pt x="784" y="177" on="1"/>
        <pt x="784" y="134" on="0"/>
        <pt x="781" y="46" on="0"/>
        <pt x="777" y="0" on="1"/>
        <pt x="690" y="0" on="1"/>
        <pt x="696" y="69" on="0"/>
        <pt x="701" y="200" on="0"/>
        <pt x="701" y="260" on="1"/>
        <pt x="701" y="343" on="0"/>
        <pt x="691" y="484" on="0"/>
        <pt x="673" y="587" on="0"/>
        <pt x="646" y="645" on="0"/>
      </contour>
    </TTGlyph>
    <TTGlyph name="M.alt" xMin="60" yMin="0" xMax="757" yMax="685">
      <contour>
        <pt x="545" y="645" on="1"/>
        <pt x="518" y="645" on="0"/>
        <pt x="483" y="540" on="0"/>
        <pt x="461" y="363" on="0"/>
        <pt x="452" y="129" on="0"/>
        <pt x="452" y="0" on="1"/>
        <pt x="365" y="0" on="1"/>
        <pt x="365" y="129" on="0"/>
        <pt x="356" y="363" on="0"/>
        <pt x="334" y="540" on="0"/>
        <pt x="299" y="645" on="0"/>
        <pt x="272" y="645" on="1"/>
        <pt x="245" y="645" on="0"/>
        <pt x="200" y="540" on="0"/>
        <pt x="167" y="363" on="0"/>
        <pt x="148" y="129" on="0"/>
        <pt x="148" y="0" on="1"/>
        <pt x="60" y="0" on="1"/>
        <pt x="61" y="138" on="0"/>
        <pt x="94" y="387" on="0"/>
        <pt x="151" y="575" on="0"/>
        <pt x="228" y="685" on="0"/>
        <pt x="272" y="685" on="1"/>
        <pt x="300" y="685" on="0"/>
        <pt x="344" y="638" on="0"/>
        <pt x="377" y="553" on="0"/>
        <pt x="400" y="434" on="0"/>
        <pt x="408" y="362" on="1"/>
        <pt x="415" y="434" on="0"/>
        <pt x="439" y="553" on="0"/>
        <pt x="473" y="638" on="0"/>
        <pt x="517" y="685" on="0"/>
        <pt x="545" y="685" on="1"/>
        <pt x="589" y="685" on="0"/>
        <pt x="666" y="575" on="0"/>
        <pt x="723" y="387" on="0"/>
        <pt x="756" y="138" on="0"/>
        <pt x="757" y="0" on="1"/>
        <pt x="669" y="0" on="1"/>
        <pt x="669" y="129" on="0"/>
        <pt x="650" y="362" on="0"/>
        <pt x="617" y="540" on="0"/>
        <pt x="572" y="645" on="0"/>
      </contour>
    </TTGlyph>
    <TTGlyph name="N" xMin="80" yMin="0" xMax="511" yMax="685">
      <contour>
        <pt x="97" y="670" on="1"/>
        <pt x="153" y="670" on="1"/>
        <pt x="160" y="345" on="1"/>
        <pt x="180" y="420" on="0"/>
        <pt x="221" y="545" on="0"/>
        <pt x="267" y="635" on="0"/>
        <pt x="319" y="685" on="0"/>
        <pt x="351" y="685" on="1"/>
        <pt x="388" y="685" on="0"/>
        <pt x="447" y="607" on="0"/>
        <pt x="489" y="471" on="0"/>
        <pt x="511" y="285" on="0"/>
        <pt x="511" y="177" on="1"/>
        <pt x="511" y="134" on="0"/>
        <pt x="508" y="46" on="0"/>
        <pt x="504" y="0" on="1"/>
        <pt x="417" y="0" on="1"/>
        <pt x="423" y="69" on="0"/>
        <pt x="428" y="200" on="0"/>
        <pt x="428" y="260" on="1"/>
        <pt x="428" y="343" on="0"/>
        <pt x="418" y="484" on="0"/>
        <pt x="397" y="587" on="0"/>
        <pt x="367" y="645" on="0"/>
        <pt x="348" y="645" on="1"/>
        <pt x="325" y="645" on="0"/>
        <pt x="274" y="567" on="0"/>
        <pt x="224" y="431" on="0"/>
        <pt x="180" y="248" on="0"/>
        <pt x="165" y="143" on="1"/>
        <pt x="168" y="0" on="1"/>
        <pt x="80" y="0" on="1"/>
      </contour>
    </TTGlyph>
    <TTGlyph name="Nacute" xMin="80" yMin="0" xMax="511" yMax="847">
      <component glyphName=".ttfautohint" x="80" y="0" flags="0x1000"/>
      <component glyphName="N" x="0" y="0" flags="0x1204"/>
      <component glyphName="acute.case" x="20" y="0" flags="0x1004"/>
    </TTGlyph>
    <TTGlyph name="Ncaron" xMin="80" yMin="0" xMax="511" yMax="857">
      <component glyphName=".ttfautohint" x="80" y="0" flags="0x1000"/>
      <component glyphName="N" x="0" y="0" flags="0x1204"/>
      <component glyphName="caron.case" x="125" y="0" flags="0x1004"/>
    </TTGlyph>
    <TTGlyph name="Ntilde" xMin="80" yMin="0" xMax="511" yMax="857">
      <component glyphName=".ttfautohint" x="80" y="0" flags="0x1000"/>
      <component glyphName="N" x="0" y="0" flags="0x1204"/>
      <component glyphName="tilde.case" x="109" y="0" flags="0x1004"/>
    </TTGlyph>
    <TTGlyph name="O" xMin="60" yMin="-15" xMax="484" yMax="685">
      <contour>
        <pt x="272" y="25" on="1"/>
        <pt x="299" y="25" on="0"/>
        <pt x="345" y="99" on="0"/>
        <pt x="378" y="222" on="0"/>
        <pt x="397" y="379" on="0"/>
        <pt x="397" y="462" on="1"/>
        <pt x="397" y="523" on="0"/>
        <pt x="377" y="595" on="0"/>
        <pt x="343" y="633" on="0"/>
        <pt x="298" y="645" on="0"/>
        <pt x="272" y="645" on="1"/>
        <pt x="247" y="645" on="0"/>
        <pt x="202" y="633" on="0"/>
        <pt x="168" y="595" on="0"/>
        <pt x="148" y="523" on="0"/>
        <pt x="148" y="462" on="1"/>
        <pt x="148" y="379" on="0"/>
        <pt x="167" y="222" on="0"/>
        <pt x="200" y="99" on="0"/>
        <pt x="245" y="25" on="0"/>
      </contour>
      <contour>
        <pt x="272" y="-15" on="1"/>
        <pt x="228" y="-15" on="0"/>
        <pt x="150" y="67" on="0"/>
        <pt x="93" y="201" on="0"/>
        <pt x="60" y="372" on="0"/>
        <pt x="60" y="462" on="1"/>
        <pt x="60" y="535" on="0"/>
        <pt x="94" y="623" on="0"/>
        <pt x="152" y="670" on="0"/>
        <pt x="229" y="685" on="0"/>
        <pt x="272" y="685" on="1"/>
        <pt x="316" y="685" on="0"/>
        <pt x="393" y="670" on="0"/>
        <pt x="451" y="623" on="0"/>
        <pt x="484" y="535" on="0"/>
        <pt x="484" y="462" on="1"/>
        <pt x="484" y="372" on="0"/>
        <pt x="451" y="201" on="0"/>
        <pt x="394" y="67" on="0"/>
        <pt x="317" y="-15" on="0"/>
      </contour>
    </TTGlyph>
    <TTGlyph name="OE" xMin="60" yMin="-15" xMax="790" yMax="685">
      <contour>
        <pt x="747" y="174" on="1"/>
        <pt x="733" y="132" on="0"/>
        <pt x="699" y="63" on="0"/>
        <pt x="658" y="13" on="0"/>
        <pt x="613" y="-15" on="0"/>
        <pt x="589" y="-15" on="1"/>
        <pt x="564" y="-15" on="0"/>
        <pt x="519" y="20" on="0"/>
        <pt x="480" y="80" on="0"/>
        <pt x="448" y="158" on="0"/>
        <pt x="435" y="202" on="1"/>
        <pt x="421" y="158" on="0"/>
        <pt x="387" y="80" on="0"/>
        <pt x="346" y="20" on="0"/>
        <pt x="298" y="-15" on="0"/>
        <pt x="272" y="-15" on="1"/>
        <pt x="228" y="-15" on="0"/>
        <pt x="150" y="67" on="0"/>
        <pt x="93" y="201" on="0"/>
        <pt x="60" y="372" on="0"/>
        <pt x="60" y="462" on="1"/>
        <pt x="60" y="535" on="0"/>
        <pt x="94" y="623" on="0"/>
        <pt x="152" y="670" on="0"/>
        <pt x="229" y="685" on="0"/>
        <pt x="272" y="685" on="1"/>
        <pt x="324" y="685" on="0"/>
        <pt x="407" y="663" on="0"/>
        <pt x="434" y="627" on="1"/>
        <pt x="460" y="663" on="0"/>
        <pt x="540" y="685" on="0"/>
        <pt x="589" y="685" on="1"/>
        <pt x="628" y="685" on="0"/>
        <pt x="697" y="672" on="0"/>
        <pt x="751" y="633" on="0"/>
        <pt x="785" y="561" on="0"/>
        <pt x="790" y="501" on="1"/>
        <pt x="704" y="477" on="1"/>
        <pt x="703" y="532" on="0"/>
        <pt x="684" y="599" on="0"/>
        <pt x="653" y="634" on="0"/>
        <pt x="612" y="645" on="0"/>
        <pt x="589" y="645" on="1"/>
        <pt x="566" y="645" on="0"/>
        <pt x="524" y="633" on="0"/>
        <pt x="493" y="595" on="0"/>
        <pt x="475" y="523" on="0"/>
        <pt x="475" y="462" on="1"/>
        <pt x="475" y="421" on="0"/>
        <pt x="478" y="343" on="0"/>
        <pt x="483" y="305" on="1"/>
        <pt x="678" y="305" on="1"/>
        <pt x="678" y="260" on="1"/>
        <pt x="489" y="260" on="1"/>
        <pt x="496" y="210" on="0"/>
        <pt x="516" y="124" on="0"/>
        <pt x="542" y="61" on="0"/>
        <pt x="572" y="25" on="0"/>
        <pt x="589" y="25" on="1"/>
        <pt x="617" y="25" on="0"/>
        <pt x="662" y="116" on="0"/>
        <pt x="678" y="188" on="1"/>
      </contour>
      <contour>
        <pt x="272" y="25" on="1"/>
        <pt x="298" y="25" on="0"/>
        <pt x="344" y="96" on="0"/>
        <pt x="378" y="217" on="0"/>
        <pt x="397" y="375" on="0"/>
        <pt x="397" y="462" on="1"/>
        <pt x="397" y="523" on="0"/>
        <pt x="377" y="595" on="0"/>
        <pt x="343" y="633" on="0"/>
        <pt x="298" y="645" on="0"/>
        <pt x="272" y="645" on="1"/>
        <pt x="247" y="645" on="0"/>
        <pt x="202" y="633" on="0"/>
        <pt x="168" y="595" on="0"/>
        <pt x="148" y="523" on="0"/>
        <pt x="148" y="462" on="1"/>
        <pt x="148" y="379" on="0"/>
        <pt x="167" y="222" on="0"/>
        <pt x="200" y="99" on="0"/>
        <pt x="245" y="25" on="0"/>
      </contour>
    </TTGlyph>
    <TTGlyph name="Oacute" xMin="60" yMin="-15" xMax="484" yMax="847">
      <component glyphName=".ttfautohint" x="60" y="0" flags="0x1000"/>
      <component glyphName="O" x="0" y="0" flags="0x1204"/>
      <component glyphName="acute.case" x="19" y="0" flags="0x1004"/>
    </TTGlyph>
    <TTGlyph name="Obreve" xMin="60" yMin="-15" xMax="484" yMax="857">
      <component glyphName=".ttfautohint" x="60" y="0" flags="0x1000"/>
      <component glyphName="O" x="0" y="0" flags="0x1204"/>
      <component glyphName="breve.case" x="105" y="0" flags="0x1004"/>
    </TTGlyph>
    <TTGlyph name="Ocircumflex" xMin="60" yMin="-15" xMax="484" yMax="857">
      <component glyphName=".ttfautohint" x="60" y="0" flags="0x1000"/>
      <component glyphName="O" x="0" y="0" flags="0x1204"/>
      <component glyphName="circumflex.case" x="105" y="0" flags="0x1004"/>
    </TTGlyph>
    <TTGlyph name="Odieresis" xMin="60" yMin="-15" xMax="484" yMax="857">
      <component glyphName=".ttfautohint" x="60" y="0" flags="0x1000"/>
      <component glyphName="O" x="0" y="0" flags="0x1204"/>
      <component glyphName="dieresis.case" x="102" y="0" flags="0x1004"/>
    </TTGlyph>
    <TTGlyph name="Ograve" xMin="60" yMin="-15" xMax="484" yMax="847">
      <component glyphName=".ttfautohint" x="60" y="0" flags="0x1000"/>
      <component glyphName="O" x="0" y="0" flags="0x1204"/>
      <component glyphName="grave.case" x="133" y="0" flags="0x1004"/>
    </TTGlyph>
    <TTGlyph name="Ohungarumlaut" xMin="60" yMin="-15" xMax="484" yMax="857">
      <component glyphName=".ttfautohint" x="60" y="0" flags="0x1000"/>
      <component glyphName="O" x="0" y="0" flags="0x1204"/>
      <component glyphName="hungarumlaut.case" x="123" y="0" flags="0x1004"/>
    </TTGlyph>
    <TTGlyph name="Omacron" xMin="60" yMin="-15" xMax="484" yMax="821">
      <component glyphName=".ttfautohint" x="60" y="0" flags="0x1000"/>
      <component glyphName="O" x="0" y="0" flags="0x1204"/>
      <component glyphName="macron.case" x="105" y="0" flags="0x1004"/>
    </TTGlyph>
    <TTGlyph name="Omega" xMin="40" yMin="0" xMax="504" yMax="645">
      <contour>
        <pt x="504" y="0" on="1"/>
        <pt x="323" y="0" on="1"/>
        <pt x="323" y="96" on="1"/>
        <pt x="341" y="120" on="0"/>
        <pt x="371" y="196" on="0"/>
        <pt x="394" y="283" on="0"/>
        <pt x="407" y="371" on="0"/>
        <pt x="407" y="406" on="1"/>
        <pt x="407" y="499" on="0"/>
        <pt x="339" y="605" on="0"/>
        <pt x="272" y="605" on="1"/>
        <pt x="206" y="605" on="0"/>
        <pt x="138" y="499" on="0"/>
        <pt x="138" y="406" on="1"/>
        <pt x="138" y="371" on="0"/>
        <pt x="151" y="284" on="0"/>
        <pt x="173" y="198" on="0"/>
        <pt x="203" y="123" on="0"/>
        <pt x="221" y="99" on="1"/>
        <pt x="221" y="0" on="1"/>
        <pt x="40" y="0" on="1"/>
        <pt x="40" y="50" on="1"/>
        <pt x="174" y="50" on="1"/>
        <pt x="174" y="103" on="1"/>
        <pt x="146" y="131" on="0"/>
        <pt x="101" y="204" on="0"/>
        <pt x="68" y="286" on="0"/>
        <pt x="50" y="376" on="0"/>
        <pt x="50" y="420" on="1"/>
        <pt x="50" y="477" on="0"/>
        <pt x="87" y="562" on="0"/>
        <pt x="149" y="617" on="0"/>
        <pt x="229" y="645" on="0"/>
        <pt x="272" y="645" on="1"/>
        <pt x="316" y="645" on="0"/>
        <pt x="396" y="617" on="0"/>
        <pt x="458" y="562" on="0"/>
        <pt x="494" y="477" on="0"/>
        <pt x="494" y="420" on="1"/>
        <pt x="494" y="375" on="0"/>
        <pt x="476" y="285" on="0"/>
        <pt x="443" y="202" on="0"/>
        <pt x="397" y="129" on="0"/>
        <pt x="370" y="102" on="1"/>
        <pt x="370" y="50" on="1"/>
        <pt x="504" y="50" on="1"/>
      </contour>
    </TTGlyph>
    <TTGlyph name="Oslash" xMin="60" yMin="-73" xMax="484" yMax="743">
      <component glyphName=".ttfautohint" x="60" y="0" flags="0x1000"/>
      <component glyphName="O" x="0" y="0" flags="0x1204"/>
      <component glyphName="slash" x="152" y="0" flags="0x1004"/>
    </TTGlyph>
    <TTGlyph name="Otilde" xMin="60" yMin="-15" xMax="484" yMax="857">
      <component glyphName=".ttfautohint" x="60" y="0" flags="0x1000"/>
      <component glyphName="O" x="0" y="0" flags="0x1204"/>
      <component glyphName="tilde.case" x="89" y="0" flags="0x1004"/>
    </TTGlyph>
    <TTGlyph name="P" xMin="80" yMin="0" xMax="442" yMax="685">
      <contour>
        <pt x="80" y="670" on="1"/>
        <pt x="146" y="685" on="0"/>
        <pt x="201" y="685" on="1"/>
        <pt x="317" y="685" on="0"/>
        <pt x="442" y="584" on="0"/>
        <pt x="442" y="488" on="1"/>
        <pt x="442" y="433" on="0"/>
        <pt x="396" y="336" on="0"/>
        <pt x="318" y="252" on="0"/>
        <pt x="214" y="183" on="0"/>
        <pt x="156" y="156" on="1"/>
        <pt x="153" y="0" on="1"/>
        <pt x="97" y="0" on="1"/>
      </contour>
      <contour>
        <pt x="200" y="642" on="1"/>
        <pt x="192" y="642" on="0"/>
        <pt x="176" y="641" on="0"/>
        <pt x="167" y="640" on="1"/>
        <pt x="157" y="202" on="1"/>
        <pt x="196" y="225" on="0"/>
        <pt x="268" y="286" on="0"/>
        <pt x="322" y="358" on="0"/>
        <pt x="354" y="441" on="0"/>
        <pt x="354" y="487" on="1"/>
        <pt x="354" y="562" on="0"/>
        <pt x="280" y="642" on="0"/>
      </contour>
    </TTGlyph>
    <TTGlyph name="Q" xMin="60" yMin="-124" xMax="493" yMax="685">
      <contour>
        <pt x="417" y="-124" on="1"/>
        <pt x="401" y="-124" on="0"/>
        <pt x="359" y="-102" on="0"/>
        <pt x="319" y="-77" on="0"/>
        <pt x="283" y="-55" on="0"/>
        <pt x="273" y="-55" on="1"/>
        <pt x="268" y="-55" on="0"/>
        <pt x="255" y="-58" on="0"/>
        <pt x="243" y="-70" on="0"/>
        <pt x="235" y="-94" on="0"/>
        <pt x="235" y="-114" on="1"/>
        <pt x="197" y="-108" on="1"/>
        <pt x="202" y="-64" on="0"/>
        <pt x="223" y="-18" on="0"/>
        <pt x="239" y="-8" on="1"/>
        <pt x="201" y="6" on="0"/>
        <pt x="135" y="96" on="0"/>
        <pt x="87" y="224" on="0"/>
        <pt x="60" y="381" on="0"/>
        <pt x="60" y="462" on="1"/>
        <pt x="60" y="535" on="0"/>
        <pt x="94" y="623" on="0"/>
        <pt x="152" y="670" on="0"/>
        <pt x="229" y="685" on="0"/>
        <pt x="272" y="685" on="1"/>
        <pt x="316" y="685" on="0"/>
        <pt x="393" y="670" on="0"/>
        <pt x="451" y="623" on="0"/>
        <pt x="484" y="535" on="0"/>
        <pt x="484" y="462" on="1"/>
        <pt x="484" y="381" on="0"/>
        <pt x="457" y="226" on="0"/>
        <pt x="410" y="97" on="0"/>
        <pt x="345" y="7" on="0"/>
        <pt x="307" y="-8" on="1"/>
        <pt x="321" y="-14" on="0"/>
        <pt x="348" y="-31" on="0"/>
        <pt x="373" y="-48" on="0"/>
        <pt x="397" y="-59" on="0"/>
        <pt x="407" y="-59" on="1"/>
        <pt x="412" y="-59" on="0"/>
        <pt x="422" y="-56" on="0"/>
        <pt x="430" y="-44" on="0"/>
        <pt x="435" y="-20" on="0"/>
        <pt x="435" y="0" on="1"/>
        <pt x="493" y="-16" on="1"/>
        <pt x="490" y="-48" on="0"/>
        <pt x="475" y="-90" on="0"/>
        <pt x="456" y="-114" on="0"/>
        <pt x="431" y="-124" on="0"/>
      </contour>
      <contour>
        <pt x="272" y="25" on="1"/>
        <pt x="299" y="25" on="0"/>
        <pt x="345" y="99" on="0"/>
        <pt x="378" y="222" on="0"/>
        <pt x="397" y="379" on="0"/>
        <pt x="397" y="462" on="1"/>
        <pt x="397" y="523" on="0"/>
        <pt x="377" y="595" on="0"/>
        <pt x="343" y="633" on="0"/>
        <pt x="298" y="645" on="0"/>
        <pt x="272" y="645" on="1"/>
        <pt x="247" y="645" on="0"/>
        <pt x="202" y="633" on="0"/>
        <pt x="168" y="595" on="0"/>
        <pt x="148" y="523" on="0"/>
        <pt x="148" y="462" on="1"/>
        <pt x="148" y="379" on="0"/>
        <pt x="167" y="222" on="0"/>
        <pt x="200" y="99" on="0"/>
        <pt x="245" y="25" on="0"/>
      </contour>
    </TTGlyph>
    <TTGlyph name="R" xMin="80" yMin="0" xMax="442" yMax="685">
      <contour>
        <pt x="80" y="670" on="1"/>
        <pt x="146" y="685" on="0"/>
        <pt x="201" y="685" on="1"/>
        <pt x="317" y="685" on="0"/>
        <pt x="442" y="584" on="0"/>
        <pt x="442" y="488" on="1"/>
        <pt x="442" y="417" on="0"/>
        <pt x="356" y="293" on="0"/>
        <pt x="287" y="244" on="1"/>
        <pt x="338" y="223" on="0"/>
        <pt x="404" y="96" on="0"/>
        <pt x="404" y="0" on="1"/>
        <pt x="323" y="0" on="1"/>
        <pt x="323" y="53" on="0"/>
        <pt x="316" y="128" on="0"/>
        <pt x="298" y="178" on="0"/>
        <pt x="267" y="207" on="0"/>
        <pt x="243" y="215" on="1"/>
        <pt x="223" y="203" on="0"/>
        <pt x="180" y="180" on="0"/>
        <pt x="157" y="170" on="1"/>
        <pt x="153" y="0" on="1"/>
        <pt x="97" y="0" on="1"/>
      </contour>
      <contour>
        <pt x="200" y="642" on="1"/>
        <pt x="192" y="642" on="0"/>
        <pt x="176" y="641" on="0"/>
        <pt x="167" y="640" on="1"/>
        <pt x="158" y="216" on="1"/>
        <pt x="197" y="238" on="0"/>
        <pt x="268" y="296" on="0"/>
        <pt x="322" y="366" on="0"/>
        <pt x="354" y="445" on="0"/>
        <pt x="354" y="487" on="1"/>
        <pt x="354" y="562" on="0"/>
        <pt x="280" y="642" on="0"/>
      </contour>
    </TTGlyph>
    <TTGlyph name="Racute" xMin="80" yMin="0" xMax="442" yMax="847">
      <component glyphName=".ttfautohint" x="80" y="0" flags="0x1000"/>
      <component glyphName="R" x="0" y="0" flags="0x1204"/>
      <component glyphName="acute.case" x="-25" y="0" flags="0x1004"/>
    </TTGlyph>
    <TTGlyph name="Rcaron" xMin="80" yMin="0" xMax="442" yMax="857">
      <component glyphName=".ttfautohint" x="80" y="0" flags="0x1000"/>
      <component glyphName="R" x="0" y="0" flags="0x1204"/>
      <component glyphName="caron.case" x="79" y="0" flags="0x1004"/>
    </TTGlyph>
    <TTGlyph name="S" xMin="44" yMin="-15" xMax="458" yMax="685">
      <contour>
        <pt x="156" y="476" on="1"/>
        <pt x="156" y="442" on="0"/>
        <pt x="201" y="396" on="0"/>
        <pt x="268" y="356" on="0"/>
        <pt x="346" y="318" on="0"/>
        <pt x="413" y="268" on="0"/>
        <pt x="458" y="201" on="0"/>
        <pt x="458" y="152" on="1"/>
        <pt x="458" y="69" on="0"/>
        <pt x="361" y="-15" on="0"/>
        <pt x="259" y="-15" on="1"/>
        <pt x="218" y="-15" on="0"/>
        <pt x="142" y="-2" on="0"/>
        <pt x="84" y="40" on="0"/>
        <pt x="47" y="118" on="0"/>
        <pt x="44" y="182" on="1"/>
        <pt x="66" y="184" on="0"/>
        <pt x="112" y="188" on="0"/>
        <pt x="132" y="190" on="1"/>
        <pt x="134" y="134" on="0"/>
        <pt x="156" y="68" on="0"/>
        <pt x="190" y="34" on="0"/>
        <pt x="235" y="25" on="0"/>
        <pt x="259" y="25" on="1"/>
        <pt x="321" y="25" on="0"/>
        <pt x="375" y="94" on="0"/>
        <pt x="375" y="146" on="1"/>
        <pt x="375" y="184" on="0"/>
        <pt x="331" y="237" on="0"/>
        <pt x="265" y="280" on="0"/>
        <pt x="189" y="318" on="0"/>
        <pt x="123" y="364" on="0"/>
        <pt x="79" y="424" on="0"/>
        <pt x="79" y="467" on="1"/>
        <pt x="79" y="504" on="0"/>
        <pt x="107" y="581" on="0"/>
        <pt x="155" y="644" on="0"/>
        <pt x="217" y="685" on="0"/>
        <pt x="251" y="685" on="1"/>
        <pt x="275" y="685" on="0"/>
        <pt x="322" y="658" on="0"/>
        <pt x="364" y="610" on="0"/>
        <pt x="399" y="543" on="0"/>
        <pt x="411" y="503" on="1"/>
        <pt x="326" y="478" on="1"/>
        <pt x="325" y="518" on="0"/>
        <pt x="311" y="580" on="0"/>
        <pt x="290" y="623" on="0"/>
        <pt x="264" y="645" on="0"/>
        <pt x="251" y="645" on="1"/>
        <pt x="231" y="645" on="0"/>
        <pt x="197" y="613" on="0"/>
        <pt x="171" y="563" on="0"/>
        <pt x="156" y="503" on="0"/>
      </contour>
    </TTGlyph>
    <TTGlyph name="Sacute" xMin="44" yMin="-15" xMax="458" yMax="847">
      <component glyphName=".ttfautohint" x="44" y="0" flags="0x1000"/>
      <component glyphName="S" x="0" y="0" flags="0x1204"/>
      <component glyphName="acute.case" x="-20" y="0" flags="0x1004"/>
    </TTGlyph>
    <TTGlyph name="Scaron" xMin="44" yMin="-15" xMax="458" yMax="857">
      <component glyphName=".ttfautohint" x="44" y="0" flags="0x1000"/>
      <component glyphName="S" x="0" y="0" flags="0x1204"/>
      <component glyphName="caron.case" x="84" y="0" flags="0x1004"/>
    </TTGlyph>
    <TTGlyph name="Scedilla" xMin="44" yMin="-235" xMax="458" yMax="685">
      <component glyphName=".ttfautohint" x="44" y="0" flags="0x1000"/>
      <component glyphName="S" x="0" y="0" flags="0x1204"/>
      <component glyphName="cedilla" x="88" y="0" flags="0x1004"/>
    </TTGlyph>
    <TTGlyph name="Scircumflex" xMin="44" yMin="-15" xMax="458" yMax="857">
      <component glyphName=".ttfautohint" x="44" y="0" flags="0x1000"/>
      <component glyphName="S" x="0" y="0" flags="0x1204"/>
      <component glyphName="circumflex.case" x="84" y="0" flags="0x1004"/>
    </TTGlyph>
    <TTGlyph name="T" xMin="10" yMin="0" xMax="423" yMax="670">
      <contour>
        <pt x="187" y="616" on="1"/>
        <pt x="10" y="622" on="1"/>
        <pt x="10" y="670" on="1"/>
        <pt x="423" y="670" on="1"/>
        <pt x="423" y="609" on="1"/>
        <pt x="246" y="614" on="1"/>
        <pt x="260" y="0" on="1"/>
        <pt x="172" y="0" on="1"/>
      </contour>
    </TTGlyph>
    <TTGlyph name="Tbar" xMin="10" yMin="0" xMax="423" yMax="670">
      <component glyphName=".ttfautohint" x="10" y="0" flags="0x1000"/>
      <component glyphName="T" x="0" y="0" flags="0x1204"/>
      <component glyphName="barra" x="49" y="0" flags="0x1004"/>
    </TTGlyph>
    <TTGlyph name="Tcaron" xMin="10" yMin="0" xMax="423" yMax="857">
      <component glyphName=".ttfautohint" x="10" y="0" flags="0x1000"/>
      <component glyphName="T" x="0" y="0" flags="0x1204"/>
      <component glyphName="caron.case" x="49" y="0" flags="0x1004"/>
    </TTGlyph>
    <TTGlyph name="Thorn" xMin="80" yMin="0" xMax="442" yMax="670">
      <contour>
        <pt x="80" y="670" on="1"/>
        <pt x="168" y="670" on="1"/>
        <pt x="166" y="593" on="1"/>
        <pt x="175" y="594" on="0"/>
        <pt x="193" y="595" on="0"/>
        <pt x="201" y="595" on="1"/>
        <pt x="317" y="595" on="0"/>
        <pt x="442" y="494" on="0"/>
        <pt x="442" y="398" on="1"/>
        <pt x="442" y="343" on="0"/>
        <pt x="396" y="245" on="0"/>
        <pt x="317" y="161" on="0"/>
        <pt x="212" y="92" on="0"/>
        <pt x="154" y="65" on="1"/>
        <pt x="153" y="0" on="1"/>
        <pt x="97" y="0" on="1"/>
      </contour>
      <contour>
        <pt x="200" y="552" on="1"/>
        <pt x="192" y="552" on="0"/>
        <pt x="174" y="551" on="0"/>
        <pt x="165" y="550" on="1"/>
        <pt x="155" y="110" on="1"/>
        <pt x="194" y="133" on="0"/>
        <pt x="266" y="194" on="0"/>
        <pt x="321" y="267" on="0"/>
        <pt x="354" y="350" on="0"/>
        <pt x="354" y="397" on="1"/>
        <pt x="354" y="472" on="0"/>
        <pt x="280" y="552" on="0"/>
      </contour>
    </TTGlyph>
    <TTGlyph name="U" xMin="60" yMin="-15" xMax="488" yMax="670">
      <contour>
        <pt x="274" y="-15" on="1"/>
        <pt x="214" y="-15" on="0"/>
        <pt x="132" y="29" on="0"/>
        <pt x="82" y="105" on="0"/>
        <pt x="60" y="205" on="0"/>
        <pt x="60" y="261" on="1"/>
        <pt x="60" y="316" on="0"/>
        <pt x="73" y="430" on="0"/>
        <pt x="96" y="536" on="0"/>
        <pt x="125" y="632" on="0"/>
        <pt x="140" y="670" on="1"/>
        <pt x="232" y="670" on="1"/>
        <pt x="208" y="617" on="0"/>
        <pt x="171" y="500" on="0"/>
        <pt x="146" y="383" on="0"/>
        <pt x="132" y="272" on="0"/>
        <pt x="132" y="224" on="1"/>
        <pt x="132" y="127" on="0"/>
        <pt x="209" y="25" on="0"/>
        <pt x="274" y="25" on="1"/>
        <pt x="338" y="25" on="0"/>
        <pt x="416" y="127" on="0"/>
        <pt x="416" y="224" on="1"/>
        <pt x="416" y="272" on="0"/>
        <pt x="402" y="383" on="0"/>
        <pt x="377" y="500" on="0"/>
        <pt x="340" y="617" on="0"/>
        <pt x="316" y="670" on="1"/>
        <pt x="408" y="670" on="1"/>
        <pt x="423" y="632" on="0"/>
        <pt x="452" y="536" on="0"/>
        <pt x="475" y="430" on="0"/>
        <pt x="488" y="316" on="0"/>
        <pt x="488" y="261" on="1"/>
        <pt x="488" y="205" on="0"/>
        <pt x="466" y="105" on="0"/>
        <pt x="416" y="29" on="0"/>
        <pt x="334" y="-15" on="0"/>
      </contour>
    </TTGlyph>
    <TTGlyph name="Uacute" xMin="60" yMin="-15" xMax="488" yMax="847">
      <component glyphName=".ttfautohint" x="60" y="0" flags="0x1000"/>
      <component glyphName="U" x="0" y="0" flags="0x1004"/>
      <component glyphName="acute.case" x="20" y="0" flags="0x1004"/>
    </TTGlyph>
    <TTGlyph name="Ubreve" xMin="60" yMin="-15" xMax="488" yMax="857">
      <component glyphName=".ttfautohint" x="60" y="0" flags="0x1000"/>
      <component glyphName="U" x="0" y="0" flags="0x1204"/>
      <component glyphName="breve.case" x="107" y="0" flags="0x1004"/>
    </TTGlyph>
    <TTGlyph name="Ucircumflex" xMin="60" yMin="-15" xMax="488" yMax="857">
      <component glyphName=".ttfautohint" x="60" y="0" flags="0x1000"/>
      <component glyphName="U" x="0" y="0" flags="0x1204"/>
      <component glyphName="circumflex.case" x="107" y="0" flags="0x1004"/>
    </TTGlyph>
    <TTGlyph name="Udieresis" xMin="60" yMin="-15" xMax="488" yMax="857">
      <component glyphName=".ttfautohint" x="60" y="0" flags="0x1000"/>
      <component glyphName="U" x="0" y="0" flags="0x1004"/>
      <component glyphName="dieresis.case" x="103" y="0" flags="0x1004"/>
    </TTGlyph>
    <TTGlyph name="Ugrave" xMin="60" yMin="-15" xMax="488" yMax="847">
      <component glyphName=".ttfautohint" x="60" y="0" flags="0x1000"/>
      <component glyphName="U" x="0" y="0" flags="0x1004"/>
      <component glyphName="grave.case" x="134" y="0" flags="0x1004"/>
    </TTGlyph>
    <TTGlyph name="Uhungarumlaut" xMin="60" yMin="-15" xMax="488" yMax="857">
      <component glyphName=".ttfautohint" x="60" y="0" flags="0x1000"/>
      <component glyphName="U" x="0" y="0" flags="0x1204"/>
      <component glyphName="hungarumlaut.case" x="125" y="0" flags="0x1004"/>
    </TTGlyph>
    <TTGlyph name="Umacron" xMin="60" yMin="-15" xMax="488" yMax="821">
      <component glyphName=".ttfautohint" x="60" y="0" flags="0x1000"/>
      <component glyphName="U" x="0" y="0" flags="0x1204"/>
      <component glyphName="macron.case" x="107" y="0" flags="0x1004"/>
    </TTGlyph>
    <TTGlyph name="Uogonek" xMin="60" yMin="-235" xMax="496" yMax="670">
      <component glyphName=".ttfautohint" x="60" y="0" flags="0x1000"/>
      <component glyphName="U" x="0" y="0" flags="0x1204"/>
      <component glyphName="ogonek" x="197" y="0" flags="0x1004"/>
    </TTGlyph>
    <TTGlyph name="Uring" xMin="60" yMin="-15" xMax="488" yMax="871">
      <component glyphName=".ttfautohint" x="60" y="0" flags="0x1000"/>
      <component glyphName="U" x="0" y="0" flags="0x1204"/>
      <component glyphName="ring.case" x="172" y="0" flags="0x1004"/>
    </TTGlyph>
    <TTGlyph name="Utilde" xMin="60" yMin="-15" xMax="488" yMax="857">
      <component glyphName=".ttfautohint" x="60" y="0" flags="0x1000"/>
      <component glyphName="U" x="0" y="0" flags="0x1204"/>
      <component glyphName="tilde.case" x="91" y="0" flags="0x1004"/>
    </TTGlyph>
    <TTGlyph name="V" xMin="68" yMin="-15" xMax="492" yMax="670">
      <contour>
        <pt x="280" y="25" on="1"/>
        <pt x="298" y="25" on="0"/>
        <pt x="330" y="73" on="0"/>
        <pt x="358" y="158" on="0"/>
        <pt x="380" y="278" on="0"/>
        <pt x="396" y="421" on="0"/>
        <pt x="405" y="584" on="0"/>
        <pt x="405" y="670" on="1"/>
        <pt x="492" y="670" on="1"/>
        <pt x="491" y="532" on="0"/>
        <pt x="458" y="283" on="0"/>
        <pt x="401" y="95" on="0"/>
        <pt x="325" y="-15" on="0"/>
        <pt x="280" y="-15" on="1"/>
        <pt x="236" y="-15" on="0"/>
        <pt x="159" y="95" on="0"/>
        <pt x="102" y="283" on="0"/>
        <pt x="69" y="532" on="0"/>
        <pt x="68" y="670" on="1"/>
        <pt x="156" y="670" on="1"/>
        <pt x="156" y="541" on="0"/>
        <pt x="176" y="307" on="0"/>
        <pt x="209" y="130" on="0"/>
        <pt x="254" y="25" on="0"/>
      </contour>
    </TTGlyph>
    <TTGlyph name="W" xMin="67" yMin="-15" xMax="764" yMax="670">
      <contour>
        <pt x="279" y="25" on="1"/>
        <pt x="306" y="25" on="0"/>
        <pt x="341" y="130" on="0"/>
        <pt x="363" y="307" on="0"/>
        <pt x="372" y="541" on="0"/>
        <pt x="372" y="670" on="1"/>
        <pt x="459" y="670" on="1"/>
        <pt x="459" y="541" on="0"/>
        <pt x="468" y="307" on="0"/>
        <pt x="490" y="130" on="0"/>
        <pt x="525" y="25" on="0"/>
        <pt x="552" y="25" on="1"/>
        <pt x="579" y="25" on="0"/>
        <pt x="624" y="130" on="0"/>
        <pt x="657" y="307" on="0"/>
        <pt x="676" y="541" on="0"/>
        <pt x="676" y="670" on="1"/>
        <pt x="764" y="670" on="1"/>
        <pt x="763" y="532" on="0"/>
        <pt x="730" y="283" on="0"/>
        <pt x="673" y="95" on="0"/>
        <pt x="596" y="-15" on="0"/>
        <pt x="552" y="-15" on="1"/>
        <pt x="524" y="-15" on="0"/>
        <pt x="480" y="32" on="0"/>
        <pt x="446" y="117" on="0"/>
        <pt x="422" y="235" on="0"/>
        <pt x="415" y="307" on="1"/>
        <pt x="407" y="235" on="0"/>
        <pt x="384" y="117" on="0"/>
        <pt x="351" y="32" on="0"/>
        <pt x="307" y="-15" on="0"/>
        <pt x="279" y="-15" on="1"/>
        <pt x="235" y="-15" on="0"/>
        <pt x="158" y="95" on="0"/>
        <pt x="101" y="283" on="0"/>
        <pt x="68" y="532" on="0"/>
        <pt x="67" y="670" on="1"/>
        <pt x="155" y="670" on="1"/>
        <pt x="155" y="541" on="0"/>
        <pt x="174" y="307" on="0"/>
        <pt x="207" y="130" on="0"/>
        <pt x="252" y="25" on="0"/>
      </contour>
    </TTGlyph>
    <TTGlyph name="Wacute" xMin="67" yMin="-15" xMax="764" yMax="847">
      <component glyphName=".ttfautohint" x="67" y="0" flags="0x1000"/>
      <component glyphName="W" x="0" y="0" flags="0x1204"/>
      <component glyphName="acute.case" x="138" y="0" flags="0x1004"/>
    </TTGlyph>
    <TTGlyph name="Wcircumflex" xMin="67" yMin="-15" xMax="764" yMax="857">
      <component glyphName=".ttfautohint" x="67" y="0" flags="0x1000"/>
      <component glyphName="W" x="0" y="0" flags="0x1204"/>
      <component glyphName="circumflex.case" x="243" y="0" flags="0x1004"/>
    </TTGlyph>
    <TTGlyph name="Wdieresis" xMin="67" yMin="-15" xMax="764" yMax="857">
      <component glyphName=".ttfautohint" x="67" y="0" flags="0x1000"/>
      <component glyphName="W" x="0" y="0" flags="0x1204"/>
      <component glyphName="dieresis.case" x="241" y="0" flags="0x1004"/>
    </TTGlyph>
    <TTGlyph name="Wgrave" xMin="67" yMin="-15" xMax="764" yMax="847">
      <component glyphName=".ttfautohint" x="67" y="0" flags="0x1000"/>
      <component glyphName="W" x="0" y="0" flags="0x1204"/>
      <component glyphName="grave.case" x="272" y="0" flags="0x1004"/>
    </TTGlyph>
    <TTGlyph name="X" xMin="94" yMin="0" xMax="492" yMax="670">
      <contour>
        <pt x="294" y="338" on="1"/>
        <pt x="261" y="338" on="0"/>
        <pt x="218" y="285" on="0"/>
        <pt x="193" y="193" on="0"/>
        <pt x="182" y="70" on="0"/>
        <pt x="182" y="0" on="1"/>
        <pt x="94" y="0" on="1"/>
        <pt x="95" y="134" on="0"/>
        <pt x="166" y="317" on="0"/>
        <pt x="223" y="355" on="1"/>
        <pt x="194" y="371" on="0"/>
        <pt x="154" y="432" on="0"/>
        <pt x="128" y="514" on="0"/>
        <pt x="116" y="614" on="0"/>
        <pt x="114" y="670" on="1"/>
        <pt x="199" y="670" on="1"/>
        <pt x="199" y="610" on="0"/>
        <pt x="203" y="503" on="0"/>
        <pt x="221" y="424" on="0"/>
        <pt x="259" y="377" on="0"/>
        <pt x="294" y="377" on="1"/>
        <pt x="329" y="377" on="0"/>
        <pt x="367" y="423" on="0"/>
        <pt x="385" y="502" on="0"/>
        <pt x="389" y="609" on="0"/>
        <pt x="389" y="670" on="1"/>
        <pt x="472" y="670" on="1"/>
        <pt x="470" y="614" on="0"/>
        <pt x="457" y="514" on="0"/>
        <pt x="433" y="432" on="0"/>
        <pt x="393" y="371" on="0"/>
        <pt x="364" y="355" on="1"/>
        <pt x="420" y="317" on="0"/>
        <pt x="491" y="134" on="0"/>
        <pt x="492" y="0" on="1"/>
        <pt x="405" y="0" on="1"/>
        <pt x="405" y="70" on="0"/>
        <pt x="394" y="193" on="0"/>
        <pt x="369" y="285" on="0"/>
        <pt x="327" y="338" on="0"/>
      </contour>
    </TTGlyph>
    <TTGlyph name="Y" xMin="50" yMin="0" xMax="442" yMax="670">
      <contour>
        <pt x="218" y="168" on="1"/>
        <pt x="182" y="180" on="0"/>
        <pt x="121" y="260" on="0"/>
        <pt x="76" y="389" on="0"/>
        <pt x="50" y="564" on="0"/>
        <pt x="50" y="670" on="1"/>
        <pt x="135" y="670" on="1"/>
        <pt x="135" y="576" on="0"/>
        <pt x="146" y="406" on="0"/>
        <pt x="171" y="278" on="0"/>
        <pt x="214" y="202" on="0"/>
        <pt x="247" y="202" on="1"/>
        <pt x="280" y="202" on="0"/>
        <pt x="322" y="278" on="0"/>
        <pt x="347" y="406" on="0"/>
        <pt x="358" y="576" on="0"/>
        <pt x="358" y="670" on="1"/>
        <pt x="442" y="670" on="1"/>
        <pt x="442" y="564" on="0"/>
        <pt x="416" y="390" on="0"/>
        <pt x="371" y="260" on="0"/>
        <pt x="310" y="180" on="0"/>
        <pt x="275" y="168" on="1"/>
        <pt x="290" y="0" on="1"/>
        <pt x="202" y="0" on="1"/>
      </contour>
    </TTGlyph>
    <TTGlyph name="Yacute" xMin="50" yMin="0" xMax="442" yMax="847">
      <component glyphName=".ttfautohint" x="50" y="0" flags="0x1000"/>
      <component glyphName="Y" x="0" y="0" flags="0x1204"/>
      <component glyphName="acute.case" x="-25" y="0" flags="0x1004"/>
    </TTGlyph>
    <TTGlyph name="Ycircumflex" xMin="50" yMin="0" xMax="442" yMax="857">
      <component glyphName=".ttfautohint" x="50" y="0" flags="0x1000"/>
      <component glyphName="Y" x="0" y="0" flags="0x1204"/>
      <component glyphName="circumflex.case" x="79" y="0" flags="0x1004"/>
    </TTGlyph>
    <TTGlyph name="Ydieresis" xMin="50" yMin="0" xMax="442" yMax="857">
      <component glyphName=".ttfautohint" x="50" y="0" flags="0x1000"/>
      <component glyphName="Y" x="0" y="0" flags="0x1204"/>
      <component glyphName="dieresis.case" x="76" y="0" flags="0x1004"/>
    </TTGlyph>
    <TTGlyph name="Z" xMin="25" yMin="0" xMax="423" yMax="670">
      <contour>
        <pt x="423" y="670" on="1"/>
        <pt x="420" y="577" on="0"/>
        <pt x="357" y="396" on="0"/>
        <pt x="262" y="236" on="0"/>
        <pt x="150" y="103" on="0"/>
        <pt x="98" y="58" on="1"/>
        <pt x="410" y="50" on="1"/>
        <pt x="410" y="0" on="1"/>
        <pt x="25" y="0" on="1"/>
        <pt x="25" y="47" on="1"/>
        <pt x="92" y="102" on="0"/>
        <pt x="195" y="239" on="0"/>
        <pt x="268" y="389" on="0"/>
        <pt x="313" y="542" on="0"/>
        <pt x="322" y="612" on="1"/>
        <pt x="37" y="620" on="1"/>
        <pt x="37" y="670" on="1"/>
      </contour>
    </TTGlyph>
    <TTGlyph name="Zacute" xMin="25" yMin="0" xMax="423" yMax="847">
      <component glyphName=".ttfautohint" x="25" y="0" flags="0x1000"/>
      <component glyphName="Z" x="0" y="0" flags="0x1204"/>
      <component glyphName="acute.case" x="-47" y="0" flags="0x1004"/>
    </TTGlyph>
    <TTGlyph name="Zcaron" xMin="25" yMin="0" xMax="423" yMax="857">
      <component glyphName=".ttfautohint" x="25" y="0" flags="0x1000"/>
      <component glyphName="Z" x="0" y="0" flags="0x1204"/>
      <component glyphName="caron.case" x="57" y="0" flags="0x1004"/>
    </TTGlyph>
    <TTGlyph name="Zdotaccent" xMin="25" yMin="0" xMax="423" yMax="860">
      <component glyphName=".ttfautohint" x="25" y="0" flags="0x1000"/>
      <component glyphName="Z" x="0" y="0" flags="0x1204"/>
      <component glyphName="dotaccent.case" x="98" y="0" flags="0x1004"/>
    </TTGlyph>
    <TTGlyph name="a" xMin="49" yMin="-15" xMax="385" yMax="531">
      <contour>
        <pt x="213" y="531" on="1"/>
        <pt x="249" y="531" on="0"/>
        <pt x="312" y="466" on="0"/>
        <pt x="359" y="361" on="0"/>
        <pt x="385" y="228" on="0"/>
        <pt x="385" y="160" on="1"/>
        <pt x="385" y="103" on="0"/>
        <pt x="358" y="35" on="0"/>
        <pt x="311" y="-3" on="0"/>
        <pt x="248" y="-15" on="0"/>
        <pt x="213" y="-15" on="1"/>
        <pt x="178" y="-15" on="0"/>
        <pt x="118" y="-4" on="0"/>
        <pt x="74" y="28" on="0"/>
        <pt x="49" y="85" on="0"/>
        <pt x="49" y="130" on="1"/>
        <pt x="49" y="167" on="0"/>
        <pt x="81" y="225" on="0"/>
        <pt x="135" y="264" on="0"/>
        <pt x="206" y="285" on="0"/>
        <pt x="245" y="285" on="1"/>
        <pt x="269" y="285" on="0"/>
        <pt x="297" y="280" on="1"/>
        <pt x="292" y="323" on="0"/>
        <pt x="275" y="399" on="0"/>
        <pt x="253" y="456" on="0"/>
        <pt x="227" y="489" on="0"/>
        <pt x="213" y="489" on="1"/>
        <pt x="194" y="489" on="0"/>
        <pt x="161" y="415" on="0"/>
        <pt x="161" y="355" on="1"/>
        <pt x="80" y="376" on="1"/>
        <pt x="91" y="422" on="0"/>
        <pt x="119" y="482" on="0"/>
        <pt x="153" y="517" on="0"/>
        <pt x="192" y="531" on="0"/>
      </contour>
      <contour>
        <pt x="304" y="160" on="1"/>
        <pt x="304" y="198" on="0"/>
        <pt x="301" y="236" on="1"/>
        <pt x="293" y="237" on="0"/>
        <pt x="279" y="238" on="0"/>
        <pt x="272" y="238" on="1"/>
        <pt x="243" y="238" on="0"/>
        <pt x="192" y="226" on="0"/>
        <pt x="153" y="200" on="0"/>
        <pt x="130" y="159" on="0"/>
        <pt x="130" y="130" on="1"/>
        <pt x="130" y="98" on="0"/>
        <pt x="142" y="57" on="0"/>
        <pt x="164" y="34" on="0"/>
        <pt x="194" y="26" on="0"/>
        <pt x="213" y="26" on="1"/>
        <pt x="232" y="26" on="0"/>
        <pt x="265" y="35" on="0"/>
        <pt x="290" y="64" on="0"/>
        <pt x="304" y="116" on="0"/>
      </contour>
    </TTGlyph>
    <TTGlyph name="aacute" xMin="49" yMin="-15" xMax="385" yMax="697">
      <component glyphName=".ttfautohint" x="49" y="0" flags="0x1000"/>
      <component glyphName="a" x="0" y="0" flags="0x1204"/>
      <component glyphName="acute" x="-30" y="0" flags="0x1004"/>
    </TTGlyph>
    <TTGlyph name="abreve" xMin="49" yMin="-15" xMax="385" yMax="707">
      <component glyphName=".ttfautohint" x="49" y="0" flags="0x1000"/>
      <component glyphName="a" x="0" y="0" flags="0x1204"/>
      <component glyphName="breve" x="50" y="0" flags="0x1004"/>
    </TTGlyph>
    <TTGlyph name="acircumflex" xMin="49" yMin="-15" xMax="385" yMax="707">
      <component glyphName=".ttfautohint" x="49" y="0" flags="0x1000"/>
      <component glyphName="a" x="0" y="0" flags="0x1204"/>
      <component glyphName="circumflex" x="50" y="0" flags="0x1004"/>
    </TTGlyph>
    <TTGlyph name="acute" xMin="164" yMin="574" xMax="341" yMax="697">
      <contour>
        <pt x="177" y="574" on="1"/>
        <pt x="174" y="574" on="0"/>
        <pt x="164" y="577" on="0"/>
        <pt x="164" y="582" on="1"/>
        <pt x="164" y="590" on="0"/>
        <pt x="193" y="621" on="0"/>
        <pt x="233" y="654" on="0"/>
        <pt x="274" y="684" on="0"/>
        <pt x="286" y="691" on="1"/>
        <pt x="296" y="697" on="0"/>
        <pt x="305" y="697" on="1"/>
        <pt x="319" y="697" on="0"/>
        <pt x="341" y="665" on="0"/>
        <pt x="341" y="651" on="1"/>
        <pt x="341" y="637" on="0"/>
        <pt x="323" y="627" on="1"/>
        <pt x="313" y="621" on="0"/>
        <pt x="273" y="603" on="0"/>
        <pt x="229" y="586" on="0"/>
        <pt x="188" y="574" on="0"/>
      </contour>
    </TTGlyph>
    <TTGlyph name="acute.case" xMin="184" yMin="724" xMax="361" yMax="847">
      <contour>
        <pt x="197" y="724" on="1"/>
        <pt x="194" y="724" on="0"/>
        <pt x="184" y="727" on="0"/>
        <pt x="184" y="732" on="1"/>
        <pt x="184" y="740" on="0"/>
        <pt x="213" y="771" on="0"/>
        <pt x="253" y="804" on="0"/>
        <pt x="294" y="834" on="0"/>
        <pt x="306" y="841" on="1"/>
        <pt x="316" y="847" on="0"/>
        <pt x="325" y="847" on="1"/>
        <pt x="339" y="847" on="0"/>
        <pt x="361" y="815" on="0"/>
        <pt x="361" y="801" on="1"/>
        <pt x="361" y="787" on="0"/>
        <pt x="343" y="777" on="1"/>
        <pt x="333" y="771" on="0"/>
        <pt x="293" y="753" on="0"/>
        <pt x="249" y="736" on="0"/>
        <pt x="208" y="724" on="0"/>
      </contour>
    </TTGlyph>
    <TTGlyph name="adieresis" xMin="49" yMin="-15" xMax="385" yMax="707">
      <component glyphName=".ttfautohint" x="49" y="0" flags="0x1000"/>
      <component glyphName="a" x="0" y="0" flags="0x1204"/>
      <component glyphName="dieresis" x="48" y="0" flags="0x1004"/>
    </TTGlyph>
    <TTGlyph name="ae" xMin="49" yMin="-15" xMax="635" yMax="531">
      <contour>
        <pt x="635" y="386" on="1"/>
        <pt x="635" y="356" on="0"/>
        <pt x="614" y="297" on="0"/>
        <pt x="571" y="250" on="0"/>
        <pt x="505" y="220" on="0"/>
        <pt x="460" y="220" on="1"/>
        <pt x="422" y="220" on="0"/>
        <pt x="382" y="230" on="1"/>
        <pt x="387" y="188" on="0"/>
        <pt x="404" y="114" on="0"/>
        <pt x="425" y="59" on="0"/>
        <pt x="451" y="27" on="0"/>
        <pt x="465" y="27" on="1"/>
        <pt x="483" y="27" on="0"/>
        <pt x="514" y="96" on="0"/>
        <pt x="526" y="155" on="1"/>
        <pt x="597" y="142" on="1"/>
        <pt x="574" y="70" on="0"/>
        <pt x="501" y="-15" on="0"/>
        <pt x="465" y="-15" on="1"/>
        <pt x="437" y="-15" on="0"/>
        <pt x="387" y="23" on="0"/>
        <pt x="366" y="57" on="1"/>
        <pt x="355" y="34" on="0"/>
        <pt x="324" y="6" on="0"/>
        <pt x="284" y="-9" on="0"/>
        <pt x="238" y="-15" on="0"/>
        <pt x="213" y="-15" on="1"/>
        <pt x="178" y="-15" on="0"/>
        <pt x="118" y="-4" on="0"/>
        <pt x="74" y="28" on="0"/>
        <pt x="49" y="85" on="0"/>
        <pt x="49" y="130" on="1"/>
        <pt x="49" y="167" on="0"/>
        <pt x="81" y="226" on="0"/>
        <pt x="135" y="268" on="0"/>
        <pt x="206" y="290" on="0"/>
        <pt x="245" y="290" on="1"/>
        <pt x="268" y="290" on="0"/>
        <pt x="296" y="285" on="1"/>
        <pt x="291" y="327" on="0"/>
        <pt x="274" y="402" on="0"/>
        <pt x="252" y="457" on="0"/>
        <pt x="227" y="489" on="0"/>
        <pt x="213" y="489" on="1"/>
        <pt x="194" y="489" on="0"/>
        <pt x="161" y="415" on="0"/>
        <pt x="161" y="355" on="1"/>
        <pt x="80" y="376" on="1"/>
        <pt x="91" y="422" on="0"/>
        <pt x="119" y="482" on="0"/>
        <pt x="153" y="517" on="0"/>
        <pt x="192" y="531" on="0"/>
        <pt x="213" y="531" on="1"/>
        <pt x="241" y="531" on="0"/>
        <pt x="291" y="492" on="0"/>
        <pt x="311" y="459" on="1"/>
        <pt x="333" y="504" on="0"/>
        <pt x="414" y="531" on="0"/>
        <pt x="465" y="531" on="1"/>
        <pt x="500" y="531" on="0"/>
        <pt x="562" y="517" on="0"/>
        <pt x="608" y="483" on="0"/>
        <pt x="635" y="428" on="0"/>
      </contour>
      <contour>
        <pt x="374" y="356" on="1"/>
        <pt x="374" y="313" on="0"/>
        <pt x="377" y="273" on="1"/>
        <pt x="394" y="270" on="0"/>
        <pt x="424" y="268" on="0"/>
        <pt x="438" y="268" on="1"/>
        <pt x="473" y="268" on="0"/>
        <pt x="519" y="287" on="0"/>
        <pt x="545" y="319" on="0"/>
        <pt x="555" y="362" on="0"/>
        <pt x="555" y="386" on="1"/>
        <pt x="555" y="443" on="0"/>
        <pt x="503" y="490" on="0"/>
        <pt x="465" y="490" on="1"/>
        <pt x="446" y="490" on="0"/>
        <pt x="413" y="481" on="0"/>
        <pt x="388" y="452" on="0"/>
        <pt x="374" y="399" on="0"/>
      </contour>
      <contour>
        <pt x="304" y="160" on="1"/>
        <pt x="304" y="180" on="0"/>
        <pt x="302" y="222" on="0"/>
        <pt x="300" y="242" on="1"/>
        <pt x="293" y="243" on="0"/>
        <pt x="279" y="243" on="0"/>
        <pt x="272" y="243" on="1"/>
        <pt x="243" y="243" on="0"/>
        <pt x="192" y="230" on="0"/>
        <pt x="153" y="202" on="0"/>
        <pt x="130" y="159" on="0"/>
        <pt x="130" y="130" on="1"/>
        <pt x="130" y="98" on="0"/>
        <pt x="142" y="57" on="0"/>
        <pt x="164" y="34" on="0"/>
        <pt x="194" y="26" on="0"/>
        <pt x="213" y="26" on="1"/>
        <pt x="232" y="26" on="0"/>
        <pt x="265" y="35" on="0"/>
        <pt x="290" y="64" on="0"/>
        <pt x="304" y="116" on="0"/>
      </contour>
    </TTGlyph>
    <TTGlyph name="agrave" xMin="49" yMin="-15" xMax="385" yMax="697">
      <component glyphName=".ttfautohint" x="49" y="0" flags="0x1000"/>
      <component glyphName="a" x="0" y="0" flags="0x1204"/>
      <component glyphName="grave" x="79" y="0" flags="0x1004"/>
    </TTGlyph>
    <TTGlyph name="amacron" xMin="49" yMin="-15" xMax="385" yMax="671">
      <component glyphName=".ttfautohint" x="49" y="0" flags="0x1000"/>
      <component glyphName="a" x="0" y="0" flags="0x1204"/>
      <component glyphName="macron" x="50" y="0" flags="0x1004"/>
    </TTGlyph>
    <TTGlyph name="ampersand" xMin="60" yMin="-148" xMax="529" yMax="685">
      <contour>
        <pt x="366" y="-148" on="1"/>
        <pt x="375" y="121" on="1"/>
        <pt x="368" y="121" on="1"/>
        <pt x="359" y="94" on="0"/>
        <pt x="338" y="44" on="0"/>
        <pt x="311" y="7" on="0"/>
        <pt x="280" y="-15" on="0"/>
        <pt x="262" y="-15" on="1"/>
        <pt x="220" y="-15" on="0"/>
        <pt x="146" y="67" on="0"/>
        <pt x="92" y="201" on="0"/>
        <pt x="60" y="372" on="0"/>
        <pt x="60" y="462" on="1"/>
        <pt x="60" y="535" on="0"/>
        <pt x="92" y="623" on="0"/>
        <pt x="147" y="670" on="0"/>
        <pt x="221" y="685" on="0"/>
        <pt x="262" y="685" on="1"/>
        <pt x="301" y="685" on="0"/>
        <pt x="370" y="672" on="0"/>
        <pt x="424" y="633" on="0"/>
        <pt x="458" y="561" on="0"/>
        <pt x="463" y="501" on="1"/>
        <pt x="377" y="477" on="1"/>
        <pt x="376" y="532" on="0"/>
        <pt x="357" y="599" on="0"/>
        <pt x="326" y="634" on="0"/>
        <pt x="285" y="645" on="0"/>
        <pt x="262" y="645" on="1"/>
        <pt x="239" y="645" on="0"/>
        <pt x="197" y="633" on="0"/>
        <pt x="166" y="595" on="0"/>
        <pt x="148" y="523" on="0"/>
        <pt x="148" y="462" on="1"/>
        <pt x="148" y="431" on="0"/>
        <pt x="150" y="371" on="0"/>
        <pt x="152" y="342" on="1"/>
        <pt x="529" y="342" on="1"/>
        <pt x="529" y="281" on="1"/>
        <pt x="430" y="284" on="1"/>
        <pt x="444" y="-148" on="1"/>
      </contour>
      <contour>
        <pt x="262" y="25" on="1"/>
        <pt x="278" y="25" on="0"/>
        <pt x="312" y="69" on="0"/>
        <pt x="343" y="141" on="0"/>
        <pt x="369" y="235" on="0"/>
        <pt x="377" y="286" on="1"/>
        <pt x="157" y="293" on="1"/>
        <pt x="164" y="236" on="0"/>
        <pt x="185" y="138" on="0"/>
        <pt x="212" y="66" on="0"/>
        <pt x="244" y="25" on="0"/>
      </contour>
    </TTGlyph>
    <TTGlyph name="aogonek" xMin="49" yMin="-235" xMax="442" yMax="531">
      <component glyphName=".ttfautohint" x="49" y="0" flags="0x1000"/>
      <component glyphName="a" x="0" y="0" flags="0x1204"/>
      <component glyphName="ogonek" x="143" y="0" flags="0x1004"/>
    </TTGlyph>
    <TTGlyph name="apple" xMin="100" yMin="-114" xMax="823" yMax="608">
      <contour>
        <pt x="556" y="-89" on="1"/>
        <pt x="542" y="-93" on="0"/>
        <pt x="521" y="-112" on="0"/>
        <pt x="508" y="-112" on="1"/>
        <pt x="497" y="-112" on="0"/>
        <pt x="473" y="-102" on="0"/>
        <pt x="462" y="-102" on="1"/>
        <pt x="450" y="-102" on="0"/>
        <pt x="427" y="-114" on="0"/>
        <pt x="416" y="-114" on="1"/>
        <pt x="408" y="-114" on="0"/>
        <pt x="396" y="-106" on="0"/>
        <pt x="384" y="-97" on="0"/>
        <pt x="370" y="-89" on="0"/>
        <pt x="361" y="-89" on="1"/>
        <pt x="355" y="-89" on="0"/>
        <pt x="342" y="-91" on="0"/>
        <pt x="337" y="-91" on="1"/>
        <pt x="327" y="-91" on="0"/>
        <pt x="313" y="-82" on="0"/>
        <pt x="301" y="-70" on="0"/>
        <pt x="291" y="-58" on="0"/>
        <pt x="286" y="-55" on="1"/>
        <pt x="277" y="-51" on="0"/>
        <pt x="265" y="-48" on="0"/>
        <pt x="255" y="-47" on="0"/>
        <pt x="246" y="-46" on="0"/>
        <pt x="240" y="-42" on="1"/>
        <pt x="233" y="-38" on="0"/>
        <pt x="226" y="-26" on="0"/>
        <pt x="220" y="-12" on="0"/>
        <pt x="215" y="0" on="0"/>
        <pt x="210" y="4" on="1"/>
        <pt x="200" y="12" on="0"/>
        <pt x="179" y="16" on="0"/>
        <pt x="171" y="28" on="1"/>
        <pt x="163" y="42" on="0"/>
        <pt x="164" y="61" on="0"/>
        <pt x="156" y="75" on="1"/>
        <pt x="153" y="79" on="0"/>
        <pt x="142" y="89" on="0"/>
        <pt x="130" y="100" on="0"/>
        <pt x="122" y="114" on="0"/>
        <pt x="122" y="124" on="1"/>
        <pt x="122" y="131" on="0"/>
        <pt x="125" y="143" on="0"/>
        <pt x="125" y="149" on="1"/>
        <pt x="125" y="156" on="0"/>
        <pt x="117" y="169" on="0"/>
        <pt x="108" y="182" on="0"/>
        <pt x="100" y="196" on="0"/>
        <pt x="100" y="204" on="1"/>
        <pt x="100" y="215" on="0"/>
        <pt x="112" y="237" on="0"/>
        <pt x="112" y="248" on="1"/>
        <pt x="112" y="261" on="0"/>
        <pt x="100" y="279" on="0"/>
        <pt x="100" y="290" on="1"/>
        <pt x="100" y="298" on="0"/>
        <pt x="108" y="314" on="0"/>
        <pt x="117" y="329" on="0"/>
        <pt x="125" y="344" on="0"/>
        <pt x="125" y="351" on="1"/>
        <pt x="125" y="357" on="0"/>
        <pt x="124" y="370" on="0"/>
        <pt x="124" y="376" on="1"/>
        <pt x="124" y="385" on="0"/>
        <pt x="132" y="398" on="0"/>
        <pt x="143" y="408" on="0"/>
        <pt x="155" y="418" on="0"/>
        <pt x="159" y="424" on="1"/>
        <pt x="164" y="432" on="0"/>
        <pt x="165" y="459" on="0"/>
        <pt x="170" y="467" on="1"/>
        <pt x="176" y="477" on="0"/>
        <pt x="202" y="483" on="0"/>
        <pt x="210" y="491" on="1"/>
        <pt x="218" y="499" on="0"/>
        <pt x="227" y="524" on="0"/>
        <pt x="235" y="532" on="1"/>
        <pt x="245" y="540" on="0"/>
        <pt x="274" y="543" on="0"/>
        <pt x="286" y="549" on="1"/>
        <pt x="292" y="552" on="0"/>
        <pt x="302" y="565" on="0"/>
        <pt x="313" y="577" on="0"/>
        <pt x="326" y="587" on="0"/>
        <pt x="335" y="587" on="1"/>
        <pt x="341" y="587" on="0"/>
        <pt x="354" y="585" on="0"/>
        <pt x="361" y="585" on="1"/>
        <pt x="370" y="585" on="0"/>
        <pt x="384" y="592" on="0"/>
        <pt x="396" y="601" on="0"/>
        <pt x="408" y="608" on="0"/>
        <pt x="416" y="608" on="1"/>
        <pt x="426" y="608" on="0"/>
        <pt x="450" y="596" on="0"/>
        <pt x="460" y="596" on="1"/>
        <pt x="471" y="596" on="0"/>
        <pt x="494" y="608" on="0"/>
        <pt x="505" y="608" on="1"/>
        <pt x="515" y="608" on="0"/>
        <pt x="528" y="600" on="0"/>
        <pt x="540" y="591" on="0"/>
        <pt x="553" y="583" on="0"/>
        <pt x="562" y="583" on="1"/>
        <pt x="568" y="583" on="0"/>
        <pt x="582" y="586" on="0"/>
        <pt x="590" y="586" on="1"/>
        <pt x="600" y="586" on="0"/>
        <pt x="612" y="578" on="0"/>
        <pt x="622" y="566" on="0"/>
        <pt x="631" y="554" on="0"/>
        <pt x="638" y="550" on="1"/>
        <pt x="649" y="544" on="0"/>
        <pt x="672" y="543" on="0"/>
        <pt x="683" y="535" on="1"/>
        <pt x="693" y="528" on="0"/>
        <pt x="697" y="505" on="0"/>
        <pt x="706" y="496" on="1"/>
        <pt x="717" y="486" on="0"/>
        <pt x="749" y="474" on="0"/>
        <pt x="757" y="460" on="1"/>
        <pt x="762" y="452" on="0"/>
        <pt x="759" y="426" on="0"/>
        <pt x="764" y="418" on="1"/>
        <pt x="768" y="411" on="0"/>
        <pt x="780" y="402" on="0"/>
        <pt x="792" y="392" on="0"/>
        <pt x="800" y="379" on="0"/>
        <pt x="800" y="369" on="1"/>
        <pt x="800" y="362" on="0"/>
        <pt x="799" y="350" on="0"/>
        <pt x="799" y="344" on="1"/>
        <pt x="799" y="335" on="0"/>
        <pt x="806" y="319" on="0"/>
        <pt x="815" y="305" on="0"/>
        <pt x="823" y="291" on="0"/>
        <pt x="823" y="283" on="1"/>
        <pt x="823" y="272" on="0"/>
        <pt x="812" y="254" on="0"/>
        <pt x="812" y="244" on="1"/>
        <pt x="812" y="233" on="0"/>
        <pt x="823" y="211" on="0"/>
        <pt x="823" y="200" on="1"/>
        <pt x="822" y="192" on="0"/>
        <pt x="814" y="183" on="0"/>
        <pt x="805" y="173" on="0"/>
        <pt x="798" y="161" on="0"/>
        <pt x="798" y="152" on="1"/>
        <pt x="798" y="144" on="0"/>
        <pt x="800" y="128" on="0"/>
        <pt x="800" y="120" on="1"/>
        <pt x="800" y="109" on="0"/>
        <pt x="792" y="97" on="0"/>
        <pt x="781" y="88" on="0"/>
        <pt x="770" y="80" on="0"/>
        <pt x="766" y="74" on="1"/>
        <pt x="760" y="63" on="0"/>
        <pt x="756" y="33" on="0"/>
        <pt x="748" y="23" on="1"/>
        <pt x="741" y="15" on="0"/>
        <pt x="721" y="9" on="0"/>
        <pt x="713" y="1" on="1"/>
        <pt x="704" y="-8" on="0"/>
        <pt x="693" y="-35" on="0"/>
        <pt x="683" y="-42" on="1"/>
        <pt x="673" y="-49" on="0"/>
        <pt x="645" y="-54" on="0"/>
        <pt x="634" y="-60" on="1"/>
        <pt x="628" y="-64" on="0"/>
        <pt x="619" y="-74" on="0"/>
        <pt x="610" y="-83" on="0"/>
        <pt x="599" y="-89" on="0"/>
        <pt x="589" y="-89" on="1"/>
        <pt x="583" y="-89" on="0"/>
        <pt x="572" y="-88" on="0"/>
        <pt x="566" y="-88" on="1"/>
        <pt x="559" y="-88" on="0"/>
      </contour>
      <contour>
        <pt x="530" y="3" on="1"/>
        <pt x="533" y="4" on="0"/>
        <pt x="539" y="4" on="1"/>
        <pt x="543" y="4" on="0"/>
        <pt x="550" y="3" on="0"/>
        <pt x="554" y="3" on="1"/>
        <pt x="569" y="3" on="0"/>
        <pt x="578" y="20" on="0"/>
        <pt x="587" y="24" on="1"/>
        <pt x="595" y="29" on="0"/>
        <pt x="615" y="33" on="0"/>
        <pt x="622" y="38" on="1"/>
        <pt x="630" y="43" on="0"/>
        <pt x="638" y="62" on="0"/>
        <pt x="644" y="68" on="1"/>
        <pt x="649" y="74" on="0"/>
        <pt x="665" y="78" on="0"/>
        <pt x="670" y="84" on="1"/>
        <pt x="675" y="92" on="0"/>
        <pt x="678" y="114" on="0"/>
        <pt x="683" y="122" on="1"/>
        <pt x="686" y="127" on="0"/>
        <pt x="694" y="133" on="0"/>
        <pt x="702" y="139" on="0"/>
        <pt x="707" y="148" on="0"/>
        <pt x="707" y="157" on="1"/>
        <pt x="707" y="162" on="0"/>
        <pt x="706" y="172" on="0"/>
        <pt x="706" y="177" on="1"/>
        <pt x="706" y="184" on="0"/>
        <pt x="711" y="193" on="0"/>
        <pt x="717" y="201" on="0"/>
        <pt x="723" y="208" on="0"/>
        <pt x="724" y="213" on="1"/>
        <pt x="724" y="221" on="0"/>
        <pt x="716" y="237" on="0"/>
        <pt x="716" y="245" on="1"/>
        <pt x="716" y="252" on="0"/>
        <pt x="724" y="266" on="0"/>
        <pt x="724" y="273" on="1"/>
        <pt x="724" y="285" on="0"/>
        <pt x="706" y="304" on="0"/>
        <pt x="706" y="318" on="1"/>
        <pt x="706" y="322" on="0"/>
        <pt x="707" y="330" on="0"/>
        <pt x="707" y="335" on="1"/>
        <pt x="707" y="343" on="0"/>
        <pt x="701" y="352" on="0"/>
        <pt x="693" y="359" on="0"/>
        <pt x="684" y="366" on="0"/>
        <pt x="681" y="371" on="1"/>
        <pt x="678" y="377" on="0"/>
        <pt x="679" y="396" on="0"/>
        <pt x="676" y="402" on="1"/>
        <pt x="670" y="412" on="0"/>
        <pt x="647" y="420" on="0"/>
        <pt x="639" y="428" on="1"/>
        <pt x="632" y="434" on="0"/>
        <pt x="630" y="451" on="0"/>
        <pt x="622" y="456" on="1"/>
        <pt x="614" y="462" on="0"/>
        <pt x="598" y="462" on="0"/>
        <pt x="589" y="467" on="1"/>
        <pt x="584" y="470" on="0"/>
        <pt x="578" y="478" on="0"/>
        <pt x="571" y="487" on="0"/>
        <pt x="562" y="493" on="0"/>
        <pt x="555" y="493" on="1"/>
        <pt x="550" y="493" on="0"/>
        <pt x="540" y="491" on="0"/>
        <pt x="535" y="491" on="1"/>
        <pt x="528" y="491" on="0"/>
        <pt x="519" y="497" on="0"/>
        <pt x="510" y="503" on="0"/>
        <pt x="501" y="509" on="0"/>
        <pt x="494" y="509" on="1"/>
        <pt x="486" y="509" on="0"/>
        <pt x="469" y="500" on="0"/>
        <pt x="461" y="500" on="1"/>
        <pt x="453" y="500" on="0"/>
        <pt x="437" y="509" on="0"/>
        <pt x="429" y="509" on="1"/>
        <pt x="417" y="509" on="0"/>
        <pt x="401" y="492" on="0"/>
        <pt x="387" y="492" on="1"/>
        <pt x="382" y="492" on="0"/>
        <pt x="375" y="493" on="0"/>
        <pt x="370" y="493" on="1"/>
        <pt x="356" y="493" on="0"/>
        <pt x="344" y="471" on="0"/>
        <pt x="334" y="466" on="1"/>
        <pt x="326" y="461" on="0"/>
        <pt x="305" y="460" on="0"/>
        <pt x="298" y="454" on="1"/>
        <pt x="291" y="449" on="0"/>
        <pt x="285" y="430" on="0"/>
        <pt x="279" y="424" on="1"/>
        <pt x="273" y="418" on="0"/>
        <pt x="255" y="414" on="0"/>
        <pt x="250" y="407" on="1"/>
        <pt x="246" y="401" on="0"/>
        <pt x="246" y="382" on="0"/>
        <pt x="242" y="376" on="1"/>
        <pt x="239" y="371" on="0"/>
        <pt x="231" y="364" on="0"/>
        <pt x="222" y="356" on="0"/>
        <pt x="216" y="347" on="0"/>
        <pt x="216" y="340" on="1"/>
        <pt x="216" y="336" on="0"/>
        <pt x="217" y="328" on="0"/>
        <pt x="217" y="324" on="1"/>
        <pt x="217" y="312" on="0"/>
        <pt x="200" y="290" on="0"/>
        <pt x="200" y="278" on="1"/>
        <pt x="200" y="270" on="0"/>
        <pt x="208" y="257" on="0"/>
        <pt x="208" y="248" on="1"/>
        <pt x="208" y="240" on="0"/>
        <pt x="200" y="223" on="0"/>
        <pt x="200" y="215" on="1"/>
        <pt x="200" y="204" on="0"/>
        <pt x="217" y="185" on="0"/>
        <pt x="217" y="174" on="1"/>
        <pt x="217" y="170" on="0"/>
        <pt x="215" y="162" on="0"/>
        <pt x="215" y="158" on="1"/>
        <pt x="215" y="144" on="0"/>
        <pt x="236" y="130" on="0"/>
        <pt x="240" y="123" on="1"/>
        <pt x="246" y="113" on="0"/>
        <pt x="245" y="98" on="0"/>
        <pt x="251" y="88" on="1"/>
        <pt x="256" y="80" on="0"/>
        <pt x="272" y="77" on="0"/>
        <pt x="279" y="71" on="1"/>
        <pt x="287" y="65" on="0"/>
        <pt x="291" y="43" on="0"/>
        <pt x="301" y="37" on="1"/>
        <pt x="305" y="34" on="0"/>
        <pt x="312" y="33" on="0"/>
        <pt x="319" y="33" on="0"/>
        <pt x="328" y="31" on="0"/>
        <pt x="334" y="28" on="1"/>
        <pt x="342" y="24" on="0"/>
        <pt x="357" y="2" on="0"/>
        <pt x="371" y="2" on="1"/>
        <pt x="375" y="2" on="0"/>
        <pt x="382" y="3" on="0"/>
        <pt x="386" y="3" on="1"/>
        <pt x="400" y="3" on="0"/>
        <pt x="415" y="-13" on="0"/>
        <pt x="426" y="-15" on="1"/>
        <pt x="435" y="-15" on="0"/>
        <pt x="453" y="-6" on="0"/>
        <pt x="462" y="-6" on="1"/>
        <pt x="470" y="-6" on="0"/>
        <pt x="487" y="-13" on="0"/>
        <pt x="495" y="-13" on="1"/>
        <pt x="504" y="-13" on="0"/>
        <pt x="520" y="1" on="0"/>
      </contour>
      <contour>
        <pt x="462" y="417" on="1"/>
        <pt x="497" y="417" on="0"/>
        <pt x="559" y="390" on="0"/>
        <pt x="605" y="344" on="0"/>
        <pt x="632" y="282" on="0"/>
        <pt x="632" y="247" on="1"/>
        <pt x="632" y="212" on="0"/>
        <pt x="605" y="150" on="0"/>
        <pt x="559" y="104" on="0"/>
        <pt x="497" y="77" on="0"/>
        <pt x="462" y="77" on="1"/>
        <pt x="427" y="77" on="0"/>
        <pt x="365" y="104" on="0"/>
        <pt x="319" y="150" on="0"/>
        <pt x="292" y="212" on="0"/>
        <pt x="292" y="247" on="1"/>
        <pt x="292" y="282" on="0"/>
        <pt x="319" y="344" on="0"/>
        <pt x="365" y="390" on="0"/>
        <pt x="427" y="417" on="0"/>
      </contour>
      <contour>
        <pt x="557" y="292" on="1"/>
        <pt x="557" y="360" on="1"/>
        <pt x="366" y="360" on="1"/>
        <pt x="366" y="292" on="1"/>
        <pt x="420" y="292" on="1"/>
        <pt x="420" y="117" on="1"/>
        <pt x="505" y="117" on="1"/>
        <pt x="505" y="292" on="1"/>
      </contour>
    </TTGlyph>
    <TTGlyph name="approxequal" xMin="70" yMin="179" xMax="450" yMax="462">
      <contour>
        <pt x="450" y="387" on="1"/>
        <pt x="408" y="412" on="0"/>
        <pt x="359" y="412" on="1"/>
        <pt x="334" y="412" on="0"/>
        <pt x="286" y="395" on="0"/>
        <pt x="236" y="376" on="0"/>
        <pt x="185" y="359" on="0"/>
        <pt x="157" y="359" on="1"/>
        <pt x="133" y="359" on="0"/>
        <pt x="89" y="371" on="0"/>
        <pt x="70" y="387" on="1"/>
        <pt x="70" y="437" on="1"/>
        <pt x="88" y="422" on="0"/>
        <pt x="132" y="409" on="0"/>
        <pt x="156" y="409" on="1"/>
        <pt x="181" y="409" on="0"/>
        <pt x="230" y="426" on="0"/>
        <pt x="279" y="445" on="0"/>
        <pt x="329" y="462" on="0"/>
        <pt x="356" y="462" on="1"/>
        <pt x="407" y="462" on="0"/>
        <pt x="450" y="437" on="1"/>
      </contour>
      <contour>
        <pt x="450" y="207" on="1"/>
        <pt x="408" y="232" on="0"/>
        <pt x="359" y="232" on="1"/>
        <pt x="334" y="232" on="0"/>
        <pt x="286" y="215" on="0"/>
        <pt x="236" y="196" on="0"/>
        <pt x="185" y="179" on="0"/>
        <pt x="157" y="179" on="1"/>
        <pt x="133" y="179" on="0"/>
        <pt x="89" y="191" on="0"/>
        <pt x="70" y="207" on="1"/>
        <pt x="70" y="257" on="1"/>
        <pt x="88" y="242" on="0"/>
        <pt x="132" y="229" on="0"/>
        <pt x="156" y="229" on="1"/>
        <pt x="181" y="229" on="0"/>
        <pt x="230" y="246" on="0"/>
        <pt x="279" y="265" on="0"/>
        <pt x="329" y="282" on="0"/>
        <pt x="356" y="282" on="1"/>
        <pt x="407" y="282" on="0"/>
        <pt x="450" y="257" on="1"/>
      </contour>
    </TTGlyph>
    <TTGlyph name="aring" xMin="49" yMin="-15" xMax="385" yMax="721">
      <component glyphName=".ttfautohint" x="49" y="0" flags="0x1000"/>
      <component glyphName="a" x="0" y="0" flags="0x1204"/>
      <component glyphName="ring" x="115" y="0" flags="0x1004"/>
    </TTGlyph>
    <TTGlyph name="asciicircum" xMin="85" yMin="350" xMax="435" yMax="630">
      <contour>
        <pt x="235" y="630" on="1"/>
        <pt x="285" y="630" on="1"/>
        <pt x="435" y="350" on="1"/>
        <pt x="385" y="350" on="1"/>
        <pt x="260" y="582" on="1"/>
        <pt x="135" y="350" on="1"/>
        <pt x="85" y="350" on="1"/>
      </contour>
    </TTGlyph>
    <TTGlyph name="asciitilde" xMin="70" yMin="271" xMax="450" yMax="373">
      <contour>
        <pt x="450" y="298" on="1"/>
        <pt x="408" y="323" on="0"/>
        <pt x="359" y="323" on="1"/>
        <pt x="334" y="323" on="0"/>
        <pt x="286" y="307" on="0"/>
        <pt x="236" y="287" on="0"/>
        <pt x="185" y="271" on="0"/>
        <pt x="157" y="271" on="1"/>
        <pt x="133" y="271" on="0"/>
        <pt x="89" y="283" on="0"/>
        <pt x="70" y="299" on="1"/>
        <pt x="70" y="349" on="1"/>
        <pt x="88" y="334" on="0"/>
        <pt x="132" y="321" on="0"/>
        <pt x="156" y="321" on="1"/>
        <pt x="181" y="321" on="0"/>
        <pt x="230" y="337" on="0"/>
        <pt x="279" y="357" on="0"/>
        <pt x="329" y="373" on="0"/>
        <pt x="356" y="373" on="1"/>
        <pt x="407" y="373" on="0"/>
        <pt x="450" y="348" on="1"/>
        <pt x="450" y="298" on="1"/>
      </contour>
    </TTGlyph>
    <TTGlyph name="asterisk" xMin="70" yMin="294" xMax="466" yMax="750">
      <contour>
        <pt x="268" y="555" on="1"/>
        <pt x="260" y="555" on="0"/>
        <pt x="245" y="594" on="0"/>
        <pt x="235" y="647" on="0"/>
        <pt x="229" y="701" on="0"/>
        <pt x="229" y="716" on="1"/>
        <pt x="229" y="739" on="0"/>
        <pt x="252" y="750" on="0"/>
        <pt x="268" y="750" on="1"/>
        <pt x="284" y="750" on="0"/>
        <pt x="306" y="739" on="0"/>
        <pt x="306" y="716" on="1"/>
        <pt x="306" y="701" on="0"/>
        <pt x="300" y="647" on="0"/>
        <pt x="290" y="594" on="0"/>
        <pt x="276" y="555" on="0"/>
      </contour>
      <contour>
        <pt x="302" y="530" on="1"/>
        <pt x="299" y="530" on="0"/>
        <pt x="289" y="533" on="0"/>
        <pt x="289" y="538" on="1"/>
        <pt x="289" y="546" on="0"/>
        <pt x="318" y="577" on="0"/>
        <pt x="358" y="610" on="0"/>
        <pt x="399" y="640" on="0"/>
        <pt x="411" y="647" on="1"/>
        <pt x="421" y="653" on="0"/>
        <pt x="430" y="653" on="1"/>
        <pt x="444" y="653" on="0"/>
        <pt x="466" y="621" on="0"/>
        <pt x="466" y="607" on="1"/>
        <pt x="466" y="593" on="0"/>
        <pt x="448" y="583" on="1"/>
        <pt x="438" y="577" on="0"/>
        <pt x="398" y="559" on="0"/>
        <pt x="354" y="542" on="0"/>
        <pt x="313" y="530" on="0"/>
      </contour>
      <contour>
        <pt x="234" y="530" on="1"/>
        <pt x="223" y="530" on="0"/>
        <pt x="182" y="542" on="0"/>
        <pt x="138" y="559" on="0"/>
        <pt x="98" y="577" on="0"/>
        <pt x="88" y="583" on="1"/>
        <pt x="70" y="593" on="0"/>
        <pt x="70" y="607" on="1"/>
        <pt x="70" y="621" on="0"/>
        <pt x="92" y="653" on="0"/>
        <pt x="106" y="653" on="1"/>
        <pt x="115" y="653" on="0"/>
        <pt x="125" y="647" on="1"/>
        <pt x="137" y="640" on="0"/>
        <pt x="178" y="610" on="0"/>
        <pt x="218" y="577" on="0"/>
        <pt x="247" y="546" on="0"/>
        <pt x="247" y="538" on="1"/>
        <pt x="247" y="533" on="0"/>
        <pt x="237" y="530" on="0"/>
      </contour>
      <contour>
        <pt x="268" y="489" on="1"/>
        <pt x="276" y="489" on="0"/>
        <pt x="290" y="450" on="0"/>
        <pt x="300" y="397" on="0"/>
        <pt x="306" y="343" on="0"/>
        <pt x="306" y="328" on="1"/>
        <pt x="306" y="305" on="0"/>
        <pt x="284" y="294" on="0"/>
        <pt x="268" y="294" on="1"/>
        <pt x="252" y="294" on="0"/>
        <pt x="229" y="305" on="0"/>
        <pt x="229" y="328" on="1"/>
        <pt x="229" y="343" on="0"/>
        <pt x="235" y="397" on="0"/>
        <pt x="245" y="450" on="0"/>
        <pt x="260" y="489" on="0"/>
      </contour>
      <contour>
        <pt x="302" y="514" on="1"/>
        <pt x="313" y="514" on="0"/>
        <pt x="354" y="502" on="0"/>
        <pt x="398" y="485" on="0"/>
        <pt x="438" y="467" on="0"/>
        <pt x="448" y="461" on="1"/>
        <pt x="466" y="451" on="0"/>
        <pt x="466" y="437" on="1"/>
        <pt x="466" y="423" on="0"/>
        <pt x="444" y="391" on="0"/>
        <pt x="430" y="391" on="1"/>
        <pt x="421" y="391" on="0"/>
        <pt x="411" y="397" on="1"/>
        <pt x="399" y="404" on="0"/>
        <pt x="358" y="434" on="0"/>
        <pt x="318" y="467" on="0"/>
        <pt x="289" y="498" on="0"/>
        <pt x="289" y="506" on="1"/>
        <pt x="289" y="511" on="0"/>
        <pt x="299" y="514" on="0"/>
      </contour>
      <contour>
        <pt x="234" y="514" on="1"/>
        <pt x="237" y="514" on="0"/>
        <pt x="247" y="511" on="0"/>
        <pt x="247" y="506" on="1"/>
        <pt x="247" y="498" on="0"/>
        <pt x="218" y="467" on="0"/>
        <pt x="178" y="434" on="0"/>
        <pt x="137" y="404" on="0"/>
        <pt x="125" y="397" on="1"/>
        <pt x="115" y="391" on="0"/>
        <pt x="106" y="391" on="1"/>
        <pt x="92" y="391" on="0"/>
        <pt x="70" y="423" on="0"/>
        <pt x="70" y="437" on="1"/>
        <pt x="70" y="451" on="0"/>
        <pt x="88" y="461" on="1"/>
        <pt x="98" y="467" on="0"/>
        <pt x="138" y="485" on="0"/>
        <pt x="182" y="502" on="0"/>
        <pt x="223" y="514" on="0"/>
      </contour>
    </TTGlyph>
    <TTGlyph name="at" xMin="80" yMin="-68" xMax="755" yMax="645">
      <contour>
        <pt x="561" y="292" on="1"/>
        <pt x="563" y="276" on="0"/>
        <pt x="565" y="244" on="0"/>
        <pt x="565" y="228" on="1"/>
        <pt x="565" y="182" on="0"/>
        <pt x="541" y="126" on="0"/>
        <pt x="499" y="95" on="0"/>
        <pt x="444" y="85" on="0"/>
        <pt x="413" y="85" on="1"/>
        <pt x="382" y="85" on="0"/>
        <pt x="330" y="94" on="0"/>
        <pt x="291" y="120" on="0"/>
        <pt x="269" y="166" on="0"/>
        <pt x="269" y="203" on="1"/>
        <pt x="269" y="233" on="0"/>
        <pt x="297" y="281" on="0"/>
        <pt x="345" y="313" on="0"/>
        <pt x="408" y="330" on="0"/>
        <pt x="442" y="330" on="1"/>
        <pt x="487" y="330" on="1"/>
        <pt x="482" y="364" on="0"/>
        <pt x="467" y="425" on="0"/>
        <pt x="448" y="471" on="0"/>
        <pt x="425" y="497" on="0"/>
        <pt x="413" y="497" on="1"/>
        <pt x="396" y="497" on="0"/>
        <pt x="368" y="437" on="0"/>
        <pt x="368" y="387" on="1"/>
        <pt x="296" y="404" on="1"/>
        <pt x="306" y="442" on="0"/>
        <pt x="331" y="491" on="0"/>
        <pt x="361" y="520" on="0"/>
        <pt x="395" y="531" on="0"/>
        <pt x="413" y="531" on="1"/>
        <pt x="438" y="531" on="0"/>
        <pt x="482" y="499" on="0"/>
        <pt x="519" y="444" on="0"/>
        <pt x="547" y="371" on="0"/>
        <pt x="555" y="330" on="1"/>
        <pt x="677" y="330" on="1"/>
        <pt x="681" y="355" on="0"/>
        <pt x="684" y="405" on="0"/>
        <pt x="684" y="432" on="1"/>
        <pt x="684" y="490" on="0"/>
        <pt x="641" y="561" on="0"/>
        <pt x="567" y="599" on="0"/>
        <pt x="468" y="611" on="0"/>
        <pt x="413" y="611" on="1"/>
        <pt x="359" y="611" on="0"/>
        <pt x="263" y="599" on="0"/>
        <pt x="192" y="561" on="0"/>
        <pt x="151" y="490" on="0"/>
        <pt x="151" y="432" on="1"/>
        <pt x="151" y="375" on="0"/>
        <pt x="169" y="262" on="0"/>
        <pt x="202" y="158" on="0"/>
        <pt x="249" y="69" on="0"/>
        <pt x="308" y="3" on="0"/>
        <pt x="375" y="-34" on="0"/>
        <pt x="413" y="-34" on="1"/>
        <pt x="461" y="-34" on="0"/>
        <pt x="544" y="24" on="0"/>
        <pt x="579" y="72" on="1"/>
        <pt x="623" y="47" on="1"/>
        <pt x="579" y="-6" on="0"/>
        <pt x="473" y="-68" on="0"/>
        <pt x="413" y="-68" on="1"/>
        <pt x="342" y="-68" on="0"/>
        <pt x="220" y="19" on="0"/>
        <pt x="131" y="161" on="0"/>
        <pt x="80" y="340" on="0"/>
        <pt x="80" y="432" on="1"/>
        <pt x="80" y="501" on="0"/>
        <pt x="132" y="585" on="0"/>
        <pt x="222" y="630" on="0"/>
        <pt x="344" y="645" on="0"/>
        <pt x="413" y="645" on="1"/>
        <pt x="483" y="645" on="0"/>
        <pt x="607" y="630" on="0"/>
        <pt x="700" y="585" on="0"/>
        <pt x="755" y="501" on="0"/>
        <pt x="755" y="432" on="1"/>
        <pt x="755" y="395" on="0"/>
        <pt x="747" y="329" on="0"/>
        <pt x="739" y="293" on="1"/>
      </contour>
      <contour>
        <pt x="494" y="228" on="1"/>
        <pt x="494" y="260" on="0"/>
        <pt x="491" y="292" on="1"/>
        <pt x="465" y="292" on="1"/>
        <pt x="440" y="292" on="0"/>
        <pt x="395" y="282" on="0"/>
        <pt x="360" y="261" on="0"/>
        <pt x="340" y="227" on="0"/>
        <pt x="340" y="203" on="1"/>
        <pt x="340" y="177" on="0"/>
        <pt x="350" y="144" on="0"/>
        <pt x="370" y="125" on="0"/>
        <pt x="396" y="118" on="0"/>
        <pt x="413" y="118" on="1"/>
        <pt x="430" y="118" on="0"/>
        <pt x="459" y="126" on="0"/>
        <pt x="481" y="149" on="0"/>
        <pt x="494" y="192" on="0"/>
      </contour>
    </TTGlyph>
    <TTGlyph name="atilde" xMin="49" yMin="-15" xMax="385" yMax="707">
      <component glyphName=".ttfautohint" x="49" y="0" flags="0x1000"/>
      <component glyphName="a" x="0" y="0" flags="0x1204"/>
      <component glyphName="tilde" x="34" y="0" flags="0x1004"/>
    </TTGlyph>
    <TTGlyph name="b" xMin="70" yMin="-15" xMax="414" yMax="750">
      <contour>
        <pt x="80" y="750" on="1"/>
        <pt x="131" y="750" on="1"/>
        <pt x="137" y="410" on="1"/>
        <pt x="154" y="463" on="0"/>
        <pt x="205" y="528" on="0"/>
        <pt x="242" y="528" on="1"/>
        <pt x="278" y="528" on="0"/>
        <pt x="341" y="464" on="0"/>
        <pt x="388" y="360" on="0"/>
        <pt x="414" y="228" on="0"/>
        <pt x="414" y="160" on="1"/>
        <pt x="414" y="103" on="0"/>
        <pt x="387" y="35" on="0"/>
        <pt x="340" y="-3" on="0"/>
        <pt x="277" y="-15" on="0"/>
        <pt x="242" y="-15" on="1"/>
        <pt x="207" y="-15" on="0"/>
        <pt x="144" y="-3" on="0"/>
        <pt x="97" y="35" on="0"/>
        <pt x="70" y="103" on="0"/>
        <pt x="70" y="160" on="1"/>
      </contour>
      <contour>
        <pt x="242" y="487" on="1"/>
        <pt x="222" y="487" on="0"/>
        <pt x="188" y="431" on="0"/>
        <pt x="161" y="339" on="0"/>
        <pt x="146" y="221" on="0"/>
        <pt x="146" y="160" on="1"/>
        <pt x="146" y="116" on="0"/>
        <pt x="162" y="64" on="0"/>
        <pt x="189" y="35" on="0"/>
        <pt x="223" y="26" on="0"/>
        <pt x="242" y="26" on="1"/>
        <pt x="261" y="26" on="0"/>
        <pt x="294" y="35" on="0"/>
        <pt x="319" y="64" on="0"/>
        <pt x="333" y="116" on="0"/>
        <pt x="333" y="160" on="1"/>
        <pt x="333" y="221" on="0"/>
        <pt x="319" y="339" on="0"/>
        <pt x="295" y="431" on="0"/>
        <pt x="261" y="487" on="0"/>
      </contour>
    </TTGlyph>
    <TTGlyph name="backslash" xMin="-49" yMin="-73" xMax="289" yMax="743">
      <contour>
        <pt x="289" y="-56" on="1"/>
        <pt x="242" y="-73" on="1"/>
        <pt x="-49" y="726" on="1"/>
        <pt x="-2" y="743" on="1"/>
      </contour>
    </TTGlyph>
    <TTGlyph name="bar" xMin="150" yMin="-100" xMax="200" yMax="744">
      <contour>
        <pt x="150" y="744" on="1"/>
        <pt x="200" y="744" on="1"/>
        <pt x="200" y="-100" on="1"/>
        <pt x="150" y="-100" on="1"/>
      </contour>
    </TTGlyph>
    <TTGlyph name="barra" xMin="0" yMin="386" xMax="336" yMax="431">
      <contour>
        <pt x="336" y="431" on="1"/>
        <pt x="336" y="386" on="1"/>
        <pt x="0" y="386" on="1"/>
        <pt x="0" y="431" on="1"/>
      </contour>
    </TTGlyph>
    <TTGlyph name="braceleft" xMin="3" yMin="-100" xMax="220" yMax="744">
      <contour>
        <pt x="3" y="342" on="1"/>
        <pt x="46" y="342" on="0"/>
        <pt x="88" y="373" on="0"/>
        <pt x="88" y="397" on="1"/>
        <pt x="88" y="415" on="0"/>
        <pt x="86" y="458" on="0"/>
        <pt x="83" y="502" on="0"/>
        <pt x="81" y="544" on="0"/>
        <pt x="81" y="560" on="1"/>
        <pt x="81" y="620" on="0"/>
        <pt x="101" y="692" on="0"/>
        <pt x="137" y="731" on="0"/>
        <pt x="188" y="744" on="0"/>
        <pt x="220" y="744" on="1"/>
        <pt x="220" y="704" on="1"/>
        <pt x="202" y="704" on="0"/>
        <pt x="171" y="695" on="0"/>
        <pt x="148" y="666" on="0"/>
        <pt x="134" y="613" on="0"/>
        <pt x="134" y="570" on="1"/>
        <pt x="134" y="538" on="0"/>
        <pt x="141" y="462" on="0"/>
        <pt x="141" y="427" on="1"/>
        <pt x="141" y="345" on="0"/>
        <pt x="73" y="322" on="1"/>
        <pt x="106" y="310" on="0"/>
        <pt x="141" y="259" on="0"/>
        <pt x="141" y="217" on="1"/>
        <pt x="141" y="182" on="0"/>
        <pt x="134" y="106" on="0"/>
        <pt x="134" y="74" on="1"/>
        <pt x="134" y="30" on="0"/>
        <pt x="148" y="-22" on="0"/>
        <pt x="171" y="-51" on="0"/>
        <pt x="202" y="-60" on="0"/>
        <pt x="220" y="-60" on="1"/>
        <pt x="220" y="-100" on="1"/>
        <pt x="188" y="-100" on="0"/>
        <pt x="137" y="-87" on="0"/>
        <pt x="101" y="-48" on="0"/>
        <pt x="81" y="24" on="0"/>
        <pt x="81" y="84" on="1"/>
        <pt x="81" y="100" on="0"/>
        <pt x="83" y="142" on="0"/>
        <pt x="86" y="186" on="0"/>
        <pt x="88" y="229" on="0"/>
        <pt x="88" y="247" on="1"/>
        <pt x="88" y="271" on="0"/>
        <pt x="46" y="302" on="0"/>
        <pt x="3" y="302" on="1"/>
      </contour>
    </TTGlyph>
    <TTGlyph name="braceright" xMin="30" yMin="-100" xMax="247" yMax="744">
      <contour>
        <pt x="247" y="302" on="1"/>
        <pt x="204" y="302" on="0"/>
        <pt x="162" y="271" on="0"/>
        <pt x="162" y="247" on="1"/>
        <pt x="162" y="229" on="0"/>
        <pt x="164" y="186" on="0"/>
        <pt x="167" y="142" on="0"/>
        <pt x="169" y="100" on="0"/>
        <pt x="169" y="84" on="1"/>
        <pt x="169" y="24" on="0"/>
        <pt x="149" y="-48" on="0"/>
        <pt x="113" y="-87" on="0"/>
        <pt x="61" y="-100" on="0"/>
        <pt x="30" y="-100" on="1"/>
        <pt x="30" y="-60" on="1"/>
        <pt x="48" y="-60" on="0"/>
        <pt x="79" y="-51" on="0"/>
        <pt x="102" y="-22" on="0"/>
        <pt x="116" y="30" on="0"/>
        <pt x="116" y="74" on="1"/>
        <pt x="116" y="106" on="0"/>
        <pt x="109" y="182" on="0"/>
        <pt x="109" y="217" on="1"/>
        <pt x="109" y="259" on="0"/>
        <pt x="144" y="310" on="0"/>
        <pt x="177" y="322" on="1"/>
        <pt x="109" y="345" on="0"/>
        <pt x="109" y="427" on="1"/>
        <pt x="109" y="462" on="0"/>
        <pt x="116" y="538" on="0"/>
        <pt x="116" y="570" on="1"/>
        <pt x="116" y="613" on="0"/>
        <pt x="102" y="666" on="0"/>
        <pt x="79" y="695" on="0"/>
        <pt x="48" y="704" on="0"/>
        <pt x="30" y="704" on="1"/>
        <pt x="30" y="744" on="1"/>
        <pt x="61" y="744" on="0"/>
        <pt x="113" y="731" on="0"/>
        <pt x="149" y="692" on="0"/>
        <pt x="169" y="620" on="0"/>
        <pt x="169" y="560" on="1"/>
        <pt x="169" y="544" on="0"/>
        <pt x="167" y="502" on="0"/>
        <pt x="164" y="458" on="0"/>
        <pt x="162" y="415" on="0"/>
        <pt x="162" y="397" on="1"/>
        <pt x="162" y="373" on="0"/>
        <pt x="204" y="342" on="0"/>
        <pt x="247" y="342" on="1"/>
      </contour>
    </TTGlyph>
    <TTGlyph name="bracketleft" xMin="81" yMin="-100" xMax="220" yMax="744">
      <contour>
        <pt x="131" y="-60" on="1"/>
        <pt x="220" y="-60" on="1"/>
        <pt x="220" y="-100" on="1"/>
        <pt x="81" y="-100" on="1"/>
        <pt x="81" y="744" on="1"/>
        <pt x="220" y="744" on="1"/>
        <pt x="220" y="704" on="1"/>
        <pt x="131" y="704" on="1"/>
      </contour>
    </TTGlyph>
    <TTGlyph name="bracketright" xMin="30" yMin="-100" xMax="169" yMax="744">
      <contour>
        <pt x="119" y="704" on="1"/>
        <pt x="30" y="704" on="1"/>
        <pt x="30" y="744" on="1"/>
        <pt x="169" y="744" on="1"/>
        <pt x="169" y="-100" on="1"/>
        <pt x="30" y="-100" on="1"/>
        <pt x="30" y="-60" on="1"/>
        <pt x="119" y="-60" on="1"/>
      </contour>
    </TTGlyph>
    <TTGlyph name="breve" xMin="50" yMin="574" xMax="284" yMax="707">
      <contour>
        <pt x="93" y="707" on="1"/>
        <pt x="97" y="696" on="0"/>
        <pt x="108" y="670" on="0"/>
        <pt x="125" y="648" on="0"/>
        <pt x="149" y="634" on="0"/>
        <pt x="167" y="634" on="1"/>
        <pt x="185" y="634" on="0"/>
        <pt x="209" y="648" on="0"/>
        <pt x="226" y="670" on="0"/>
        <pt x="237" y="696" on="0"/>
        <pt x="241" y="707" on="1"/>
        <pt x="242" y="707" on="0"/>
        <pt x="256" y="706" on="0"/>
        <pt x="272" y="705" on="0"/>
        <pt x="284" y="702" on="0"/>
        <pt x="284" y="699" on="1"/>
        <pt x="284" y="691" on="0"/>
        <pt x="274" y="650" on="0"/>
        <pt x="248" y="607" on="0"/>
        <pt x="202" y="574" on="0"/>
        <pt x="167" y="574" on="1"/>
        <pt x="129" y="574" on="0"/>
        <pt x="83" y="608" on="0"/>
        <pt x="58" y="651" on="0"/>
        <pt x="50" y="692" on="0"/>
        <pt x="50" y="699" on="1"/>
        <pt x="50" y="702" on="0"/>
        <pt x="62" y="705" on="0"/>
        <pt x="78" y="706" on="0"/>
        <pt x="91" y="707" on="0"/>
      </contour>
    </TTGlyph>
    <TTGlyph name="breve.case" xMin="50" yMin="724" xMax="284" yMax="857">
      <contour>
        <pt x="93" y="857" on="1"/>
        <pt x="97" y="846" on="0"/>
        <pt x="108" y="820" on="0"/>
        <pt x="125" y="798" on="0"/>
        <pt x="149" y="784" on="0"/>
        <pt x="167" y="784" on="1"/>
        <pt x="185" y="784" on="0"/>
        <pt x="209" y="798" on="0"/>
        <pt x="226" y="820" on="0"/>
        <pt x="237" y="846" on="0"/>
        <pt x="241" y="857" on="1"/>
        <pt x="242" y="857" on="0"/>
        <pt x="256" y="856" on="0"/>
        <pt x="272" y="855" on="0"/>
        <pt x="284" y="852" on="0"/>
        <pt x="284" y="849" on="1"/>
        <pt x="284" y="841" on="0"/>
        <pt x="274" y="800" on="0"/>
        <pt x="248" y="757" on="0"/>
        <pt x="202" y="724" on="0"/>
        <pt x="167" y="724" on="1"/>
        <pt x="129" y="724" on="0"/>
        <pt x="83" y="758" on="0"/>
        <pt x="58" y="801" on="0"/>
        <pt x="50" y="842" on="0"/>
        <pt x="50" y="849" on="1"/>
        <pt x="50" y="852" on="0"/>
        <pt x="62" y="855" on="0"/>
        <pt x="78" y="856" on="0"/>
        <pt x="91" y="857" on="0"/>
      </contour>
    </TTGlyph>
    <TTGlyph name="brokenbar" xMin="150" yMin="-100" xMax="200" yMax="734">
      <contour>
        <pt x="150" y="734" on="1"/>
        <pt x="200" y="734" on="1"/>
        <pt x="200" y="444" on="1"/>
        <pt x="150" y="444" on="1"/>
      </contour>
      <contour>
        <pt x="150" y="190" on="1"/>
        <pt x="200" y="190" on="1"/>
        <pt x="200" y="-100" on="1"/>
        <pt x="150" y="-100" on="1"/>
      </contour>
    </TTGlyph>
    <TTGlyph name="bullet" xMin="50" yMin="215" xMax="195" yMax="398">
      <contour>
        <pt x="123" y="215" on="1"/>
        <pt x="107" y="215" on="0"/>
        <pt x="80" y="236" on="0"/>
        <pt x="61" y="270" on="0"/>
        <pt x="50" y="313" on="0"/>
        <pt x="50" y="336" on="1"/>
        <pt x="50" y="357" on="0"/>
        <pt x="62" y="381" on="0"/>
        <pt x="82" y="394" on="0"/>
        <pt x="108" y="398" on="0"/>
        <pt x="123" y="398" on="1"/>
        <pt x="138" y="398" on="0"/>
        <pt x="165" y="394" on="0"/>
        <pt x="184" y="381" on="0"/>
        <pt x="195" y="357" on="0"/>
        <pt x="195" y="336" on="1"/>
        <pt x="195" y="313" on="0"/>
        <pt x="184" y="270" on="0"/>
        <pt x="165" y="236" on="0"/>
        <pt x="139" y="215" on="0"/>
      </contour>
    </TTGlyph>
    <TTGlyph name="c" xMin="50" yMin="-15" xMax="384" yMax="531">
      <contour>
        <pt x="303" y="356" on="1"/>
        <pt x="303" y="399" on="0"/>
        <pt x="289" y="452" on="0"/>
        <pt x="266" y="481" on="0"/>
        <pt x="235" y="490" on="0"/>
        <pt x="217" y="490" on="1"/>
        <pt x="199" y="490" on="0"/>
        <pt x="168" y="481" on="0"/>
        <pt x="145" y="452" on="0"/>
        <pt x="131" y="399" on="0"/>
        <pt x="131" y="356" on="1"/>
        <pt x="131" y="295" on="0"/>
        <pt x="144" y="177" on="0"/>
        <pt x="167" y="84" on="0"/>
        <pt x="198" y="27" on="0"/>
        <pt x="216" y="27" on="1"/>
        <pt x="233" y="27" on="0"/>
        <pt x="262" y="96" on="0"/>
        <pt x="273" y="155" on="1"/>
        <pt x="344" y="142" on="1"/>
        <pt x="321" y="70" on="0"/>
        <pt x="250" y="-15" on="0"/>
        <pt x="215" y="-15" on="1"/>
        <pt x="180" y="-15" on="0"/>
        <pt x="120" y="50" on="0"/>
        <pt x="75" y="155" on="0"/>
        <pt x="50" y="288" on="0"/>
        <pt x="50" y="356" on="1"/>
        <pt x="50" y="413" on="0"/>
        <pt x="76" y="481" on="0"/>
        <pt x="121" y="519" on="0"/>
        <pt x="181" y="531" on="0"/>
        <pt x="215" y="531" on="1"/>
        <pt x="249" y="531" on="0"/>
        <pt x="310" y="519" on="0"/>
        <pt x="357" y="486" on="0"/>
        <pt x="384" y="425" on="0"/>
        <pt x="384" y="376" on="1"/>
      </contour>
    </TTGlyph>
    <TTGlyph name="cacute" xMin="50" yMin="-15" xMax="384" yMax="697">
      <component glyphName=".ttfautohint" x="50" y="0" flags="0x1000"/>
      <component glyphName="c" x="0" y="0" flags="0x1204"/>
      <component glyphName="acute" x="-39" y="0" flags="0x1004"/>
    </TTGlyph>
    <TTGlyph name="caron" xMin="50" yMin="574" xMax="284" yMax="707">
      <contour>
        <pt x="63" y="707" on="1"/>
        <pt x="71" y="707" on="0"/>
        <pt x="97" y="696" on="0"/>
        <pt x="126" y="680" on="0"/>
        <pt x="156" y="661" on="0"/>
        <pt x="167" y="654" on="1"/>
        <pt x="178" y="661" on="0"/>
        <pt x="208" y="680" on="0"/>
        <pt x="237" y="696" on="0"/>
        <pt x="263" y="707" on="0"/>
        <pt x="271" y="707" on="1"/>
        <pt x="274" y="707" on="0"/>
        <pt x="284" y="704" on="0"/>
        <pt x="284" y="699" on="1"/>
        <pt x="284" y="691" on="0"/>
        <pt x="259" y="657" on="0"/>
        <pt x="226" y="620" on="0"/>
        <pt x="192" y="587" on="0"/>
        <pt x="183" y="580" on="1"/>
        <pt x="174" y="574" on="0"/>
        <pt x="167" y="574" on="1"/>
        <pt x="161" y="574" on="0"/>
        <pt x="151" y="580" on="1"/>
        <pt x="142" y="587" on="0"/>
        <pt x="108" y="620" on="0"/>
        <pt x="75" y="657" on="0"/>
        <pt x="50" y="691" on="0"/>
        <pt x="50" y="699" on="1"/>
        <pt x="50" y="704" on="0"/>
        <pt x="60" y="707" on="0"/>
      </contour>
    </TTGlyph>
    <TTGlyph name="caron.case" xMin="50" yMin="724" xMax="284" yMax="857">
      <contour>
        <pt x="63" y="857" on="1"/>
        <pt x="71" y="857" on="0"/>
        <pt x="97" y="846" on="0"/>
        <pt x="126" y="830" on="0"/>
        <pt x="156" y="811" on="0"/>
        <pt x="167" y="804" on="1"/>
        <pt x="178" y="811" on="0"/>
        <pt x="208" y="830" on="0"/>
        <pt x="237" y="846" on="0"/>
        <pt x="263" y="857" on="0"/>
        <pt x="271" y="857" on="1"/>
        <pt x="274" y="857" on="0"/>
        <pt x="284" y="854" on="0"/>
        <pt x="284" y="849" on="1"/>
        <pt x="284" y="841" on="0"/>
        <pt x="259" y="807" on="0"/>
        <pt x="226" y="770" on="0"/>
        <pt x="192" y="737" on="0"/>
        <pt x="183" y="730" on="1"/>
        <pt x="174" y="724" on="0"/>
        <pt x="167" y="724" on="1"/>
        <pt x="161" y="724" on="0"/>
        <pt x="151" y="730" on="1"/>
        <pt x="142" y="737" on="0"/>
        <pt x="108" y="770" on="0"/>
        <pt x="75" y="807" on="0"/>
        <pt x="50" y="841" on="0"/>
        <pt x="50" y="849" on="1"/>
        <pt x="50" y="854" on="0"/>
        <pt x="60" y="857" on="0"/>
      </contour>
    </TTGlyph>
    <TTGlyph name="ccaron" xMin="50" yMin="-15" xMax="384" yMax="707">
      <component glyphName=".ttfautohint" x="50" y="0" flags="0x1000"/>
      <component glyphName="c" x="0" y="0" flags="0x1204"/>
      <component glyphName="caron" x="45" y="0" flags="0x1004"/>
    </TTGlyph>
    <TTGlyph name="ccedilla" xMin="50" yMin="-235" xMax="384" yMax="531">
      <component glyphName=".ttfautohint" x="50" y="0" flags="0x1000"/>
      <component glyphName="c" x="0" y="0" flags="0x1204"/>
      <component glyphName="cedilla" x="15" y="0" flags="0x1004"/>
    </TTGlyph>
    <TTGlyph name="ccircumflex" xMin="50" yMin="-15" xMax="384" yMax="707">
      <component glyphName=".ttfautohint" x="50" y="0" flags="0x1000"/>
      <component glyphName="c" x="0" y="0" flags="0x1204"/>
      <component glyphName="circumflex" x="45" y="0" flags="0x1004"/>
    </TTGlyph>
    <TTGlyph name="cdotaccent" xMin="50" yMin="-15" xMax="384" yMax="710">
      <component glyphName=".ttfautohint" x="50" y="0" flags="0x1000"/>
      <component glyphName="c" x="0" y="0" flags="0x1204"/>
      <component glyphName="dotaccent" x="87" y="0" flags="0x1004"/>
    </TTGlyph>
    <TTGlyph name="cedilla" xMin="50" yMin="-235" xMax="276" yMax="23">
      <contour>
        <pt x="184" y="23" on="1"/>
        <pt x="227" y="-18" on="0"/>
        <pt x="276" y="-96" on="0"/>
        <pt x="276" y="-138" on="1"/>
        <pt x="276" y="-183" on="0"/>
        <pt x="219" y="-235" on="0"/>
        <pt x="164" y="-235" on="1"/>
        <pt x="141" y="-235" on="0"/>
        <pt x="99" y="-227" on="0"/>
        <pt x="68" y="-209" on="0"/>
        <pt x="50" y="-178" on="0"/>
        <pt x="50" y="-155" on="1"/>
        <pt x="50" y="-135" on="0"/>
        <pt x="58" y="-113" on="1"/>
        <pt x="113" y="-121" on="1"/>
        <pt x="111" y="-131" on="0"/>
        <pt x="109" y="-148" on="0"/>
        <pt x="109" y="-155" on="1"/>
        <pt x="109" y="-181" on="0"/>
        <pt x="141" y="-200" on="0"/>
        <pt x="164" y="-200" on="1"/>
        <pt x="194" y="-200" on="0"/>
        <pt x="218" y="-164" on="0"/>
        <pt x="218" y="-138" on="1"/>
        <pt x="218" y="-101" on="0"/>
        <pt x="180" y="-29" on="0"/>
        <pt x="148" y="5" on="1"/>
      </contour>
    </TTGlyph>
    <TTGlyph name="cent" xMin="65" yMin="-40" xMax="378" yMax="710">
      <contour>
        <pt x="198" y="86" on="1"/>
        <pt x="169" y="96" on="0"/>
        <pt x="120" y="161" on="0"/>
        <pt x="85" y="254" on="0"/>
        <pt x="65" y="368" on="0"/>
        <pt x="65" y="426" on="1"/>
        <pt x="65" y="475" on="0"/>
        <pt x="85" y="537" on="0"/>
        <pt x="121" y="573" on="0"/>
        <pt x="170" y="588" on="0"/>
        <pt x="198" y="590" on="1"/>
        <pt x="198" y="710" on="1"/>
        <pt x="241" y="710" on="1"/>
        <pt x="241" y="590" on="1"/>
        <pt x="269" y="588" on="0"/>
        <pt x="319" y="574" on="0"/>
        <pt x="357" y="541" on="0"/>
        <pt x="378" y="484" on="0"/>
        <pt x="378" y="441" on="1"/>
        <pt x="297" y="422" on="1"/>
        <pt x="297" y="462" on="0"/>
        <pt x="285" y="511" on="0"/>
        <pt x="264" y="538" on="0"/>
        <pt x="236" y="546" on="0"/>
        <pt x="221" y="546" on="1"/>
        <pt x="206" y="546" on="0"/>
        <pt x="179" y="538" on="0"/>
        <pt x="158" y="512" on="0"/>
        <pt x="146" y="465" on="0"/>
        <pt x="146" y="426" on="1"/>
        <pt x="146" y="370" on="0"/>
        <pt x="158" y="263" on="0"/>
        <pt x="178" y="179" on="0"/>
        <pt x="205" y="127" on="0"/>
        <pt x="221" y="127" on="1"/>
        <pt x="234" y="127" on="0"/>
        <pt x="258" y="191" on="0"/>
        <pt x="269" y="244" on="1"/>
        <pt x="343" y="233" on="1"/>
        <pt x="324" y="174" on="0"/>
        <pt x="269" y="97" on="0"/>
        <pt x="241" y="86" on="1"/>
        <pt x="241" y="-40" on="1"/>
        <pt x="198" y="-40" on="1"/>
      </contour>
    </TTGlyph>
    <TTGlyph name="circumflex" xMin="50" yMin="574" xMax="284" yMax="707">
      <contour>
        <pt x="271" y="574" on="1"/>
        <pt x="263" y="574" on="0"/>
        <pt x="237" y="585" on="0"/>
        <pt x="208" y="601" on="0"/>
        <pt x="178" y="619" on="0"/>
        <pt x="167" y="627" on="1"/>
        <pt x="156" y="619" on="0"/>
        <pt x="126" y="601" on="0"/>
        <pt x="97" y="585" on="0"/>
        <pt x="71" y="574" on="0"/>
        <pt x="63" y="574" on="1"/>
        <pt x="60" y="574" on="0"/>
        <pt x="50" y="577" on="0"/>
        <pt x="50" y="582" on="1"/>
        <pt x="50" y="590" on="0"/>
        <pt x="75" y="624" on="0"/>
        <pt x="108" y="661" on="0"/>
        <pt x="142" y="694" on="0"/>
        <pt x="151" y="701" on="1"/>
        <pt x="160" y="707" on="0"/>
        <pt x="167" y="707" on="1"/>
        <pt x="172" y="707" on="0"/>
        <pt x="183" y="701" on="1"/>
        <pt x="192" y="694" on="0"/>
        <pt x="226" y="661" on="0"/>
        <pt x="259" y="624" on="0"/>
        <pt x="284" y="590" on="0"/>
        <pt x="284" y="582" on="1"/>
        <pt x="284" y="577" on="0"/>
        <pt x="274" y="574" on="0"/>
      </contour>
    </TTGlyph>
    <TTGlyph name="circumflex.case" xMin="50" yMin="724" xMax="284" yMax="857">
      <contour>
        <pt x="271" y="724" on="1"/>
        <pt x="263" y="724" on="0"/>
        <pt x="237" y="735" on="0"/>
        <pt x="208" y="751" on="0"/>
        <pt x="178" y="769" on="0"/>
        <pt x="167" y="777" on="1"/>
        <pt x="156" y="769" on="0"/>
        <pt x="126" y="751" on="0"/>
        <pt x="97" y="735" on="0"/>
        <pt x="71" y="724" on="0"/>
        <pt x="63" y="724" on="1"/>
        <pt x="60" y="724" on="0"/>
        <pt x="50" y="727" on="0"/>
        <pt x="50" y="732" on="1"/>
        <pt x="50" y="740" on="0"/>
        <pt x="75" y="774" on="0"/>
        <pt x="108" y="811" on="0"/>
        <pt x="142" y="844" on="0"/>
        <pt x="151" y="851" on="1"/>
        <pt x="160" y="857" on="0"/>
        <pt x="167" y="857" on="1"/>
        <pt x="172" y="857" on="0"/>
        <pt x="183" y="851" on="1"/>
        <pt x="192" y="844" on="0"/>
        <pt x="226" y="811" on="0"/>
        <pt x="259" y="774" on="0"/>
        <pt x="284" y="740" on="0"/>
        <pt x="284" y="732" on="1"/>
        <pt x="284" y="727" on="0"/>
        <pt x="274" y="724" on="0"/>
      </contour>
    </TTGlyph>
    <TTGlyph name="colon" xMin="50" yMin="-15" xMax="155" yMax="478">
      <component glyphName=".ttfautohint" x="50" y="0" flags="0x1000"/>
      <component glyphName="period" x="0" y="0" flags="0x1204"/>
      <component glyphName="period" x="0" y="350" flags="0x1004"/>
    </TTGlyph>
    <TTGlyph name="comma" xMin="32" yMin="-116" xMax="155" yMax="128">
      <contour>
        <pt x="32" y="-89" on="1"/>
        <pt x="52" y="-72" on="0"/>
        <pt x="82" y="-20" on="0"/>
        <pt x="82" y="6" on="1"/>
        <pt x="68" y="16" on="0"/>
        <pt x="50" y="57" on="0"/>
        <pt x="50" y="86" on="1"/>
        <pt x="50" y="114" on="0"/>
        <pt x="81" y="128" on="0"/>
        <pt x="103" y="128" on="1"/>
        <pt x="125" y="128" on="0"/>
        <pt x="155" y="114" on="0"/>
        <pt x="155" y="86" on="1"/>
        <pt x="155" y="45" on="0"/>
        <pt x="135" y="-21" on="0"/>
        <pt x="105" y="-71" on="0"/>
        <pt x="70" y="-106" on="0"/>
        <pt x="55" y="-116" on="1"/>
        <pt x="32" y="-89" on="1"/>
      </contour>
    </TTGlyph>
    <TTGlyph name="commaaccent" xMin="88" yMin="-269" xMax="211" yMax="-45">
      <contour>
        <pt x="88" y="-242" on="1"/>
        <pt x="108" y="-225" on="0"/>
        <pt x="138" y="-173" on="0"/>
        <pt x="138" y="-147" on="1"/>
        <pt x="124" y="-139" on="0"/>
        <pt x="106" y="-104" on="0"/>
        <pt x="106" y="-80" on="1"/>
        <pt x="106" y="-57" on="0"/>
        <pt x="137" y="-45" on="0"/>
        <pt x="159" y="-45" on="1"/>
        <pt x="181" y="-45" on="0"/>
        <pt x="211" y="-57" on="0"/>
        <pt x="211" y="-80" on="1"/>
        <pt x="211" y="-116" on="0"/>
        <pt x="191" y="-176" on="0"/>
        <pt x="161" y="-224" on="0"/>
        <pt x="126" y="-259" on="0"/>
        <pt x="111" y="-269" on="1"/>
        <pt x="88" y="-242" on="1"/>
      </contour>
    </TTGlyph>
    <TTGlyph name="copyright" xMin="80" yMin="132" xMax="755" yMax="765">
      <contour>
        <pt x="478" y="525" on="1"/>
        <pt x="478" y="560" on="0"/>
        <pt x="468" y="602" on="0"/>
        <pt x="450" y="625" on="0"/>
        <pt x="426" y="632" on="0"/>
        <pt x="413" y="632" on="1"/>
        <pt x="400" y="632" on="0"/>
        <pt x="376" y="625" on="0"/>
        <pt x="358" y="603" on="0"/>
        <pt x="348" y="562" on="0"/>
        <pt x="348" y="529" on="1"/>
        <pt x="348" y="481" on="0"/>
        <pt x="358" y="388" on="0"/>
        <pt x="375" y="316" on="0"/>
        <pt x="399" y="271" on="0"/>
        <pt x="413" y="271" on="1"/>
        <pt x="424" y="271" on="0"/>
        <pt x="445" y="326" on="0"/>
        <pt x="454" y="372" on="1"/>
        <pt x="518" y="362" on="1"/>
        <pt x="498" y="302" on="0"/>
        <pt x="440" y="232" on="0"/>
        <pt x="412" y="232" on="1"/>
        <pt x="383" y="232" on="0"/>
        <pt x="334" y="284" on="0"/>
        <pt x="298" y="368" on="0"/>
        <pt x="278" y="474" on="0"/>
        <pt x="278" y="529" on="1"/>
        <pt x="278" y="575" on="0"/>
        <pt x="299" y="631" on="0"/>
        <pt x="335" y="661" on="0"/>
        <pt x="384" y="671" on="0"/>
        <pt x="412" y="671" on="1"/>
        <pt x="440" y="671" on="0"/>
        <pt x="489" y="661" on="0"/>
        <pt x="526" y="633" on="0"/>
        <pt x="548" y="583" on="0"/>
        <pt x="548" y="542" on="1"/>
      </contour>
      <contour>
        <pt x="413" y="132" on="1"/>
        <pt x="342" y="132" on="0"/>
        <pt x="220" y="209" on="0"/>
        <pt x="131" y="335" on="0"/>
        <pt x="80" y="494" on="0"/>
        <pt x="80" y="576" on="1"/>
        <pt x="80" y="637" on="0"/>
        <pt x="132" y="712" on="0"/>
        <pt x="222" y="752" on="0"/>
        <pt x="344" y="765" on="0"/>
        <pt x="413" y="765" on="1"/>
        <pt x="483" y="765" on="0"/>
        <pt x="607" y="752" on="0"/>
        <pt x="700" y="712" on="0"/>
        <pt x="755" y="637" on="0"/>
        <pt x="755" y="576" on="1"/>
        <pt x="755" y="494" on="0"/>
        <pt x="702" y="335" on="0"/>
        <pt x="609" y="209" on="0"/>
        <pt x="484" y="132" on="0"/>
      </contour>
      <contour>
        <pt x="413" y="166" on="1"/>
        <pt x="470" y="166" on="0"/>
        <pt x="568" y="237" on="0"/>
        <pt x="642" y="353" on="0"/>
        <pt x="684" y="499" on="0"/>
        <pt x="684" y="574" on="1"/>
        <pt x="684" y="625" on="0"/>
        <pt x="641" y="687" on="0"/>
        <pt x="567" y="720" on="0"/>
        <pt x="468" y="731" on="0"/>
        <pt x="413" y="731" on="1"/>
        <pt x="359" y="731" on="0"/>
        <pt x="263" y="720" on="0"/>
        <pt x="192" y="687" on="0"/>
        <pt x="151" y="625" on="0"/>
        <pt x="151" y="574" on="1"/>
        <pt x="151" y="499" on="0"/>
        <pt x="191" y="353" on="0"/>
        <pt x="261" y="237" on="0"/>
        <pt x="357" y="166" on="0"/>
      </contour>
    </TTGlyph>
    <TTGlyph name="currency" xMin="23" yMin="95" xMax="497" yMax="569">
      <contour>
        <pt x="445" y="332" on="1"/>
        <pt x="445" y="297" on="0"/>
        <pt x="428" y="237" on="0"/>
        <pt x="413" y="213" on="1"/>
        <pt x="497" y="130" on="1"/>
        <pt x="462" y="95" on="1"/>
        <pt x="382" y="175" on="1"/>
        <pt x="330" y="128" on="0"/>
        <pt x="260" y="128" on="1"/>
        <pt x="225" y="128" on="0"/>
        <pt x="163" y="152" on="0"/>
        <pt x="138" y="175" on="1"/>
        <pt x="58" y="95" on="1"/>
        <pt x="23" y="130" on="1"/>
        <pt x="107" y="214" on="1"/>
        <pt x="76" y="262" on="0"/>
        <pt x="76" y="332" on="1"/>
        <pt x="76" y="400" on="0"/>
        <pt x="107" y="450" on="1"/>
        <pt x="23" y="534" on="1"/>
        <pt x="58" y="569" on="1"/>
        <pt x="138" y="488" on="1"/>
        <pt x="191" y="536" on="0"/>
        <pt x="260" y="536" on="1"/>
        <pt x="294" y="536" on="0"/>
        <pt x="357" y="512" on="0"/>
        <pt x="382" y="489" on="1"/>
        <pt x="462" y="569" on="1"/>
        <pt x="497" y="534" on="1"/>
        <pt x="414" y="451" on="1"/>
        <pt x="428" y="427" on="0"/>
        <pt x="445" y="367" on="0"/>
      </contour>
      <contour>
        <pt x="153" y="368" on="1"/>
        <pt x="153" y="342" on="0"/>
        <pt x="164" y="273" on="0"/>
        <pt x="191" y="211" on="0"/>
        <pt x="236" y="169" on="0"/>
        <pt x="269" y="169" on="1"/>
        <pt x="318" y="169" on="0"/>
        <pt x="369" y="239" on="0"/>
        <pt x="369" y="297" on="1"/>
        <pt x="369" y="343" on="0"/>
        <pt x="350" y="416" on="0"/>
        <pt x="318" y="467" on="0"/>
        <pt x="275" y="495" on="0"/>
        <pt x="251" y="495" on="1"/>
        <pt x="202" y="495" on="0"/>
        <pt x="153" y="425" on="0"/>
      </contour>
    </TTGlyph>
    <TTGlyph name="d" xMin="50" yMin="-15" xMax="394" yMax="750">
      <contour>
        <pt x="384" y="750" on="1"/>
        <pt x="386" y="602" on="0"/>
        <pt x="390" y="398" on="0"/>
        <pt x="392" y="266" on="0"/>
        <pt x="393" y="194" on="0"/>
        <pt x="394" y="160" on="0"/>
        <pt x="394" y="153" on="0"/>
        <pt x="394" y="152" on="1"/>
        <pt x="394" y="98" on="0"/>
        <pt x="366" y="32" on="0"/>
        <pt x="319" y="-3" on="0"/>
        <pt x="256" y="-15" on="0"/>
        <pt x="222" y="-15" on="1"/>
        <pt x="187" y="-15" on="0"/>
        <pt x="124" y="-3" on="0"/>
        <pt x="77" y="35" on="0"/>
        <pt x="50" y="103" on="0"/>
        <pt x="50" y="160" on="1"/>
        <pt x="50" y="228" on="0"/>
        <pt x="76" y="360" on="0"/>
        <pt x="123" y="464" on="0"/>
        <pt x="186" y="528" on="0"/>
        <pt x="222" y="528" on="1"/>
        <pt x="259" y="528" on="0"/>
        <pt x="310" y="463" on="0"/>
        <pt x="327" y="410" on="1"/>
        <pt x="333" y="750" on="1"/>
      </contour>
      <contour>
        <pt x="222" y="487" on="1"/>
        <pt x="202" y="487" on="0"/>
        <pt x="169" y="431" on="0"/>
        <pt x="145" y="339" on="0"/>
        <pt x="131" y="221" on="0"/>
        <pt x="131" y="160" on="1"/>
        <pt x="131" y="116" on="0"/>
        <pt x="145" y="64" on="0"/>
        <pt x="170" y="35" on="0"/>
        <pt x="203" y="26" on="0"/>
        <pt x="222" y="26" on="1"/>
        <pt x="241" y="26" on="0"/>
        <pt x="275" y="35" on="0"/>
        <pt x="302" y="64" on="0"/>
        <pt x="318" y="116" on="0"/>
        <pt x="318" y="160" on="1"/>
        <pt x="318" y="221" on="0"/>
        <pt x="303" y="339" on="0"/>
        <pt x="276" y="431" on="0"/>
        <pt x="241" y="487" on="0"/>
      </contour>
    </TTGlyph>
    <TTGlyph name="dagger" xMin="50" yMin="-100" xMax="388" yMax="670">
      <contour>
        <pt x="50" y="516" on="1"/>
        <pt x="182" y="516" on="1"/>
        <pt x="180" y="670" on="1"/>
        <pt x="258" y="670" on="1"/>
        <pt x="255" y="516" on="1"/>
        <pt x="388" y="516" on="1"/>
        <pt x="388" y="466" on="1"/>
        <pt x="255" y="466" on="1"/>
        <pt x="247" y="-100" on="1"/>
        <pt x="191" y="-100" on="1"/>
        <pt x="182" y="466" on="1"/>
        <pt x="50" y="466" on="1"/>
      </contour>
    </TTGlyph>
    <TTGlyph name="daggerdbl" xMin="50" yMin="-100" xMax="388" yMax="670">
      <contour>
        <pt x="50" y="516" on="1"/>
        <pt x="184" y="516" on="1"/>
        <pt x="180" y="670" on="1"/>
        <pt x="258" y="670" on="1"/>
        <pt x="253" y="516" on="1"/>
        <pt x="388" y="516" on="1"/>
        <pt x="388" y="466" on="1"/>
        <pt x="252" y="466" on="1"/>
        <pt x="247" y="285" on="1"/>
        <pt x="252" y="104" on="1"/>
        <pt x="388" y="104" on="1"/>
        <pt x="388" y="54" on="1"/>
        <pt x="253" y="54" on="1"/>
        <pt x="258" y="-100" on="1"/>
        <pt x="180" y="-100" on="1"/>
        <pt x="184" y="54" on="1"/>
        <pt x="50" y="54" on="1"/>
        <pt x="50" y="104" on="1"/>
        <pt x="186" y="104" on="1"/>
        <pt x="191" y="285" on="1"/>
        <pt x="186" y="466" on="1"/>
        <pt x="50" y="466" on="1"/>
      </contour>
    </TTGlyph>
    <TTGlyph name="dcaron" xMin="50" yMin="-15" xMax="536" yMax="750">
      <component glyphName=".ttfautohint" x="50" y="0" flags="0x1000"/>
      <component glyphName="d" x="0" y="0" flags="0x1004"/>
      <component glyphName="quoteright" x="363" y="0" flags="0x1004"/>
    </TTGlyph>
    <TTGlyph name="dcroat" xMin="50" yMin="-15" xMax="493" yMax="750">
      <component glyphName=".ttfautohint" x="50" y="0" flags="0x1000"/>
      <component glyphName="d" x="0" y="0" flags="0x1204"/>
      <component glyphName="barra" x="224" y="239" scalex="0.799987792969" scaley="1.0" flags="0x1004"/>
    </TTGlyph>
    <TTGlyph name="degree" xMin="60" yMin="391" xMax="270" yMax="645">
      <contour>
        <pt x="165" y="422" on="1"/>
        <pt x="176" y="422" on="0"/>
        <pt x="195" y="446" on="0"/>
        <pt x="209" y="485" on="0"/>
        <pt x="217" y="534" on="0"/>
        <pt x="217" y="560" on="1"/>
        <pt x="217" y="595" on="0"/>
        <pt x="186" y="615" on="0"/>
        <pt x="165" y="615" on="1"/>
        <pt x="145" y="615" on="0"/>
        <pt x="115" y="595" on="0"/>
        <pt x="115" y="560" on="1"/>
        <pt x="115" y="534" on="0"/>
        <pt x="123" y="485" on="0"/>
        <pt x="136" y="446" on="0"/>
        <pt x="154" y="422" on="0"/>
      </contour>
      <contour>
        <pt x="165" y="391" on="1"/>
        <pt x="143" y="391" on="0"/>
        <pt x="105" y="421" on="0"/>
        <pt x="76" y="470" on="0"/>
        <pt x="60" y="531" on="0"/>
        <pt x="60" y="563" on="1"/>
        <pt x="60" y="589" on="0"/>
        <pt x="77" y="621" on="0"/>
        <pt x="105" y="639" on="0"/>
        <pt x="144" y="645" on="0"/>
        <pt x="165" y="645" on="1"/>
        <pt x="187" y="645" on="0"/>
        <pt x="225" y="639" on="0"/>
        <pt x="254" y="621" on="0"/>
        <pt x="270" y="589" on="0"/>
        <pt x="270" y="563" on="1"/>
        <pt x="270" y="531" on="0"/>
        <pt x="254" y="470" on="0"/>
        <pt x="226" y="421" on="0"/>
        <pt x="187" y="391" on="0"/>
      </contour>
    </TTGlyph>
    <TTGlyph name="dieresis" xMin="50" yMin="588" xMax="289" yMax="707">
      <contour>
        <pt x="94" y="588" on="1"/>
        <pt x="85" y="588" on="0"/>
        <pt x="69" y="603" on="0"/>
        <pt x="57" y="627" on="0"/>
        <pt x="50" y="657" on="0"/>
        <pt x="50" y="672" on="1"/>
        <pt x="50" y="695" on="0"/>
        <pt x="76" y="707" on="0"/>
        <pt x="94" y="707" on="1"/>
        <pt x="112" y="707" on="0"/>
        <pt x="137" y="695" on="0"/>
        <pt x="137" y="672" on="1"/>
        <pt x="137" y="657" on="0"/>
        <pt x="131" y="627" on="0"/>
        <pt x="119" y="603" on="0"/>
        <pt x="103" y="588" on="0"/>
      </contour>
      <contour>
        <pt x="246" y="588" on="1"/>
        <pt x="237" y="588" on="0"/>
        <pt x="221" y="603" on="0"/>
        <pt x="209" y="627" on="0"/>
        <pt x="202" y="657" on="0"/>
        <pt x="202" y="672" on="1"/>
        <pt x="202" y="695" on="0"/>
        <pt x="228" y="707" on="0"/>
        <pt x="246" y="707" on="1"/>
        <pt x="264" y="707" on="0"/>
        <pt x="289" y="695" on="0"/>
        <pt x="289" y="672" on="1"/>
        <pt x="289" y="657" on="0"/>
        <pt x="283" y="627" on="0"/>
        <pt x="271" y="603" on="0"/>
        <pt x="255" y="588" on="0"/>
      </contour>
    </TTGlyph>
    <TTGlyph name="dieresis.case" xMin="50" yMin="738" xMax="289" yMax="857">
      <contour>
        <pt x="94" y="738" on="1"/>
        <pt x="85" y="738" on="0"/>
        <pt x="69" y="753" on="0"/>
        <pt x="57" y="777" on="0"/>
        <pt x="50" y="807" on="0"/>
        <pt x="50" y="822" on="1"/>
        <pt x="50" y="845" on="0"/>
        <pt x="76" y="857" on="0"/>
        <pt x="94" y="857" on="1"/>
        <pt x="112" y="857" on="0"/>
        <pt x="137" y="845" on="0"/>
        <pt x="137" y="822" on="1"/>
        <pt x="137" y="807" on="0"/>
        <pt x="131" y="777" on="0"/>
        <pt x="119" y="753" on="0"/>
        <pt x="103" y="738" on="0"/>
      </contour>
      <contour>
        <pt x="246" y="738" on="1"/>
        <pt x="237" y="738" on="0"/>
        <pt x="221" y="753" on="0"/>
        <pt x="209" y="777" on="0"/>
        <pt x="202" y="807" on="0"/>
        <pt x="202" y="822" on="1"/>
        <pt x="202" y="845" on="0"/>
        <pt x="228" y="857" on="0"/>
        <pt x="246" y="857" on="1"/>
        <pt x="264" y="857" on="0"/>
        <pt x="289" y="845" on="0"/>
        <pt x="289" y="822" on="1"/>
        <pt x="289" y="807" on="0"/>
        <pt x="283" y="777" on="0"/>
        <pt x="271" y="753" on="0"/>
        <pt x="255" y="738" on="0"/>
      </contour>
    </TTGlyph>
    <TTGlyph name="divide" xMin="70" yMin="113" xMax="450" yMax="531">
      <contour>
        <pt x="209" y="479" on="1"/>
        <pt x="209" y="501" on="0"/>
        <pt x="239" y="531" on="0"/>
        <pt x="261" y="531" on="1"/>
        <pt x="283" y="531" on="0"/>
        <pt x="313" y="501" on="0"/>
        <pt x="313" y="479" on="1"/>
        <pt x="313" y="457" on="0"/>
        <pt x="283" y="427" on="0"/>
        <pt x="261" y="427" on="1"/>
        <pt x="239" y="427" on="0"/>
        <pt x="209" y="457" on="0"/>
      </contour>
      <contour>
        <pt x="209" y="165" on="1"/>
        <pt x="209" y="187" on="0"/>
        <pt x="239" y="217" on="0"/>
        <pt x="261" y="217" on="1"/>
        <pt x="283" y="217" on="0"/>
        <pt x="313" y="187" on="0"/>
        <pt x="313" y="165" on="1"/>
        <pt x="313" y="143" on="0"/>
        <pt x="283" y="113" on="0"/>
        <pt x="261" y="113" on="1"/>
        <pt x="239" y="113" on="0"/>
        <pt x="209" y="143" on="0"/>
      </contour>
      <contour>
        <pt x="70" y="297" on="1"/>
        <pt x="70" y="347" on="1"/>
        <pt x="450" y="347" on="1"/>
        <pt x="450" y="297" on="1"/>
      </contour>
    </TTGlyph>
    <TTGlyph name="dollar" xMin="75" yMin="-100" xMax="446" yMax="744">
      <contour>
        <pt x="237" y="-14" on="1"/>
        <pt x="204" y="-11" on="0"/>
        <pt x="147" y="13" on="0"/>
        <pt x="104" y="57" on="0"/>
        <pt x="77" y="124" on="0"/>
        <pt x="75" y="171" on="1"/>
        <pt x="156" y="190" on="1"/>
        <pt x="157" y="146" on="0"/>
        <pt x="170" y="87" on="0"/>
        <pt x="192" y="50" on="0"/>
        <pt x="220" y="30" on="0"/>
        <pt x="237" y="27" on="1"/>
        <pt x="237" y="296" on="1"/>
        <pt x="210" y="313" on="0"/>
        <pt x="156" y="349" on="0"/>
        <pt x="114" y="392" on="0"/>
        <pt x="88" y="448" on="0"/>
        <pt x="88" y="484" on="1"/>
        <pt x="88" y="561" on="0"/>
        <pt x="168" y="639" on="0"/>
        <pt x="237" y="644" on="1"/>
        <pt x="237" y="744" on="1"/>
        <pt x="280" y="744" on="1"/>
        <pt x="280" y="644" on="1"/>
        <pt x="311" y="641" on="0"/>
        <pt x="367" y="620" on="0"/>
        <pt x="410" y="576" on="0"/>
        <pt x="439" y="507" on="0"/>
        <pt x="442" y="457" on="1"/>
        <pt x="367" y="440" on="1"/>
        <pt x="366" y="483" on="0"/>
        <pt x="351" y="543" on="0"/>
        <pt x="327" y="580" on="0"/>
        <pt x="296" y="600" on="0"/>
        <pt x="280" y="603" on="1"/>
        <pt x="280" y="358" on="1"/>
        <pt x="309" y="341" on="0"/>
        <pt x="368" y="303" on="0"/>
        <pt x="416" y="255" on="0"/>
        <pt x="446" y="193" on="0"/>
        <pt x="446" y="152" on="1"/>
        <pt x="446" y="-5" on="0"/>
        <pt x="280" y="-14" on="1"/>
        <pt x="280" y="-100" on="1"/>
        <pt x="237" y="-100" on="1"/>
      </contour>
      <contour>
        <pt x="363" y="146" on="1"/>
        <pt x="363" y="187" on="0"/>
        <pt x="314" y="245" on="0"/>
        <pt x="280" y="269" on="1"/>
        <pt x="280" y="26" on="1"/>
        <pt x="322" y="33" on="0"/>
        <pt x="363" y="99" on="0"/>
      </contour>
      <contour>
        <pt x="167" y="494" on="1"/>
        <pt x="167" y="459" on="0"/>
        <pt x="207" y="408" on="0"/>
        <pt x="237" y="386" on="1"/>
        <pt x="237" y="603" on="1"/>
        <pt x="197" y="595" on="0"/>
        <pt x="167" y="533" on="0"/>
      </contour>
    </TTGlyph>
    <TTGlyph name="dotaccent" xMin="80" yMin="585" xMax="171" yMax="710">
      <contour>
        <pt x="126" y="585" on="1"/>
        <pt x="116" y="585" on="0"/>
        <pt x="99" y="600" on="0"/>
        <pt x="87" y="625" on="0"/>
        <pt x="80" y="657" on="0"/>
        <pt x="80" y="673" on="1"/>
        <pt x="80" y="697" on="0"/>
        <pt x="107" y="710" on="0"/>
        <pt x="126" y="710" on="1"/>
        <pt x="145" y="710" on="0"/>
        <pt x="171" y="697" on="0"/>
        <pt x="171" y="673" on="1"/>
        <pt x="171" y="657" on="0"/>
        <pt x="164" y="625" on="0"/>
        <pt x="152" y="600" on="0"/>
        <pt x="136" y="585" on="0"/>
      </contour>
    </TTGlyph>
    <TTGlyph name="dotaccent.case" xMin="80" yMin="735" xMax="171" yMax="860">
      <contour>
        <pt x="126" y="735" on="1"/>
        <pt x="116" y="735" on="0"/>
        <pt x="99" y="750" on="0"/>
        <pt x="87" y="775" on="0"/>
        <pt x="80" y="807" on="0"/>
        <pt x="80" y="823" on="1"/>
        <pt x="80" y="847" on="0"/>
        <pt x="107" y="860" on="0"/>
        <pt x="126" y="860" on="1"/>
        <pt x="145" y="860" on="0"/>
        <pt x="171" y="847" on="0"/>
        <pt x="171" y="823" on="1"/>
        <pt x="171" y="807" on="0"/>
        <pt x="164" y="775" on="0"/>
        <pt x="152" y="750" on="0"/>
        <pt x="136" y="735" on="0"/>
      </contour>
    </TTGlyph>
    <TTGlyph name="dotlessi" xMin="88" yMin="0" xMax="166" yMax="516">
      <contour>
        <pt x="88" y="516" on="1"/>
        <pt x="166" y="516" on="1"/>
        <pt x="155" y="0" on="1"/>
        <pt x="99" y="0" on="1"/>
      </contour>
    </TTGlyph>
    <TTGlyph name="e" xMin="65" yMin="-15" xMax="407" yMax="531">
      <contour>
        <pt x="407" y="386" on="1"/>
        <pt x="407" y="356" on="0"/>
        <pt x="386" y="299" on="0"/>
        <pt x="343" y="253" on="0"/>
        <pt x="277" y="225" on="0"/>
        <pt x="232" y="225" on="1"/>
        <pt x="214" y="225" on="0"/>
        <pt x="174" y="230" on="0"/>
        <pt x="153" y="235" on="1"/>
        <pt x="158" y="192" on="0"/>
        <pt x="175" y="116" on="0"/>
        <pt x="197" y="60" on="0"/>
        <pt x="223" y="27" on="0"/>
        <pt x="237" y="27" on="1"/>
        <pt x="255" y="27" on="0"/>
        <pt x="286" y="96" on="0"/>
        <pt x="298" y="155" on="1"/>
        <pt x="369" y="142" on="1"/>
        <pt x="346" y="70" on="0"/>
        <pt x="273" y="-15" on="0"/>
        <pt x="237" y="-15" on="1"/>
        <pt x="201" y="-15" on="0"/>
        <pt x="138" y="50" on="0"/>
        <pt x="91" y="155" on="0"/>
        <pt x="65" y="288" on="0"/>
        <pt x="65" y="356" on="1"/>
        <pt x="65" y="413" on="0"/>
        <pt x="92" y="481" on="0"/>
        <pt x="139" y="519" on="0"/>
        <pt x="202" y="531" on="0"/>
        <pt x="237" y="531" on="1"/>
        <pt x="272" y="531" on="0"/>
        <pt x="334" y="517" on="0"/>
        <pt x="380" y="483" on="0"/>
        <pt x="407" y="428" on="0"/>
      </contour>
      <contour>
        <pt x="146" y="356" on="1"/>
        <pt x="146" y="315" on="0"/>
        <pt x="149" y="278" on="1"/>
        <pt x="166" y="275" on="0"/>
        <pt x="196" y="273" on="0"/>
        <pt x="210" y="273" on="1"/>
        <pt x="245" y="273" on="0"/>
        <pt x="291" y="290" on="0"/>
        <pt x="317" y="320" on="0"/>
        <pt x="327" y="362" on="0"/>
        <pt x="327" y="386" on="1"/>
        <pt x="327" y="443" on="0"/>
        <pt x="275" y="490" on="0"/>
        <pt x="237" y="490" on="1"/>
        <pt x="218" y="490" on="0"/>
        <pt x="185" y="481" on="0"/>
        <pt x="160" y="452" on="0"/>
        <pt x="146" y="399" on="0"/>
      </contour>
    </TTGlyph>
    <TTGlyph name="eacute" xMin="65" yMin="-15" xMax="407" yMax="697">
      <component glyphName=".ttfautohint" x="65" y="0" flags="0x1000"/>
      <component glyphName="e" x="0" y="0" flags="0x1204"/>
      <component glyphName="acute" x="-12" y="0" flags="0x1004"/>
    </TTGlyph>
    <TTGlyph name="ebreve" xMin="65" yMin="-15" xMax="407" yMax="707">
      <component glyphName=".ttfautohint" x="65" y="0" flags="0x1000"/>
      <component glyphName="e" x="0" y="0" flags="0x1204"/>
      <component glyphName="breve" x="69" y="0" flags="0x1004"/>
    </TTGlyph>
    <TTGlyph name="ecaron" xMin="65" yMin="-15" xMax="407" yMax="707">
      <component glyphName=".ttfautohint" x="65" y="0" flags="0x1000"/>
      <component glyphName="e" x="0" y="0" flags="0x1204"/>
      <component glyphName="caron" x="69" y="0" flags="0x1004"/>
    </TTGlyph>
    <TTGlyph name="ecircumflex" xMin="65" yMin="-15" xMax="407" yMax="707">
      <component glyphName=".ttfautohint" x="65" y="0" flags="0x1000"/>
      <component glyphName="e" x="0" y="0" flags="0x1204"/>
      <component glyphName="circumflex" x="69" y="0" flags="0x1004"/>
    </TTGlyph>
    <TTGlyph name="edieresis" xMin="65" yMin="-15" xMax="407" yMax="707">
      <component glyphName=".ttfautohint" x="65" y="0" flags="0x1000"/>
      <component glyphName="e" x="0" y="0" flags="0x1204"/>
      <component glyphName="dieresis" x="66" y="0" flags="0x1004"/>
    </TTGlyph>
    <TTGlyph name="edotaccent" xMin="65" yMin="-15" xMax="407" yMax="710">
      <component glyphName=".ttfautohint" x="65" y="0" flags="0x1000"/>
      <component glyphName="e" x="0" y="0" flags="0x1204"/>
      <component glyphName="dotaccent" x="110" y="0" flags="0x1004"/>
    </TTGlyph>
    <TTGlyph name="egrave" xMin="65" yMin="-15" xMax="407" yMax="697">
      <component glyphName=".ttfautohint" x="65" y="0" flags="0x1000"/>
      <component glyphName="e" x="0" y="0" flags="0x1204"/>
      <component glyphName="grave" x="97" y="0" flags="0x1004"/>
    </TTGlyph>
    <TTGlyph name="eight" xMin="63" yMin="-15" xMax="457" yMax="645">
      <contour>
        <pt x="63" y="122" on="1"/>
        <pt x="63" y="154" on="0"/>
        <pt x="85" y="216" on="0"/>
        <pt x="122" y="269" on="0"/>
        <pt x="170" y="312" on="0"/>
        <pt x="196" y="324" on="1"/>
        <pt x="172" y="337" on="0"/>
        <pt x="130" y="380" on="0"/>
        <pt x="97" y="431" on="0"/>
        <pt x="78" y="489" on="0"/>
        <pt x="78" y="519" on="1"/>
        <pt x="78" y="555" on="0"/>
        <pt x="107" y="603" on="0"/>
        <pt x="157" y="633" on="0"/>
        <pt x="223" y="645" on="0"/>
        <pt x="260" y="645" on="1"/>
        <pt x="297" y="645" on="0"/>
        <pt x="363" y="633" on="0"/>
        <pt x="413" y="603" on="0"/>
        <pt x="442" y="555" on="0"/>
        <pt x="442" y="519" on="1"/>
        <pt x="442" y="489" on="0"/>
        <pt x="423" y="431" on="0"/>
        <pt x="390" y="380" on="0"/>
        <pt x="347" y="337" on="0"/>
        <pt x="323" y="324" on="1"/>
        <pt x="350" y="312" on="0"/>
        <pt x="398" y="269" on="0"/>
        <pt x="435" y="216" on="0"/>
        <pt x="457" y="154" on="0"/>
        <pt x="457" y="122" on="1"/>
        <pt x="457" y="84" on="0"/>
        <pt x="426" y="32" on="0"/>
        <pt x="372" y="0" on="0"/>
        <pt x="300" y="-15" on="0"/>
        <pt x="260" y="-15" on="1"/>
        <pt x="220" y="-15" on="0"/>
        <pt x="148" y="0" on="0"/>
        <pt x="94" y="32" on="0"/>
        <pt x="63" y="84" on="0"/>
      </contour>
      <contour>
        <pt x="260" y="301" on="1"/>
        <pt x="235" y="301" on="0"/>
        <pt x="193" y="271" on="0"/>
        <pt x="162" y="222" on="0"/>
        <pt x="144" y="157" on="0"/>
        <pt x="144" y="122" on="1"/>
        <pt x="144" y="97" on="0"/>
        <pt x="162" y="63" on="0"/>
        <pt x="194" y="43" on="0"/>
        <pt x="236" y="35" on="0"/>
        <pt x="260" y="35" on="1"/>
        <pt x="284" y="35" on="0"/>
        <pt x="326" y="43" on="0"/>
        <pt x="358" y="63" on="0"/>
        <pt x="376" y="97" on="0"/>
        <pt x="376" y="122" on="1"/>
        <pt x="376" y="157" on="0"/>
        <pt x="358" y="222" on="0"/>
        <pt x="327" y="271" on="0"/>
        <pt x="285" y="301" on="0"/>
      </contour>
      <contour>
        <pt x="260" y="345" on="1"/>
        <pt x="281" y="345" on="0"/>
        <pt x="318" y="375" on="0"/>
        <pt x="345" y="423" on="0"/>
        <pt x="361" y="486" on="0"/>
        <pt x="361" y="519" on="1"/>
        <pt x="361" y="566" on="0"/>
        <pt x="302" y="601" on="0"/>
        <pt x="260" y="601" on="1"/>
        <pt x="218" y="601" on="0"/>
        <pt x="159" y="566" on="0"/>
        <pt x="159" y="519" on="1"/>
        <pt x="159" y="486" on="0"/>
        <pt x="175" y="423" on="0"/>
        <pt x="202" y="375" on="0"/>
        <pt x="239" y="345" on="0"/>
      </contour>
    </TTGlyph>
    <TTGlyph name="eightinferior" xMin="64" yMin="-209" xMax="306" yMax="191">
      <contour>
        <pt x="64" y="-123" on="1"/>
        <pt x="64" y="-86" on="0"/>
        <pt x="106" y="-20" on="0"/>
        <pt x="137" y="-3" on="1"/>
        <pt x="109" y="14" on="0"/>
        <pt x="73" y="76" on="0"/>
        <pt x="73" y="111" on="1"/>
        <pt x="73" y="134" on="0"/>
        <pt x="91" y="165" on="0"/>
        <pt x="121" y="183" on="0"/>
        <pt x="162" y="191" on="0"/>
        <pt x="185" y="191" on="1"/>
        <pt x="208" y="191" on="0"/>
        <pt x="249" y="183" on="0"/>
        <pt x="279" y="165" on="0"/>
        <pt x="297" y="134" on="0"/>
        <pt x="297" y="111" on="1"/>
        <pt x="297" y="76" on="0"/>
        <pt x="261" y="14" on="0"/>
        <pt x="233" y="-3" on="1"/>
        <pt x="264" y="-20" on="0"/>
        <pt x="306" y="-86" on="0"/>
        <pt x="306" y="-123" on="1"/>
        <pt x="306" y="-147" on="0"/>
        <pt x="287" y="-179" on="0"/>
        <pt x="254" y="-200" on="0"/>
        <pt x="210" y="-209" on="0"/>
        <pt x="185" y="-209" on="1"/>
        <pt x="160" y="-209" on="0"/>
        <pt x="116" y="-200" on="0"/>
        <pt x="83" y="-179" on="0"/>
        <pt x="64" y="-147" on="0"/>
      </contour>
      <contour>
        <pt x="185" y="-22" on="1"/>
        <pt x="171" y="-22" on="0"/>
        <pt x="148" y="-39" on="0"/>
        <pt x="131" y="-67" on="0"/>
        <pt x="121" y="-104" on="0"/>
        <pt x="121" y="-123" on="1"/>
        <pt x="121" y="-150" on="0"/>
        <pt x="159" y="-169" on="0"/>
        <pt x="185" y="-169" on="1"/>
        <pt x="211" y="-169" on="0"/>
        <pt x="249" y="-150" on="0"/>
        <pt x="249" y="-123" on="1"/>
        <pt x="249" y="-104" on="0"/>
        <pt x="239" y="-67" on="0"/>
        <pt x="222" y="-39" on="0"/>
        <pt x="198" y="-22" on="0"/>
      </contour>
      <contour>
        <pt x="185" y="14" on="1"/>
        <pt x="196" y="14" on="0"/>
        <pt x="216" y="31" on="0"/>
        <pt x="231" y="58" on="0"/>
        <pt x="240" y="93" on="0"/>
        <pt x="240" y="111" on="1"/>
        <pt x="240" y="137" on="0"/>
        <pt x="208" y="156" on="0"/>
        <pt x="185" y="156" on="1"/>
        <pt x="162" y="156" on="0"/>
        <pt x="130" y="137" on="0"/>
        <pt x="130" y="111" on="1"/>
        <pt x="130" y="93" on="0"/>
        <pt x="138" y="58" on="0"/>
        <pt x="153" y="31" on="0"/>
        <pt x="173" y="14" on="0"/>
      </contour>
    </TTGlyph>
    <TTGlyph name="ellipsis" xMin="50" yMin="-15" xMax="565" yMax="128">
      <contour>
        <pt x="103" y="-15" on="1"/>
        <pt x="92" y="-15" on="0"/>
        <pt x="72" y="2" on="0"/>
        <pt x="58" y="31" on="0"/>
        <pt x="50" y="67" on="0"/>
        <pt x="50" y="86" on="1"/>
        <pt x="50" y="114" on="0"/>
        <pt x="81" y="128" on="0"/>
        <pt x="103" y="128" on="1"/>
        <pt x="125" y="128" on="0"/>
        <pt x="155" y="114" on="0"/>
        <pt x="155" y="86" on="1"/>
        <pt x="155" y="67" on="0"/>
        <pt x="147" y="31" on="0"/>
        <pt x="133" y="2" on="0"/>
        <pt x="114" y="-15" on="0"/>
      </contour>
      <contour>
        <pt x="308" y="-15" on="1"/>
        <pt x="297" y="-15" on="0"/>
        <pt x="277" y="2" on="0"/>
        <pt x="263" y="31" on="0"/>
        <pt x="255" y="67" on="0"/>
        <pt x="255" y="86" on="1"/>
        <pt x="255" y="114" on="0"/>
        <pt x="286" y="128" on="0"/>
        <pt x="308" y="128" on="1"/>
        <pt x="330" y="128" on="0"/>
        <pt x="360" y="114" on="0"/>
        <pt x="360" y="86" on="1"/>
        <pt x="360" y="67" on="0"/>
        <pt x="352" y="31" on="0"/>
        <pt x="338" y="2" on="0"/>
        <pt x="319" y="-15" on="0"/>
      </contour>
      <contour>
        <pt x="513" y="-15" on="1"/>
        <pt x="502" y="-15" on="0"/>
        <pt x="482" y="2" on="0"/>
        <pt x="468" y="31" on="0"/>
        <pt x="460" y="67" on="0"/>
        <pt x="460" y="86" on="1"/>
        <pt x="460" y="114" on="0"/>
        <pt x="491" y="128" on="0"/>
        <pt x="513" y="128" on="1"/>
        <pt x="535" y="128" on="0"/>
        <pt x="565" y="114" on="0"/>
        <pt x="565" y="86" on="1"/>
        <pt x="565" y="67" on="0"/>
        <pt x="557" y="31" on="0"/>
        <pt x="543" y="2" on="0"/>
        <pt x="524" y="-15" on="0"/>
      </contour>
    </TTGlyph>
    <TTGlyph name="emacron" xMin="65" yMin="-15" xMax="407" yMax="671">
      <component glyphName=".ttfautohint" x="65" y="0" flags="0x1000"/>
      <component glyphName="e" x="0" y="0" flags="0x1204"/>
      <component glyphName="macron" x="69" y="0" flags="0x1004"/>
    </TTGlyph>
    <TTGlyph name="emdash" xMin="0" yMin="290" xMax="817" yMax="340">
      <contour>
        <pt x="0" y="340" on="1"/>
        <pt x="817" y="340" on="1"/>
        <pt x="817" y="290" on="1"/>
        <pt x="0" y="290" on="1"/>
      </contour>
    </TTGlyph>
    <TTGlyph name="endash" xMin="0" yMin="290" xMax="544" yMax="340">
      <contour>
        <pt x="0" y="340" on="1"/>
        <pt x="544" y="340" on="1"/>
        <pt x="544" y="290" on="1"/>
        <pt x="0" y="290" on="1"/>
      </contour>
    </TTGlyph>
    <TTGlyph name="eogonek" xMin="65" yMin="-235" xMax="408" yMax="531">
      <component glyphName=".ttfautohint" x="65" y="0" flags="0x1000"/>
      <component glyphName="e" x="0" y="0" flags="0x1204"/>
      <component glyphName="ogonek" x="109" y="0" flags="0x1004"/>
    </TTGlyph>
    <TTGlyph name="equal" xMin="70" yMin="207" xMax="450" yMax="437">
      <contour>
        <pt x="70" y="387" on="1"/>
        <pt x="70" y="437" on="1"/>
        <pt x="450" y="437" on="1"/>
        <pt x="450" y="387" on="1"/>
      </contour>
      <contour>
        <pt x="70" y="207" on="1"/>
        <pt x="70" y="257" on="1"/>
        <pt x="450" y="257" on="1"/>
        <pt x="450" y="207" on="1"/>
      </contour>
    </TTGlyph>
    <TTGlyph name="eslash" xMin="0" yMin="386" xMax="236" yMax="531">
      <contour>
        <pt x="236" y="531" on="1"/>
        <pt x="236" y="486" on="1"/>
        <pt x="0" y="386" on="1"/>
        <pt x="0" y="431" on="1"/>
      </contour>
    </TTGlyph>
    <TTGlyph name="estimated" xMin="44" yMin="-17" xMax="561" yMax="535">
      <contour>
        <pt x="157" y="259" on="1"/>
        <pt x="157" y="78" on="1"/>
        <pt x="219" y="19" on="0"/>
        <pt x="302" y="19" on="1"/>
        <pt x="426" y="19" on="0"/>
        <pt x="495" y="139" on="1"/>
        <pt x="530" y="118" on="1"/>
        <pt x="504" y="83" on="0"/>
        <pt x="456" y="33" on="0"/>
        <pt x="404" y="-1" on="0"/>
        <pt x="342" y="-17" on="0"/>
        <pt x="302" y="-17" on="1"/>
        <pt x="240" y="-17" on="0"/>
        <pt x="144" y="26" on="0"/>
        <pt x="78" y="101" on="0"/>
        <pt x="44" y="202" on="0"/>
        <pt x="44" y="259" on="1"/>
        <pt x="44" y="320" on="0"/>
        <pt x="80" y="422" on="0"/>
        <pt x="146" y="495" on="0"/>
        <pt x="242" y="535" on="0"/>
        <pt x="302" y="535" on="1"/>
        <pt x="366" y="535" on="0"/>
        <pt x="461" y="492" on="0"/>
        <pt x="525" y="417" on="0"/>
        <pt x="558" y="317" on="0"/>
        <pt x="561" y="259" on="1"/>
      </contour>
      <contour>
        <pt x="448" y="295" on="1"/>
        <pt x="448" y="440" on="1"/>
        <pt x="385" y="500" on="0"/>
        <pt x="301" y="500" on="1"/>
        <pt x="215" y="500" on="0"/>
        <pt x="157" y="440" on="1"/>
        <pt x="157" y="295" on="1"/>
      </contour>
    </TTGlyph>
    <TTGlyph name="eth" xMin="50" yMin="-15" xMax="394" yMax="765">
      <contour>
        <pt x="154" y="670" on="1"/>
        <pt x="137" y="685" on="0"/>
        <pt x="103" y="716" on="0"/>
        <pt x="84" y="732" on="1"/>
        <pt x="118" y="765" on="1"/>
        <pt x="141" y="748" on="0"/>
        <pt x="185" y="712" on="0"/>
        <pt x="207" y="693" on="1"/>
        <pt x="315" y="739" on="1"/>
        <pt x="315" y="694" on="1"/>
        <pt x="240" y="662" on="1"/>
        <pt x="272" y="631" on="0"/>
        <pt x="328" y="562" on="0"/>
        <pt x="370" y="485" on="0"/>
        <pt x="394" y="400" on="0"/>
        <pt x="394" y="353" on="1"/>
        <pt x="394" y="285" on="0"/>
        <pt x="368" y="153" on="0"/>
        <pt x="321" y="49" on="0"/>
        <pt x="258" y="-15" on="0"/>
        <pt x="222" y="-15" on="1"/>
        <pt x="186" y="-15" on="0"/>
        <pt x="123" y="49" on="0"/>
        <pt x="76" y="153" on="0"/>
        <pt x="50" y="285" on="0"/>
        <pt x="50" y="353" on="1"/>
        <pt x="50" y="410" on="0"/>
        <pt x="77" y="478" on="0"/>
        <pt x="124" y="516" on="0"/>
        <pt x="187" y="528" on="0"/>
        <pt x="222" y="528" on="1"/>
        <pt x="234" y="528" on="0"/>
        <pt x="262" y="524" on="0"/>
        <pt x="275" y="519" on="1"/>
        <pt x="280" y="524" on="1"/>
        <pt x="263" y="553" on="0"/>
        <pt x="216" y="610" on="0"/>
        <pt x="186" y="639" on="1"/>
        <pt x="79" y="594" on="1"/>
        <pt x="79" y="639" on="1"/>
      </contour>
      <contour>
        <pt x="222" y="26" on="1"/>
        <pt x="241" y="26" on="0"/>
        <pt x="275" y="82" on="0"/>
        <pt x="299" y="174" on="0"/>
        <pt x="313" y="292" on="0"/>
        <pt x="313" y="353" on="1"/>
        <pt x="313" y="396" on="0"/>
        <pt x="299" y="449" on="0"/>
        <pt x="274" y="478" on="0"/>
        <pt x="241" y="487" on="0"/>
        <pt x="222" y="487" on="1"/>
        <pt x="203" y="487" on="0"/>
        <pt x="170" y="478" on="0"/>
        <pt x="145" y="449" on="0"/>
        <pt x="131" y="396" on="0"/>
        <pt x="131" y="353" on="1"/>
        <pt x="131" y="292" on="0"/>
        <pt x="145" y="174" on="0"/>
        <pt x="169" y="82" on="0"/>
        <pt x="202" y="26" on="0"/>
      </contour>
    </TTGlyph>
    <TTGlyph name="exclam" xMin="83" yMin="-15" xMax="182" yMax="690">
      <contour>
        <pt x="132" y="186" on="1"/>
        <pt x="125" y="186" on="0"/>
        <pt x="113" y="233" on="0"/>
        <pt x="103" y="309" on="0"/>
        <pt x="94" y="403" on="0"/>
        <pt x="88" y="495" on="0"/>
        <pt x="85" y="577" on="0"/>
        <pt x="85" y="603" on="1"/>
        <pt x="85" y="632" on="0"/>
        <pt x="90" y="666" on="0"/>
        <pt x="101" y="684" on="0"/>
        <pt x="119" y="690" on="0"/>
        <pt x="132" y="690" on="1"/>
        <pt x="145" y="690" on="0"/>
        <pt x="164" y="684" on="0"/>
        <pt x="174" y="666" on="0"/>
        <pt x="179" y="632" on="0"/>
        <pt x="179" y="603" on="1"/>
        <pt x="179" y="577" on="0"/>
        <pt x="176" y="495" on="0"/>
        <pt x="170" y="403" on="0"/>
        <pt x="161" y="309" on="0"/>
        <pt x="151" y="233" on="0"/>
        <pt x="139" y="186" on="0"/>
      </contour>
      <contour>
        <pt x="132" y="120" on="1"/>
        <pt x="143" y="120" on="0"/>
        <pt x="161" y="103" on="0"/>
        <pt x="175" y="76" on="0"/>
        <pt x="182" y="42" on="0"/>
        <pt x="182" y="24" on="1"/>
        <pt x="182" y="-2" on="0"/>
        <pt x="153" y="-15" on="0"/>
        <pt x="132" y="-15" on="1"/>
        <pt x="111" y="-15" on="0"/>
        <pt x="83" y="-2" on="0"/>
        <pt x="83" y="24" on="1"/>
        <pt x="83" y="42" on="0"/>
        <pt x="90" y="76" on="0"/>
        <pt x="104" y="103" on="0"/>
        <pt x="121" y="120" on="0"/>
      </contour>
    </TTGlyph>
    <TTGlyph name="exclamdown" xMin="83" yMin="-174" xMax="182" yMax="531">
      <contour>
        <pt x="133" y="330" on="1"/>
        <pt x="140" y="330" on="0"/>
        <pt x="152" y="283" on="0"/>
        <pt x="162" y="207" on="0"/>
        <pt x="171" y="113" on="0"/>
        <pt x="177" y="21" on="0"/>
        <pt x="180" y="-61" on="0"/>
        <pt x="180" y="-87" on="1"/>
        <pt x="180" y="-116" on="0"/>
        <pt x="175" y="-150" on="0"/>
        <pt x="164" y="-168" on="0"/>
        <pt x="146" y="-174" on="0"/>
        <pt x="133" y="-174" on="1"/>
        <pt x="119" y="-174" on="0"/>
        <pt x="101" y="-168" on="0"/>
        <pt x="91" y="-150" on="0"/>
        <pt x="86" y="-116" on="0"/>
        <pt x="86" y="-87" on="1"/>
        <pt x="86" y="-61" on="0"/>
        <pt x="89" y="21" on="0"/>
        <pt x="95" y="113" on="0"/>
        <pt x="104" y="207" on="0"/>
        <pt x="114" y="283" on="0"/>
        <pt x="126" y="330" on="0"/>
      </contour>
      <contour>
        <pt x="133" y="396" on="1"/>
        <pt x="122" y="396" on="0"/>
        <pt x="104" y="412" on="0"/>
        <pt x="90" y="439" on="0"/>
        <pt x="83" y="474" on="0"/>
        <pt x="83" y="492" on="1"/>
        <pt x="83" y="518" on="0"/>
        <pt x="112" y="531" on="0"/>
        <pt x="133" y="531" on="1"/>
        <pt x="154" y="531" on="0"/>
        <pt x="182" y="518" on="0"/>
        <pt x="182" y="492" on="1"/>
        <pt x="182" y="474" on="0"/>
        <pt x="175" y="439" on="0"/>
        <pt x="161" y="412" on="0"/>
        <pt x="143" y="396" on="0"/>
      </contour>
    </TTGlyph>
    <TTGlyph name="f" xMin="50" yMin="0" xMax="353" yMax="765">
      <contour>
        <pt x="130" y="516" on="1"/>
        <pt x="134" y="571" on="0"/>
        <pt x="152" y="662" on="0"/>
        <pt x="181" y="728" on="0"/>
        <pt x="222" y="765" on="0"/>
        <pt x="250" y="765" on="1"/>
        <pt x="264" y="765" on="0"/>
        <pt x="296" y="754" on="0"/>
        <pt x="326" y="728" on="0"/>
        <pt x="348" y="684" on="0"/>
        <pt x="353" y="650" on="1"/>
        <pt x="274" y="626" on="1"/>
        <pt x="270" y="671" on="0"/>
        <pt x="248" y="713" on="0"/>
        <pt x="232" y="713" on="1"/>
        <pt x="220" y="713" on="0"/>
        <pt x="205" y="684" on="0"/>
        <pt x="195" y="631" on="0"/>
        <pt x="191" y="559" on="0"/>
        <pt x="190" y="516" on="1"/>
        <pt x="296" y="516" on="1"/>
        <pt x="296" y="458" on="1"/>
        <pt x="190" y="462" on="1"/>
        <pt x="190" y="456" on="0"/>
        <pt x="190" y="440" on="0"/>
        <pt x="190" y="406" on="0"/>
        <pt x="191" y="347" on="0"/>
        <pt x="192" y="248" on="0"/>
        <pt x="194" y="103" on="0"/>
        <pt x="196" y="0" on="1"/>
        <pt x="120" y="0" on="1"/>
        <pt x="121" y="103" on="0"/>
        <pt x="123" y="248" on="0"/>
        <pt x="125" y="347" on="0"/>
        <pt x="125" y="407" on="0"/>
        <pt x="126" y="442" on="0"/>
        <pt x="127" y="458" on="0"/>
        <pt x="127" y="465" on="1"/>
        <pt x="50" y="468" on="1"/>
        <pt x="50" y="516" on="1"/>
      </contour>
    </TTGlyph>
    <TTGlyph name="fi" xMin="50" yMin="0" xMax="479" yMax="765">
      <component glyphName=".ttfautohint" x="50" y="0" flags="0x1000"/>
      <component glyphName="f" x="0" y="0" flags="0x1004"/>
      <component glyphName="i" x="308" y="0" flags="0x1004"/>
    </TTGlyph>
    <TTGlyph name="five" xMin="63" yMin="-15" xMax="457" yMax="635">
      <contour>
        <pt x="403" y="574" on="1"/>
        <pt x="189" y="583" on="1"/>
        <pt x="153" y="363" on="1"/>
        <pt x="238" y="363" on="0"/>
        <pt x="355" y="319" on="0"/>
        <pt x="426" y="255" on="0"/>
        <pt x="457" y="182" on="0"/>
        <pt x="457" y="152" on="1"/>
        <pt x="457" y="103" on="0"/>
        <pt x="426" y="39" on="0"/>
        <pt x="372" y="1" on="0"/>
        <pt x="300" y="-15" on="0"/>
        <pt x="260" y="-15" on="1"/>
        <pt x="220" y="-15" on="0"/>
        <pt x="148" y="0" on="0"/>
        <pt x="94" y="32" on="0"/>
        <pt x="63" y="84" on="0"/>
        <pt x="63" y="122" on="1"/>
        <pt x="63" y="152" on="0"/>
        <pt x="72" y="179" on="1"/>
        <pt x="148" y="168" on="1"/>
        <pt x="144" y="148" on="0"/>
        <pt x="144" y="122" on="1"/>
        <pt x="144" y="97" on="0"/>
        <pt x="162" y="63" on="0"/>
        <pt x="194" y="43" on="0"/>
        <pt x="236" y="35" on="0"/>
        <pt x="260" y="35" on="1"/>
        <pt x="284" y="35" on="0"/>
        <pt x="326" y="44" on="0"/>
        <pt x="358" y="70" on="0"/>
        <pt x="376" y="116" on="0"/>
        <pt x="376" y="152" on="1"/>
        <pt x="376" y="176" on="0"/>
        <pt x="360" y="234" on="0"/>
        <pt x="310" y="286" on="0"/>
        <pt x="217" y="321" on="0"/>
        <pt x="140" y="321" on="1"/>
        <pt x="90" y="321" on="1"/>
        <pt x="110" y="635" on="1"/>
        <pt x="403" y="635" on="1"/>
      </contour>
    </TTGlyph>
    <TTGlyph name="fiveinferior" xMin="64" yMin="-209" xMax="306" yMax="185">
      <contour>
        <pt x="275" y="139" on="1"/>
        <pt x="146" y="145" on="1"/>
        <pt x="141" y="114" on="0"/>
        <pt x="133" y="56" on="0"/>
        <pt x="128" y="25" on="1"/>
        <pt x="178" y="23" on="0"/>
        <pt x="246" y="-4" on="0"/>
        <pt x="288" y="-43" on="0"/>
        <pt x="306" y="-87" on="0"/>
        <pt x="306" y="-105" on="1"/>
        <pt x="306" y="-135" on="0"/>
        <pt x="287" y="-175" on="0"/>
        <pt x="254" y="-199" on="0"/>
        <pt x="210" y="-209" on="0"/>
        <pt x="185" y="-209" on="1"/>
        <pt x="160" y="-209" on="0"/>
        <pt x="116" y="-200" on="0"/>
        <pt x="83" y="-179" on="0"/>
        <pt x="64" y="-147" on="0"/>
        <pt x="64" y="-123" on="1"/>
        <pt x="64" y="-102" on="0"/>
        <pt x="70" y="-84" on="1"/>
        <pt x="125" y="-92" on="1"/>
        <pt x="121" y="-107" on="0"/>
        <pt x="121" y="-123" on="1"/>
        <pt x="121" y="-150" on="0"/>
        <pt x="159" y="-169" on="0"/>
        <pt x="185" y="-169" on="1"/>
        <pt x="198" y="-169" on="0"/>
        <pt x="221" y="-164" on="0"/>
        <pt x="239" y="-150" on="0"/>
        <pt x="249" y="-125" on="0"/>
        <pt x="249" y="-105" on="1"/>
        <pt x="249" y="-92" on="0"/>
        <pt x="240" y="-59" on="0"/>
        <pt x="211" y="-30" on="0"/>
        <pt x="158" y="-10" on="0"/>
        <pt x="114" y="-10" on="1"/>
        <pt x="79" y="-10" on="1"/>
        <pt x="91" y="185" on="1"/>
        <pt x="275" y="185" on="1"/>
      </contour>
    </TTGlyph>
    <TTGlyph name="fl" xMin="50" yMin="0" xMax="465" yMax="765">
      <component glyphName=".ttfautohint" x="50" y="0" flags="0x1000"/>
      <component glyphName="f" x="0" y="0" flags="0x1004"/>
      <component glyphName="l" x="308" y="0" flags="0x1004"/>
    </TTGlyph>
    <TTGlyph name="florin" xMin="20" yMin="-215" xMax="410" yMax="645">
      <contour>
        <pt x="181" y="339" on="1"/>
        <pt x="184" y="405" on="0"/>
        <pt x="200" y="517" on="0"/>
        <pt x="230" y="599" on="0"/>
        <pt x="275" y="645" on="0"/>
        <pt x="307" y="645" on="1"/>
        <pt x="321" y="645" on="0"/>
        <pt x="353" y="634" on="0"/>
        <pt x="383" y="608" on="0"/>
        <pt x="405" y="564" on="0"/>
        <pt x="410" y="530" on="1"/>
        <pt x="331" y="506" on="1"/>
        <pt x="327" y="551" on="0"/>
        <pt x="305" y="593" on="0"/>
        <pt x="289" y="593" on="1"/>
        <pt x="276" y="593" on="0"/>
        <pt x="260" y="554" on="0"/>
        <pt x="251" y="486" on="0"/>
        <pt x="248" y="393" on="0"/>
        <pt x="248" y="339" on="1"/>
        <pt x="369" y="339" on="1"/>
        <pt x="369" y="296" on="1"/>
        <pt x="248" y="296" on="1"/>
        <pt x="248" y="165" on="1"/>
        <pt x="248" y="85" on="0"/>
        <pt x="236" y="-54" on="0"/>
        <pt x="207" y="-156" on="0"/>
        <pt x="159" y="-215" on="0"/>
        <pt x="123" y="-215" on="1"/>
        <pt x="109" y="-215" on="0"/>
        <pt x="77" y="-204" on="0"/>
        <pt x="47" y="-178" on="0"/>
        <pt x="24" y="-134" on="0"/>
        <pt x="20" y="-100" on="1"/>
        <pt x="97" y="-76" on="1"/>
        <pt x="101" y="-121" on="0"/>
        <pt x="123" y="-163" on="0"/>
        <pt x="139" y="-163" on="1"/>
        <pt x="154" y="-163" on="0"/>
        <pt x="171" y="-111" on="0"/>
        <pt x="179" y="-21" on="0"/>
        <pt x="180" y="98" on="0"/>
        <pt x="180" y="165" on="1"/>
        <pt x="180" y="296" on="1"/>
        <pt x="80" y="296" on="1"/>
        <pt x="80" y="339" on="1"/>
      </contour>
    </TTGlyph>
    <TTGlyph name="four" xMin="60" yMin="0" xMax="478" yMax="630">
      <contour>
        <pt x="330" y="125" on="1"/>
        <pt x="273" y="125" on="1"/>
        <pt x="235" y="125" on="0"/>
        <pt x="159" y="137" on="0"/>
        <pt x="98" y="172" on="0"/>
        <pt x="60" y="237" on="0"/>
        <pt x="60" y="291" on="1"/>
        <pt x="60" y="338" on="0"/>
        <pt x="87" y="428" on="0"/>
        <pt x="132" y="513" on="0"/>
        <pt x="191" y="593" on="0"/>
        <pt x="222" y="630" on="1"/>
        <pt x="261" y="630" on="1"/>
        <pt x="237" y="592" on="0"/>
        <pt x="196" y="512" on="0"/>
        <pt x="164" y="433" on="0"/>
        <pt x="146" y="357" on="0"/>
        <pt x="146" y="323" on="1"/>
        <pt x="146" y="243" on="0"/>
        <pt x="202" y="165" on="0"/>
        <pt x="273" y="165" on="1"/>
        <pt x="332" y="165" on="1"/>
        <pt x="354" y="516" on="1"/>
        <pt x="410" y="516" on="1"/>
        <pt x="410" y="165" on="1"/>
        <pt x="478" y="165" on="1"/>
        <pt x="478" y="125" on="1"/>
        <pt x="410" y="125" on="1"/>
        <pt x="410" y="0" on="1"/>
        <pt x="322" y="0" on="1"/>
      </contour>
    </TTGlyph>
    <TTGlyph name="fourinferior" xMin="62" yMin="-200" xMax="319" yMax="182">
      <contour>
        <pt x="221" y="-126" on="1"/>
        <pt x="193" y="-126" on="1"/>
        <pt x="170" y="-126" on="0"/>
        <pt x="123" y="-119" on="0"/>
        <pt x="85" y="-96" on="0"/>
        <pt x="62" y="-56" on="0"/>
        <pt x="62" y="-23" on="1"/>
        <pt x="62" y="5" on="0"/>
        <pt x="78" y="59" on="0"/>
        <pt x="105" y="111" on="0"/>
        <pt x="141" y="159" on="0"/>
        <pt x="160" y="182" on="1"/>
        <pt x="195" y="182" on="1"/>
        <pt x="165" y="134" on="0"/>
        <pt x="123" y="35" on="0"/>
        <pt x="123" y="-4" on="1"/>
        <pt x="123" y="-49" on="0"/>
        <pt x="154" y="-93" on="0"/>
        <pt x="193" y="-93" on="1"/>
        <pt x="222" y="-93" on="1"/>
        <pt x="235" y="115" on="1"/>
        <pt x="278" y="115" on="1"/>
        <pt x="278" y="-93" on="1"/>
        <pt x="319" y="-93" on="1"/>
        <pt x="319" y="-126" on="1"/>
        <pt x="278" y="-126" on="1"/>
        <pt x="278" y="-200" on="1"/>
        <pt x="216" y="-200" on="1"/>
      </contour>
    </TTGlyph>
    <TTGlyph name="fraction" xMin="0" yMin="-47" xMax="258" yMax="677">
      <contour>
        <pt x="212" y="677" on="1"/>
        <pt x="258" y="664" on="1"/>
        <pt x="46" y="-47" on="1"/>
        <pt x="0" y="-34" on="1"/>
      </contour>
    </TTGlyph>
    <TTGlyph name="g" xMin="40" yMin="-235" xMax="437" yMax="650">
      <contour>
        <pt x="232" y="135" on="1"/>
        <pt x="197" y="135" on="0"/>
        <pt x="168" y="155" on="1"/>
        <pt x="163" y="139" on="0"/>
        <pt x="159" y="114" on="0"/>
        <pt x="159" y="101" on="1"/>
        <pt x="159" y="80" on="0"/>
        <pt x="196" y="54" on="0"/>
        <pt x="252" y="34" on="0"/>
        <pt x="317" y="15" on="0"/>
        <pt x="373" y="-17" on="0"/>
        <pt x="410" y="-65" on="0"/>
        <pt x="410" y="-103" on="1"/>
        <pt x="410" y="-168" on="0"/>
        <pt x="315" y="-235" on="0"/>
        <pt x="230" y="-235" on="1"/>
        <pt x="193" y="-235" on="0"/>
        <pt x="126" y="-224" on="0"/>
        <pt x="74" y="-189" on="0"/>
        <pt x="42" y="-126" on="0"/>
        <pt x="40" y="-74" on="1"/>
        <pt x="121" y="-68" on="1"/>
        <pt x="122" y="-109" on="0"/>
        <pt x="140" y="-158" on="0"/>
        <pt x="170" y="-185" on="0"/>
        <pt x="209" y="-194" on="0"/>
        <pt x="231" y="-194" on="1"/>
        <pt x="281" y="-194" on="0"/>
        <pt x="332" y="-144" on="0"/>
        <pt x="332" y="-103" on="1"/>
        <pt x="332" y="-76" on="0"/>
        <pt x="299" y="-44" on="0"/>
        <pt x="248" y="-22" on="0"/>
        <pt x="190" y="-5" on="0"/>
        <pt x="139" y="19" on="0"/>
        <pt x="106" y="54" on="0"/>
        <pt x="106" y="84" on="1"/>
        <pt x="106" y="106" on="0"/>
        <pt x="117" y="155" on="0"/>
        <pt x="135" y="184" on="1"/>
        <pt x="100" y="222" on="0"/>
        <pt x="60" y="339" on="0"/>
        <pt x="60" y="401" on="1"/>
        <pt x="60" y="441" on="0"/>
        <pt x="86" y="491" on="0"/>
        <pt x="132" y="518" on="0"/>
        <pt x="192" y="528" on="0"/>
        <pt x="227" y="528" on="1"/>
        <pt x="240" y="566" on="0"/>
        <pt x="268" y="614" on="0"/>
        <pt x="299" y="641" on="0"/>
        <pt x="335" y="650" on="0"/>
        <pt x="356" y="650" on="1"/>
        <pt x="368" y="650" on="0"/>
        <pt x="394" y="642" on="0"/>
        <pt x="417" y="623" on="0"/>
        <pt x="434" y="592" on="0"/>
        <pt x="437" y="568" on="1"/>
        <pt x="356" y="546" on="1"/>
        <pt x="355" y="572" on="0"/>
        <pt x="340" y="598" on="0"/>
        <pt x="328" y="598" on="1"/>
        <pt x="297" y="598" on="0"/>
        <pt x="271" y="526" on="1"/>
        <pt x="299" y="524" on="0"/>
        <pt x="348" y="511" on="0"/>
        <pt x="384" y="483" on="0"/>
        <pt x="404" y="436" on="0"/>
        <pt x="404" y="401" on="1"/>
        <pt x="404" y="352" on="0"/>
        <pt x="378" y="256" on="0"/>
        <pt x="331" y="181" on="0"/>
        <pt x="268" y="135" on="0"/>
      </contour>
      <contour>
        <pt x="232" y="176" on="1"/>
        <pt x="251" y="176" on="0"/>
        <pt x="285" y="214" on="0"/>
        <pt x="309" y="276" on="0"/>
        <pt x="323" y="356" on="0"/>
        <pt x="323" y="397" on="1"/>
        <pt x="323" y="426" on="0"/>
        <pt x="309" y="462" on="0"/>
        <pt x="284" y="481" on="0"/>
        <pt x="251" y="487" on="0"/>
        <pt x="232" y="487" on="1"/>
        <pt x="213" y="487" on="0"/>
        <pt x="180" y="481" on="0"/>
        <pt x="155" y="462" on="0"/>
        <pt x="141" y="426" on="0"/>
        <pt x="141" y="397" on="1"/>
        <pt x="141" y="356" on="0"/>
        <pt x="155" y="276" on="0"/>
        <pt x="179" y="214" on="0"/>
        <pt x="212" y="176" on="0"/>
      </contour>
    </TTGlyph>
    <TTGlyph name="gbreve" xMin="40" yMin="-235" xMax="456" yMax="707">
      <contour>
        <pt x="232" y="135" on="1"/>
        <pt x="197" y="135" on="0"/>
        <pt x="168" y="155" on="1"/>
        <pt x="163" y="139" on="0"/>
        <pt x="159" y="114" on="0"/>
        <pt x="159" y="101" on="1"/>
        <pt x="159" y="80" on="0"/>
        <pt x="196" y="54" on="0"/>
        <pt x="252" y="34" on="0"/>
        <pt x="317" y="15" on="0"/>
        <pt x="373" y="-17" on="0"/>
        <pt x="410" y="-65" on="0"/>
        <pt x="410" y="-103" on="1"/>
        <pt x="410" y="-168" on="0"/>
        <pt x="315" y="-235" on="0"/>
        <pt x="230" y="-235" on="1"/>
        <pt x="193" y="-235" on="0"/>
        <pt x="126" y="-224" on="0"/>
        <pt x="74" y="-189" on="0"/>
        <pt x="42" y="-126" on="0"/>
        <pt x="40" y="-74" on="1"/>
        <pt x="121" y="-68" on="1"/>
        <pt x="122" y="-109" on="0"/>
        <pt x="140" y="-158" on="0"/>
        <pt x="170" y="-185" on="0"/>
        <pt x="209" y="-194" on="0"/>
        <pt x="231" y="-194" on="1"/>
        <pt x="281" y="-194" on="0"/>
        <pt x="332" y="-144" on="0"/>
        <pt x="332" y="-103" on="1"/>
        <pt x="332" y="-76" on="0"/>
        <pt x="299" y="-44" on="0"/>
        <pt x="248" y="-22" on="0"/>
        <pt x="190" y="-5" on="0"/>
        <pt x="139" y="19" on="0"/>
        <pt x="106" y="54" on="0"/>
        <pt x="106" y="84" on="1"/>
        <pt x="106" y="106" on="0"/>
        <pt x="117" y="155" on="0"/>
        <pt x="135" y="184" on="1"/>
        <pt x="100" y="222" on="0"/>
        <pt x="60" y="339" on="0"/>
        <pt x="60" y="401" on="1"/>
        <pt x="60" y="442" on="0"/>
        <pt x="87" y="493" on="0"/>
        <pt x="134" y="521" on="0"/>
        <pt x="197" y="531" on="0"/>
        <pt x="232" y="531" on="1"/>
        <pt x="299" y="531" on="0"/>
        <pt x="403" y="547" on="0"/>
        <pt x="456" y="561" on="1"/>
        <pt x="456" y="551" on="0"/>
        <pt x="452" y="526" on="0"/>
        <pt x="443" y="504" on="0"/>
        <pt x="424" y="489" on="0"/>
        <pt x="409" y="489" on="1"/>
        <pt x="400" y="489" on="0"/>
        <pt x="383" y="489" on="0"/>
        <pt x="374" y="490" on="1"/>
        <pt x="404" y="460" on="0"/>
        <pt x="404" y="401" on="1"/>
        <pt x="404" y="352" on="0"/>
        <pt x="378" y="256" on="0"/>
        <pt x="331" y="181" on="0"/>
        <pt x="268" y="135" on="0"/>
      </contour>
      <contour>
        <pt x="232" y="176" on="1"/>
        <pt x="251" y="176" on="0"/>
        <pt x="285" y="214" on="0"/>
        <pt x="309" y="276" on="0"/>
        <pt x="323" y="356" on="0"/>
        <pt x="323" y="397" on="1"/>
        <pt x="323" y="426" on="0"/>
        <pt x="309" y="463" on="0"/>
        <pt x="284" y="483" on="0"/>
        <pt x="251" y="490" on="0"/>
        <pt x="232" y="490" on="1"/>
        <pt x="213" y="490" on="0"/>
        <pt x="180" y="483" on="0"/>
        <pt x="155" y="463" on="0"/>
        <pt x="141" y="426" on="0"/>
        <pt x="141" y="397" on="1"/>
        <pt x="141" y="356" on="0"/>
        <pt x="155" y="276" on="0"/>
        <pt x="179" y="214" on="0"/>
        <pt x="212" y="176" on="0"/>
      </contour>
      <contour>
        <pt x="157" y="707" on="1"/>
        <pt x="161" y="696" on="0"/>
        <pt x="172" y="670" on="0"/>
        <pt x="189" y="648" on="0"/>
        <pt x="213" y="634" on="0"/>
        <pt x="231" y="634" on="1"/>
        <pt x="249" y="634" on="0"/>
        <pt x="273" y="648" on="0"/>
        <pt x="290" y="670" on="0"/>
        <pt x="301" y="696" on="0"/>
        <pt x="305" y="707" on="1"/>
        <pt x="306" y="707" on="0"/>
        <pt x="320" y="706" on="0"/>
        <pt x="336" y="705" on="0"/>
        <pt x="348" y="702" on="0"/>
        <pt x="348" y="699" on="1"/>
        <pt x="348" y="691" on="0"/>
        <pt x="338" y="650" on="0"/>
        <pt x="312" y="607" on="0"/>
        <pt x="266" y="574" on="0"/>
        <pt x="231" y="574" on="1"/>
        <pt x="193" y="574" on="0"/>
        <pt x="147" y="608" on="0"/>
        <pt x="122" y="651" on="0"/>
        <pt x="114" y="692" on="0"/>
        <pt x="114" y="699" on="1"/>
        <pt x="114" y="702" on="0"/>
        <pt x="126" y="705" on="0"/>
        <pt x="142" y="706" on="0"/>
        <pt x="155" y="707" on="0"/>
      </contour>
    </TTGlyph>
    <TTGlyph name="gcircumflex" xMin="40" yMin="-235" xMax="456" yMax="707">
      <contour>
        <pt x="232" y="135" on="1"/>
        <pt x="197" y="135" on="0"/>
        <pt x="168" y="155" on="1"/>
        <pt x="163" y="139" on="0"/>
        <pt x="159" y="114" on="0"/>
        <pt x="159" y="101" on="1"/>
        <pt x="159" y="80" on="0"/>
        <pt x="196" y="54" on="0"/>
        <pt x="252" y="34" on="0"/>
        <pt x="317" y="15" on="0"/>
        <pt x="373" y="-17" on="0"/>
        <pt x="410" y="-65" on="0"/>
        <pt x="410" y="-103" on="1"/>
        <pt x="410" y="-168" on="0"/>
        <pt x="315" y="-235" on="0"/>
        <pt x="230" y="-235" on="1"/>
        <pt x="193" y="-235" on="0"/>
        <pt x="126" y="-224" on="0"/>
        <pt x="74" y="-189" on="0"/>
        <pt x="42" y="-126" on="0"/>
        <pt x="40" y="-74" on="1"/>
        <pt x="121" y="-68" on="1"/>
        <pt x="122" y="-109" on="0"/>
        <pt x="140" y="-158" on="0"/>
        <pt x="170" y="-185" on="0"/>
        <pt x="209" y="-194" on="0"/>
        <pt x="231" y="-194" on="1"/>
        <pt x="281" y="-194" on="0"/>
        <pt x="332" y="-144" on="0"/>
        <pt x="332" y="-103" on="1"/>
        <pt x="332" y="-76" on="0"/>
        <pt x="299" y="-44" on="0"/>
        <pt x="248" y="-22" on="0"/>
        <pt x="190" y="-5" on="0"/>
        <pt x="139" y="19" on="0"/>
        <pt x="106" y="54" on="0"/>
        <pt x="106" y="84" on="1"/>
        <pt x="106" y="106" on="0"/>
        <pt x="117" y="155" on="0"/>
        <pt x="135" y="184" on="1"/>
        <pt x="100" y="222" on="0"/>
        <pt x="60" y="339" on="0"/>
        <pt x="60" y="401" on="1"/>
        <pt x="60" y="442" on="0"/>
        <pt x="87" y="493" on="0"/>
        <pt x="134" y="521" on="0"/>
        <pt x="197" y="531" on="0"/>
        <pt x="232" y="531" on="1"/>
        <pt x="299" y="531" on="0"/>
        <pt x="403" y="547" on="0"/>
        <pt x="456" y="561" on="1"/>
        <pt x="456" y="551" on="0"/>
        <pt x="452" y="526" on="0"/>
        <pt x="443" y="504" on="0"/>
        <pt x="424" y="489" on="0"/>
        <pt x="409" y="489" on="1"/>
        <pt x="400" y="489" on="0"/>
        <pt x="383" y="489" on="0"/>
        <pt x="374" y="490" on="1"/>
        <pt x="404" y="460" on="0"/>
        <pt x="404" y="401" on="1"/>
        <pt x="404" y="352" on="0"/>
        <pt x="378" y="256" on="0"/>
        <pt x="331" y="181" on="0"/>
        <pt x="268" y="135" on="0"/>
      </contour>
      <contour>
        <pt x="232" y="176" on="1"/>
        <pt x="251" y="176" on="0"/>
        <pt x="285" y="214" on="0"/>
        <pt x="309" y="276" on="0"/>
        <pt x="323" y="356" on="0"/>
        <pt x="323" y="397" on="1"/>
        <pt x="323" y="426" on="0"/>
        <pt x="309" y="463" on="0"/>
        <pt x="284" y="483" on="0"/>
        <pt x="251" y="490" on="0"/>
        <pt x="232" y="490" on="1"/>
        <pt x="213" y="490" on="0"/>
        <pt x="180" y="483" on="0"/>
        <pt x="155" y="463" on="0"/>
        <pt x="141" y="426" on="0"/>
        <pt x="141" y="397" on="1"/>
        <pt x="141" y="356" on="0"/>
        <pt x="155" y="276" on="0"/>
        <pt x="179" y="214" on="0"/>
        <pt x="212" y="176" on="0"/>
      </contour>
      <contour>
        <pt x="335" y="574" on="1"/>
        <pt x="327" y="574" on="0"/>
        <pt x="301" y="585" on="0"/>
        <pt x="272" y="601" on="0"/>
        <pt x="242" y="619" on="0"/>
        <pt x="231" y="627" on="1"/>
        <pt x="220" y="619" on="0"/>
        <pt x="190" y="601" on="0"/>
        <pt x="161" y="585" on="0"/>
        <pt x="135" y="574" on="0"/>
        <pt x="127" y="574" on="1"/>
        <pt x="124" y="574" on="0"/>
        <pt x="114" y="577" on="0"/>
        <pt x="114" y="582" on="1"/>
        <pt x="114" y="590" on="0"/>
        <pt x="139" y="624" on="0"/>
        <pt x="172" y="661" on="0"/>
        <pt x="206" y="694" on="0"/>
        <pt x="215" y="701" on="1"/>
        <pt x="224" y="707" on="0"/>
        <pt x="231" y="707" on="1"/>
        <pt x="236" y="707" on="0"/>
        <pt x="247" y="701" on="1"/>
        <pt x="256" y="694" on="0"/>
        <pt x="290" y="661" on="0"/>
        <pt x="323" y="624" on="0"/>
        <pt x="348" y="590" on="0"/>
        <pt x="348" y="582" on="1"/>
        <pt x="348" y="577" on="0"/>
        <pt x="338" y="574" on="0"/>
      </contour>
    </TTGlyph>
    <TTGlyph name="gdotaccent" xMin="40" yMin="-235" xMax="456" yMax="710">
      <contour>
        <pt x="232" y="135" on="1"/>
        <pt x="268" y="135" on="0"/>
        <pt x="331" y="181" on="0"/>
        <pt x="378" y="256" on="0"/>
        <pt x="404" y="352" on="0"/>
        <pt x="404" y="401" on="1"/>
        <pt x="404" y="460" on="0"/>
        <pt x="374" y="490" on="1"/>
        <pt x="383" y="489" on="0"/>
        <pt x="400" y="489" on="0"/>
        <pt x="409" y="489" on="1"/>
        <pt x="424" y="489" on="0"/>
        <pt x="443" y="504" on="0"/>
        <pt x="452" y="526" on="0"/>
        <pt x="456" y="551" on="0"/>
        <pt x="456" y="561" on="1"/>
        <pt x="403" y="547" on="0"/>
        <pt x="299" y="531" on="0"/>
        <pt x="232" y="531" on="1"/>
        <pt x="197" y="531" on="0"/>
        <pt x="134" y="521" on="0"/>
        <pt x="87" y="493" on="0"/>
        <pt x="60" y="442" on="0"/>
        <pt x="60" y="401" on="1"/>
        <pt x="60" y="339" on="0"/>
        <pt x="100" y="222" on="0"/>
        <pt x="135" y="184" on="1"/>
        <pt x="117" y="155" on="0"/>
        <pt x="106" y="106" on="0"/>
        <pt x="106" y="84" on="1"/>
        <pt x="106" y="54" on="0"/>
        <pt x="139" y="19" on="0"/>
        <pt x="190" y="-5" on="0"/>
        <pt x="248" y="-22" on="0"/>
        <pt x="299" y="-44" on="0"/>
        <pt x="332" y="-76" on="0"/>
        <pt x="332" y="-103" on="1"/>
        <pt x="332" y="-144" on="0"/>
        <pt x="281" y="-194" on="0"/>
        <pt x="231" y="-194" on="1"/>
        <pt x="209" y="-194" on="0"/>
        <pt x="170" y="-185" on="0"/>
        <pt x="140" y="-158" on="0"/>
        <pt x="122" y="-109" on="0"/>
        <pt x="121" y="-68" on="1"/>
        <pt x="40" y="-74" on="1"/>
        <pt x="42" y="-126" on="0"/>
        <pt x="74" y="-189" on="0"/>
        <pt x="126" y="-224" on="0"/>
        <pt x="193" y="-235" on="0"/>
        <pt x="230" y="-235" on="1"/>
        <pt x="315" y="-235" on="0"/>
        <pt x="410" y="-168" on="0"/>
        <pt x="410" y="-103" on="1"/>
        <pt x="410" y="-65" on="0"/>
        <pt x="373" y="-17" on="0"/>
        <pt x="317" y="15" on="0"/>
        <pt x="252" y="34" on="0"/>
        <pt x="196" y="54" on="0"/>
        <pt x="159" y="80" on="0"/>
        <pt x="159" y="101" on="1"/>
        <pt x="159" y="114" on="0"/>
        <pt x="163" y="139" on="0"/>
        <pt x="168" y="155" on="1"/>
        <pt x="197" y="135" on="0"/>
      </contour>
      <contour>
        <pt x="232" y="176" on="1"/>
        <pt x="212" y="176" on="0"/>
        <pt x="179" y="214" on="0"/>
        <pt x="155" y="276" on="0"/>
        <pt x="141" y="356" on="0"/>
        <pt x="141" y="397" on="1"/>
        <pt x="141" y="426" on="0"/>
        <pt x="155" y="463" on="0"/>
        <pt x="180" y="483" on="0"/>
        <pt x="213" y="490" on="0"/>
        <pt x="232" y="490" on="1"/>
        <pt x="251" y="490" on="0"/>
        <pt x="284" y="483" on="0"/>
        <pt x="309" y="463" on="0"/>
        <pt x="323" y="426" on="0"/>
        <pt x="323" y="397" on="1"/>
        <pt x="323" y="356" on="0"/>
        <pt x="309" y="276" on="0"/>
        <pt x="285" y="214" on="0"/>
        <pt x="251" y="176" on="0"/>
      </contour>
      <contour>
        <pt x="231" y="585" on="1"/>
        <pt x="221" y="585" on="0"/>
        <pt x="204" y="600" on="0"/>
        <pt x="192" y="625" on="0"/>
        <pt x="185" y="657" on="0"/>
        <pt x="185" y="673" on="1"/>
        <pt x="185" y="697" on="0"/>
        <pt x="212" y="710" on="0"/>
        <pt x="231" y="710" on="1"/>
        <pt x="250" y="710" on="0"/>
        <pt x="276" y="697" on="0"/>
        <pt x="276" y="673" on="1"/>
        <pt x="276" y="657" on="0"/>
        <pt x="269" y="625" on="0"/>
        <pt x="257" y="600" on="0"/>
        <pt x="241" y="585" on="0"/>
      </contour>
    </TTGlyph>
</ttFont>
